<?xml version="1.0" encoding="UTF-8"?>
<!-- Generator: Adobe Illustrator 21.0.0, SVG Export Plug-In . SVG Version: 6.00 Build 0)  -->
<svg version="1.1" id="Слой_1" xmlns="http://www.w3.org/2000/svg" xmlns:xlink="http://www.w3.org/1999/xlink" x="0px" y="0px" viewBox="0 0 329.4 143.3" style="enable-background:new 0 0 329.4 143.3;" xml:space="preserve">
<g>
	<rect x="82.1" y="75.2" transform="matrix(0.8661 -0.4998 0.4998 0.8661 -25.7995 56.4634)" width="20.9" height="2.4"/>
	<rect x="76.8" y="66.2" transform="matrix(0.8661 -0.4998 0.4998 0.8661 -22.0048 52.6761)" width="21" height="2.4"/>
	<rect x="138.8" y="62" transform="matrix(0.5009 -0.8655 0.8655 0.5009 7.5698 157.1546)" width="2.4" height="20"/>
	<rect x="181.8" y="75.2" transform="matrix(0.8668 -0.4986 0.4986 0.8668 -12.4869 106.0361)" width="20.9" height="2.4"/>
	<rect x="176.6" y="66.2" transform="matrix(0.8656 -0.5007 0.5007 0.8656 -8.613 102.7329)" width="20.9" height="2.4"/>
	<polygon points="230.6,68.1 247.9,78.1 249.1,76 231.8,66  "/>
	<path d="M70.4,94.8c-2,1.7-4.9,1.7-4.9,1.7c-2.6,0-4.5-1.3-4.5-1.3c-1.9-1.3-2.8-3.7-2.8-3.7c-1-2.4-1-5.6-1-5.6c0-3,1-5.3,1-5.3   c1-2.3,2.8-3.6,2.8-3.6c1.9-1.3,4.6-1.3,4.6-1.3c2.8,0,4.5,1.4,4.5,1.4c1.8,1.3,2.6,4,2.6,4l3.4-0.8c-1-3.6-3.7-5.6-3.7-5.6   c-2.6-2-6.7-2-6.7-2c-3.5,0-6.2,1.6-6.2,1.6c-2.7,1.6-4.2,4.6-4.2,4.6c-1.5,3-1.5,7-1.5,7c0,4.2,1.4,7.2,1.4,7.2   c1.4,3,4.1,4.6,4.1,4.6c2.7,1.6,6.4,1.6,6.4,1.6c2.7,0,5-1,5-1c2.2-1,3.8-3,3.8-3c1.5-2,2.1-4.6,2.1-4.6L73,90   C72.3,93.2,70.4,94.8,70.4,94.8z"/>
	<polygon points="30.2,83.8 17.6,83.8 17.6,73.2 14.2,73.2 14.2,99 17.6,99 17.6,86.8 30.2,86.8 30.2,99 33.7,99 33.7,73.2    30.2,73.2  "/>
	<path d="M41.8,101.3c0.6-0.6,1.6-1.4,1.6-1.4l1.7-1.4c2.3-1.9,3.4-3.5,3.4-3.5c1.2-1.6,1.2-3.4,1.2-3.4c0-1.4-0.7-2.5-0.7-2.5   c-0.7-1.2-2-1.8-2-1.8c-1.3-0.6-3-0.6-3-0.6c-1.7,0-3,0.6-3,0.6c-1.2,0.6-2,1.8-2,1.8c-0.8,1.2-0.9,2.8-0.9,2.8l2.3,0.3   c0.1-1.8,1-2.7,1-2.7c0.9-0.9,2.5-0.9,2.5-0.9c1,0,1.7,0.4,1.7,0.4c0.8,0.4,1.2,1.1,1.2,1.1c0.4,0.7,0.4,1.6,0.4,1.6   c0,1.2-1,2.6-1,2.6c-1,1.4-3,3.1-3,3.1l-1.4,1.2c-2.2,1.8-3.2,3.3-3.2,3.3c-1,1.5-1,3.1-1,3.1h11.9v-2.2h-8.8   C41.2,101.9,41.8,101.3,41.8,101.3z"/>
	<path d="M120.2,66c-1.9,1.7-4.9,1.7-4.9,1.7c-2.6,0-4.5-1.3-4.5-1.3c-1.9-1.3-2.8-3.7-2.8-3.7c-1-2.4-1-5.6-1-5.6c0-3,1-5.3,1-5.3   c1-2.3,2.8-3.6,2.8-3.6c1.9-1.3,4.6-1.3,4.6-1.3c2.8,0,4.5,1.4,4.5,1.4c1.8,1.3,2.6,4,2.6,4l3.4-0.8c-1-3.6-3.7-5.6-3.7-5.6   c-2.7-2-6.7-2-6.7-2c-3.5,0-6.2,1.6-6.2,1.6c-2.7,1.6-4.2,4.6-4.2,4.6c-1.5,3-1.5,7-1.5,7c0,4.2,1.4,7.2,1.4,7.2   c1.4,3,4.1,4.6,4.1,4.6c2.7,1.6,6.4,1.6,6.4,1.6c2.7,0,5-1,5-1c2.2-1,3.7-3,3.7-3c1.5-2,2.1-4.6,2.1-4.6l-3.3-0.8   C122.2,64.4,120.2,66,120.2,66z"/>
	<polygon points="108.6,27.8 121.2,27.8 121.2,39.9 124.6,39.9 124.6,14.2 121.2,14.2 121.2,24.8 108.6,24.8 108.6,14.2 105.1,14.2    105.1,39.9 108.6,39.9  "/>
	<path d="M170.1,94.8c-1.9,1.7-4.9,1.7-4.9,1.7c-2.6,0-4.5-1.3-4.5-1.3c-1.9-1.3-2.8-3.7-2.8-3.7c-1-2.4-1-5.6-1-5.6   c0-3,1-5.3,1-5.3c1-2.3,2.8-3.6,2.8-3.6c1.9-1.3,4.6-1.3,4.6-1.3c2.7,0,4.5,1.4,4.5,1.4c1.8,1.3,2.6,4,2.6,4l3.4-0.8   c-1-3.6-3.7-5.6-3.7-5.6c-2.7-2-6.7-2-6.7-2c-3.5,0-6.2,1.6-6.2,1.6c-2.7,1.6-4.2,4.6-4.2,4.6c-1.5,3-1.5,7-1.5,7   c0,4.2,1.4,7.2,1.4,7.2c1.4,3,4.1,4.6,4.1,4.6c2.7,1.6,6.4,1.6,6.4,1.6c2.8,0,5-1,5-1c2.2-1,3.7-3,3.7-3c1.5-2,2.1-4.6,2.1-4.6   l-3.3-0.8C172.1,93.2,170.1,94.8,170.1,94.8z"/>
	<polygon points="171.1,114 158.4,114 158.4,103.4 155,103.4 155,129.2 158.4,129.2 158.4,117.1 171.1,117.1 171.1,129.2    174.5,129.2 174.5,103.4 171.1,103.4  "/>
	<path d="M220,66c-1.9,1.7-4.9,1.7-4.9,1.7c-2.6,0-4.5-1.3-4.5-1.3c-1.9-1.3-2.8-3.7-2.8-3.7c-1-2.4-1-5.6-1-5.6c0-3,1-5.3,1-5.3   c1-2.3,2.8-3.6,2.8-3.6c1.9-1.3,4.6-1.3,4.6-1.3c2.7,0,4.5,1.4,4.5,1.4c1.8,1.3,2.6,4,2.6,4l3.4-0.8c-1-3.6-3.7-5.6-3.7-5.6   c-2.7-2-6.7-2-6.7-2c-3.5,0-6.2,1.6-6.2,1.6c-2.7,1.6-4.2,4.6-4.2,4.6c-1.5,3-1.5,7-1.5,7c0,4.2,1.4,7.2,1.4,7.2   c1.4,3,4.1,4.6,4.1,4.6c2.7,1.6,6.4,1.6,6.4,1.6c2.8,0,5-1,5-1c2.2-1,3.7-3,3.7-3c1.5-2,2.1-4.6,2.1-4.6l-3.3-0.8   C222,64.4,220,66,220,66z"/>
	<polygon points="208.3,27.8 221,27.8 221,39.9 224.4,39.9 224.4,14.2 221,14.2 221,24.8 208.3,24.8 208.3,14.2 204.9,14.2    204.9,39.9 208.3,39.9  "/>
	<path d="M269.9,94.8c-1.9,1.7-4.9,1.7-4.9,1.7c-2.6,0-4.5-1.3-4.5-1.3c-1.9-1.3-2.8-3.7-2.8-3.7c-1-2.4-1-5.6-1-5.6   c0-3,1-5.3,1-5.3c1-2.3,2.8-3.6,2.8-3.6c1.9-1.3,4.6-1.3,4.6-1.3c2.7,0,4.5,1.4,4.5,1.4c1.8,1.3,2.6,4,2.6,4l3.4-0.8   c-1-3.6-3.7-5.6-3.7-5.6c-2.7-2-6.7-2-6.7-2c-3.5,0-6.2,1.6-6.2,1.6c-2.7,1.6-4.2,4.6-4.2,4.6c-1.5,3-1.5,7-1.5,7   c0,4.2,1.4,7.2,1.4,7.2c1.4,3,4.1,4.6,4.1,4.6c2.7,1.6,6.4,1.6,6.4,1.6c2.8,0,5-1,5-1c2.2-1,3.7-3,3.7-3c1.5-2,2.1-4.6,2.1-4.6   l-3.3-0.8C271.8,93.2,269.9,94.8,269.9,94.8z"/>
	<polygon points="296,83.8 283.4,83.8 283.4,73.2 279.9,73.2 279.9,99 283.4,99 283.4,86.8 296,86.8 296,99 299.4,99 299.4,73.2    296,73.2  "/>
	<path d="M314.8,97.4c-0.4-0.9-1.2-1.6-1.2-1.6c-0.8-0.6-1.8-0.8-1.8-0.8v0c1.2-0.5,2-1.5,2-1.5c0.7-1,0.7-2.2,0.7-2.2   c0-1.4-0.7-2.4-0.7-2.4c-0.6-1-1.8-1.6-1.8-1.6c-1.2-0.6-2.8-0.6-2.8-0.6c-1.5,0-2.6,0.6-2.6,0.6c-1.2,0.6-2,1.6-2,1.6   c-0.8,1.1-1,2.5-1,2.5l2.2,0.4c0.2-1.6,1.2-2.4,1.2-2.4c0.9-0.9,2.2-0.9,2.2-0.9c1.4,0,2.2,0.8,2.2,0.8c0.8,0.8,0.8,2.1,0.8,2.1   c0,1.4-1,2.2-1,2.2c-1,0.8-3.1,0.8-3.1,0.8h-0.4l-0.3,1.8h1.9c1,0,1.8,0.4,1.8,0.4c0.8,0.4,1.2,1.2,1.2,1.2   c0.4,0.8,0.4,1.8,0.4,1.8c0,1-0.5,1.9-0.5,1.9c-0.4,0.8-1.3,1.3-1.3,1.3c-0.8,0.5-1.9,0.5-1.9,0.5c-1.4,0-2.3-0.9-2.3-0.9   c-0.9-0.9-1.3-2.7-1.3-2.7l-2.2,0.4c0.2,1.5,1,2.7,1,2.7c0.8,1.1,2,1.7,2,1.7c1.3,0.6,2.8,0.6,2.8,0.6c1.8,0,3.1-0.7,3.1-0.7   c1.4-0.7,2.1-2,2.1-2c0.8-1.2,0.8-2.9,0.8-2.9C315.2,98.3,314.8,97.4,314.8,97.4z"/>
</g>
</svg>