<?xml version="1.0" encoding="UTF-8"?>
<!-- Converted by misc2svg (http://www.network-science.de/tools/misc2svg/) -->
<svg xmlns="http://www.w3.org/2000/svg" xmlns:xlink="http://www.w3.org/1999/xlink" width="199pt" height="114pt" viewBox="0 0 199 114" version="1.1">
<defs>
<clipPath id="clip1">
  <path d="M 0 113.75 L 198.75 113.75 L 198.75 0 L 0 0 L 0 113.75 Z M 0 113.75 "/>
</clipPath>
</defs>
<g id="misc2svg">
<g clip-path="url(#clip1)" clip-rule="nonzero">
<path style=" stroke:none;fill-rule:nonzero;fill:rgb(0%,0%,0%);fill-opacity:1;" d="M 5.949219 103.4375 L 5.949219 81.953125 L 8.800781 81.953125 L 8.800781 90.78125 L 19.953125 90.78125 L 19.953125 81.953125 L 22.804688 81.953125 L 22.804688 103.4375 L 19.953125 103.4375 L 19.953125 93.320312 L 8.800781 93.320312 L 8.800781 103.4375 L 5.949219 103.4375 Z M 5.949219 103.4375 "/>
<path style=" stroke:none;fill-rule:nonzero;fill:rgb(0%,0%,0%);fill-opacity:1;" d="M 26.210938 105.539062 L 28.203125 105.285156 C 28.425781 106.40625 28.808594 107.210938 29.355469 107.707031 C 29.902344 108.203125 30.566406 108.449219 31.347656 108.449219 C 32.285156 108.449219 33.074219 108.128906 33.710938 107.492188 C 34.347656 106.839844 34.667969 106.039062 34.667969 105.089844 C 34.667969 104.179688 34.367188 103.429688 33.769531 102.84375 C 33.183594 102.246094 32.433594 101.945312 31.523438 101.945312 C 31.144531 101.945312 30.675781 102.023438 30.117188 102.179688 L 30.332031 100.441406 C 30.460938 100.453125 30.574219 100.460938 30.664062 100.460938 C 31.496094 100.460938 32.253906 100.238281 32.929688 99.796875 C 33.605469 99.355469 33.945312 98.675781 33.945312 97.765625 C 33.945312 97.035156 33.699219 96.4375 33.203125 95.96875 C 32.707031 95.488281 32.078125 95.246094 31.308594 95.246094 C 30.539062 95.246094 29.894531 95.488281 29.375 95.96875 C 28.867188 96.449219 28.542969 97.179688 28.398438 98.15625 L 26.425781 97.804688 C 26.660156 96.476562 27.207031 95.449219 28.066406 94.71875 C 28.925781 93.988281 29.992188 93.625 31.269531 93.625 C 32.140625 93.625 32.949219 93.8125 33.691406 94.191406 C 34.433594 94.570312 35 95.082031 35.390625 95.734375 C 35.78125 96.386719 35.976562 97.074219 35.976562 97.804688 C 35.976562 98.507812 35.789062 99.144531 35.410156 99.71875 C 35.046875 100.277344 34.492188 100.726562 33.75 101.066406 C 34.699219 101.289062 35.4375 101.75 35.957031 102.453125 C 36.492188 103.144531 36.757812 104.003906 36.757812 105.03125 C 36.757812 106.4375 36.242188 107.636719 35.214844 108.625 C 34.199219 109.601562 32.910156 110.089844 31.347656 110.089844 C 29.929688 110.089844 28.75 109.667969 27.8125 108.820312 C 26.886719 107.972656 26.355469 106.878906 26.210938 105.539062 Z M 26.210938 105.539062 "/>
<path style=" stroke:none;fill-rule:nonzero;fill:rgb(0%,0%,0%);fill-opacity:1;" d="M 55.488281 95.898438 L 58.339844 96.621094 C 57.738281 98.953125 56.664062 100.738281 55.117188 101.972656 C 53.5625 103.199219 51.667969 103.808594 49.433594 103.808594 C 47.128906 103.808594 45.242188 103.339844 43.789062 102.402344 C 42.34375 101.453125 41.238281 100.085938 40.488281 98.300781 C 39.730469 96.503906 39.355469 94.585938 39.355469 92.539062 C 39.355469 90.304688 39.773438 88.351562 40.625 86.679688 C 41.484375 85.015625 42.699219 83.75 44.277344 82.890625 C 45.847656 82.03125 47.585938 81.601562 49.492188 81.601562 C 51.640625 81.601562 53.441406 82.148438 54.902344 83.242188 C 56.371094 84.335938 57.390625 85.875 57.96875 87.851562 L 55.175781 88.515625 C 54.667969 86.953125 53.933594 85.816406 52.988281 85.097656 C 52.050781 84.382812 50.863281 84.023438 49.433594 84.023438 C 47.777344 84.023438 46.394531 84.421875 45.292969 85.214844 C 44.183594 86.011719 43.402344 87.070312 42.949219 88.398438 C 42.503906 89.726562 42.285156 91.101562 42.285156 92.519531 C 42.285156 94.34375 42.542969 95.9375 43.066406 97.304688 C 43.597656 98.671875 44.421875 99.695312 45.546875 100.371094 C 46.679688 101.035156 47.894531 101.367188 49.199219 101.367188 C 50.800781 101.367188 52.148438 100.914062 53.242188 100 C 54.34375 99.078125 55.097656 97.710938 55.488281 95.898438 Z M 55.488281 95.898438 "/>
<path style=" stroke:none;fill-rule:nonzero;fill:rgb(0%,0%,0%);fill-opacity:1;" d="M 90.625 67.0625 L 91.6875 67.6875 L 91.6875 68.9375 L 60.8125 86.75 L 59.75 84.9375 L 90.625 67.0625 Z M 90.625 67.0625 "/>
<path style=" stroke:none;fill-rule:nonzero;fill:rgb(0%,0%,0%);fill-opacity:1;" d="M 134.6875 91.25 L 134.6875 93.75 L 91.6875 68.9375 L 91.6875 67.6875 L 92.75 67.0625 L 134.6875 91.25 Z M 134.6875 91.25 "/>
<path style=" stroke:none;fill-rule:nonzero;fill:rgb(0%,0%,0%);fill-opacity:1;" d="M 184.261719 71.085938 L 187.113281 71.808594 C 186.511719 74.140625 185.4375 75.925781 183.890625 77.160156 C 182.335938 78.386719 180.445312 78.996094 178.207031 78.996094 C 175.902344 78.996094 174.015625 78.527344 172.5625 77.589844 C 171.117188 76.640625 170.015625 75.273438 169.261719 73.488281 C 168.503906 71.691406 168.128906 69.773438 168.128906 67.726562 C 168.128906 65.492188 168.546875 63.539062 169.398438 61.867188 C 170.257812 60.203125 171.472656 58.9375 173.050781 58.078125 C 174.625 57.21875 176.359375 56.789062 178.265625 56.789062 C 180.414062 56.789062 182.214844 57.335938 183.675781 58.429688 C 185.144531 59.523438 186.164062 61.0625 186.742188 63.039062 L 183.949219 63.703125 C 183.441406 62.140625 182.710938 61.003906 181.761719 60.285156 C 180.824219 59.570312 179.636719 59.210938 178.207031 59.210938 C 176.550781 59.210938 175.171875 59.609375 174.066406 60.402344 C 172.957031 61.199219 172.175781 62.257812 171.722656 63.585938 C 171.277344 64.914062 171.058594 66.289062 171.058594 67.707031 C 171.058594 69.53125 171.316406 71.125 171.839844 72.492188 C 172.371094 73.859375 173.195312 74.882812 174.320312 75.558594 C 175.453125 76.222656 176.667969 76.554688 177.972656 76.554688 C 179.574219 76.554688 180.921875 76.101562 182.015625 75.1875 C 183.117188 74.265625 183.871094 72.898438 184.261719 71.085938 Z M 184.261719 71.085938 "/>
<path style=" stroke:none;fill-rule:nonzero;fill:rgb(0%,0%,0%);fill-opacity:1;" d="M 190.203125 78.625 L 190.203125 57.140625 L 192.839844 57.140625 L 192.839844 78.625 L 190.203125 78.625 Z M 190.203125 78.625 "/>
<path style=" stroke:none;fill-rule:nonzero;fill:rgb(0%,0%,0%);fill-opacity:1;" d="M 165.75 73.3125 L 166.8125 75.1875 L 134.6875 93.75 L 134.6875 91.25 L 165.75 73.3125 Z M 165.75 73.3125 "/>
<path style=" stroke:none;fill-rule:nonzero;fill:rgb(0%,0%,0%);fill-opacity:1;" d="M 98.324219 21.460938 L 101.175781 22.183594 C 100.574219 24.515625 99.5 26.300781 97.953125 27.535156 C 96.398438 28.761719 94.507812 29.371094 92.269531 29.371094 C 89.964844 29.371094 88.078125 28.902344 86.625 27.964844 C 85.179688 27.015625 84.078125 25.648438 83.324219 23.863281 C 82.566406 22.066406 82.191406 20.148438 82.191406 18.101562 C 82.191406 15.867188 82.609375 13.914062 83.460938 12.242188 C 84.320312 10.578125 85.535156 9.3125 87.113281 8.453125 C 88.6875 7.59375 90.421875 7.164062 92.328125 7.164062 C 94.476562 7.164062 96.277344 7.710938 97.738281 8.804688 C 99.207031 9.898438 100.226562 11.4375 100.804688 13.414062 L 98.011719 14.078125 C 97.503906 12.515625 96.773438 11.378906 95.824219 10.660156 C 94.886719 9.945312 93.699219 9.585938 92.269531 9.585938 C 90.613281 9.585938 89.234375 9.984375 88.128906 10.777344 C 87.019531 11.574219 86.238281 12.632812 85.785156 13.960938 C 85.339844 15.289062 85.121094 16.664062 85.121094 18.082031 C 85.121094 19.90625 85.378906 21.5 85.902344 22.867188 C 86.433594 24.234375 87.257812 25.257812 88.382812 25.933594 C 89.515625 26.597656 90.730469 26.929688 92.035156 26.929688 C 93.636719 26.929688 94.984375 26.476562 96.078125 25.5625 C 97.179688 24.640625 97.933594 23.273438 98.324219 21.460938 Z M 98.324219 21.460938 "/>
<path style=" stroke:none;fill-rule:nonzero;fill:rgb(0%,0%,0%);fill-opacity:1;" d="M 104.753906 29 L 104.753906 7.515625 L 107.605469 7.515625 L 107.605469 16.34375 L 118.757812 16.34375 L 118.757812 7.515625 L 121.609375 7.515625 L 121.609375 29 L 118.757812 29 L 118.757812 18.882812 L 107.605469 18.882812 L 107.605469 29 L 104.753906 29 Z M 104.753906 29 "/>
<path style=" stroke:none;fill-rule:nonzero;fill:rgb(0%,0%,0%);fill-opacity:1;" d="M 125.019531 31.097656 L 127.011719 30.84375 C 127.230469 31.96875 127.617188 32.773438 128.164062 33.265625 C 128.710938 33.765625 129.375 34.007812 130.15625 34.007812 C 131.09375 34.007812 131.878906 33.691406 132.519531 33.050781 C 133.152344 32.402344 133.476562 31.601562 133.476562 30.648438 C 133.476562 29.742188 133.171875 28.988281 132.578125 28.402344 C 131.992188 27.808594 131.238281 27.503906 130.332031 27.503906 C 129.949219 27.503906 129.480469 27.582031 128.925781 27.738281 L 129.140625 26 C 129.265625 26.015625 129.378906 26.019531 129.472656 26.019531 C 130.300781 26.019531 131.058594 25.800781 131.738281 25.355469 C 132.410156 24.917969 132.753906 24.238281 132.753906 23.324219 C 132.753906 22.597656 132.503906 21.996094 132.011719 21.527344 C 131.511719 21.050781 130.882812 20.804688 130.117188 20.804688 C 129.34375 20.804688 128.699219 21.050781 128.183594 21.527344 C 127.675781 22.011719 127.347656 22.738281 127.207031 23.714844 L 125.234375 23.363281 C 125.46875 22.035156 126.015625 21.011719 126.875 20.277344 C 127.734375 19.550781 128.796875 19.183594 130.078125 19.183594 C 130.945312 19.183594 131.757812 19.375 132.5 19.75 C 133.242188 20.132812 133.808594 20.644531 134.199219 21.292969 C 134.589844 21.949219 134.785156 22.636719 134.785156 23.363281 C 134.785156 24.066406 134.59375 24.707031 134.21875 25.277344 C 133.851562 25.839844 133.300781 26.289062 132.558594 26.625 C 133.503906 26.851562 134.242188 27.308594 134.765625 28.011719 C 135.296875 28.707031 135.566406 29.566406 135.566406 30.589844 C 135.566406 31.996094 135.046875 33.199219 134.023438 34.183594 C 133.007812 35.160156 131.71875 35.648438 130.15625 35.648438 C 128.734375 35.648438 127.558594 35.230469 126.621094 34.378906 C 125.691406 33.535156 125.160156 32.441406 125.019531 31.097656 Z M 125.019531 31.097656 "/>
<path style=" stroke:none;fill-rule:nonzero;fill:rgb(0%,0%,0%);fill-opacity:1;" d="M 90.625 32.25 L 92.75 32.25 L 92.75 67.0625 L 91.6875 67.6875 L 90.625 67.0625 L 90.625 32.25 Z M 90.625 32.25 "/>
</g>
</g>
</svg>