<?xml version="1.0" encoding="UTF-8" standalone="no"?>
<!-- Created with Inkscape (http://www.inkscape.org/) -->
<svg xmlns:svg="http://www.w3.org/2000/svg" xmlns="http://www.w3.org/2000/svg" version="1.0" width="620" height="542.02002" id="svg2">
  <defs id="defs4"/>
  <g transform="translate(-658.62703,-166.21013)" id="layer1">
    <path d="M 671.14081,692.71389 C 669.75822,689.6795 668.62704,686.90566 668.62704,686.54981 C 668.62704,686.19397 734.40485,647.98173 814.79994,601.6337 L 960.97285,517.36454 L 961.00932,346.78693 L 961.04581,176.20931 L 968.62704,176.20931 L 976.20827,176.20931 L 976.26049,346.78693 L 976.31273,517.36454 L 1122.4699,601.61492 C 1202.8563,647.95262 1268.627,686.16488 1268.627,686.53103 C 1268.627,688.74499 1263.3454,698.23097 1262.1128,698.23097 C 1261.2951,698.23097 1195.4136,660.56115 1115.7096,614.52027 C 1036.0055,568.47939 969.81838,530.80623 968.62704,530.80216 C 967.4357,530.79807 901.28716,568.46789 821.63027,614.51286 C 741.97336,660.55781 676.09191,698.23097 675.22704,698.23097 C 674.36217,698.23097 672.52337,695.74829 671.14081,692.71389 z" id="path2525" style="fill:#000000"/>
  </g>
</svg>