<?xml version="1.0" encoding="UTF-8"?>
<svg width="349pt" xmlns:xlink="http://www.w3.org/1999/xlink" xmlns="http://www.w3.org/2000/svg" height="180pt" viewBox="0 0 349 180">
 <g transform="translate(7, 55.8747)" style="fill:#161413; fill-rule:evenodd; stroke:none; stroke-width:0.010015; stroke-linecap:butt; stroke-linejoin:miter; stroke-dasharray:none;">
  <path d="M9.565 7.98193 C9.565 7.98193 9.565 14.6576 9.565 14.6576 C9.565 14.6576 11.4659 14.6576 11.4659 14.6576 C11.4659 14.6576 11.4659 0 11.4659 0 C11.4659 0 9.565 0 9.565 0 C9.565 0 9.565 6.33306 9.565 6.33306 C9.565 6.33306 1.90095 6.33306 1.90095 6.33306 C1.90095 6.33306 1.90095 0 1.90095 0 C1.90095 0 0 0 0 0 C0 0 0 14.6576 0 14.6576 C0 14.6576 1.92103 14.6576 1.92103 14.6576 C1.92103 14.6576 1.92103 7.98193 1.92103 7.98193 C1.92103 7.98193 9.565 7.98193 9.565 7.98193 Z"/>
 </g>
 <g transform="translate(20.4894, 63.6958)" style="fill:#161413; fill-rule:evenodd; stroke:none; stroke-width:0.010015; stroke-linecap:butt; stroke-linejoin:miter; stroke-dasharray:none;">
  <path d="M2.89684 5.79085 C2.89684 5.79085 3.06524 5.79085 3.06524 5.79085 C3.06524 5.79085 3.63256 5.77582 3.63256 5.77582 C5.11928 5.77582 5.88655 6.43936 5.88655 7.72124 C5.88655 9.06325 5.04267 9.86229 3.63256 9.86229 C2.16112 9.86229 1.44078 9.13862 1.34889 7.58477 C1.34889 7.58477 0 7.58477 0 7.58477 C0.0612284 8.44491 0.21425 9.00215 0.474545 9.48489 C1.02648 10.5108 2.09989 11.0388 3.58661 11.0388 C5.82434 11.0388 7.2661 9.72679 7.2661 7.70524 C7.2661 6.34809 6.72934 5.59415 5.42631 5.15748 C6.4376 4.76504 6.94369 4.0112 6.94369 2.9401 C6.94369 1.10021 5.70188 0 3.63256 0 C1.44078 0 0.275479 1.17644 0.229631 3.4531 C0.229631 3.4531 1.57852 3.4531 1.57852 3.4531 C1.5938 2.80459 1.65503 2.44319 1.82343 2.11099 C2.13055 1.52272 2.80504 1.16131 3.64784 1.16131 C4.84371 1.16131 5.56414 1.85502 5.56414 2.9853 C5.56414 3.73914 5.28857 4.19191 4.69068 4.43371 C4.32233 4.58434 3.84681 4.64458 2.89684 4.65961 C2.89684 4.65961 2.89684 5.79085 2.89684 5.79085 Z"/>
 </g>
 <g transform="translate(29.5512, 55.6328)" style="fill:#161413; fill-rule:evenodd; stroke:none; stroke-width:0.010015; stroke-linecap:butt; stroke-linejoin:miter; stroke-dasharray:none;">
  <path d="M12.5499 4.78586 C11.9568 1.56898 10.0768 0 6.80683 0 C4.80354 0 3.18868 0.624025 2.08559 1.83063 C0.736602 3.27808 0 5.36931 0 7.74109 C0 10.1542 0.756685 12.2257 2.1669 13.6525 C3.31113 14.8195 4.78346 15.3616 6.72454 15.3616 C10.3629 15.3616 12.4063 13.4313 12.856 9.55091 C12.856 9.55091 10.8939 9.55091 10.8939 9.55091 C10.7303 10.5561 10.5265 11.2403 10.2194 11.8228 C9.6061 13.0294 8.3395 13.7136 6.74561 13.7136 C3.78176 13.7136 1.90092 11.3805 1.90092 7.72133 C1.90092 3.96138 3.69947 1.64897 6.582 1.64897 C7.78747 1.64897 8.91162 2.01134 9.52479 2.57407 C10.0768 3.07666 10.383 3.69972 10.6078 4.78586 C10.6078 4.78586 12.5499 4.78586 12.5499 4.78586 Z"/>
 </g>
 <g transform="translate(74.6153, 55.6328)" style="fill:#161413; fill-rule:evenodd; stroke:none; stroke-width:0.010015; stroke-linecap:butt; stroke-linejoin:miter; stroke-dasharray:none;">
  <path d="M12.5499 4.78586 C11.9568 1.56898 10.0768 0 6.80683 0 C4.80354 0 3.18868 0.624025 2.08559 1.83063 C0.736602 3.27808 0 5.36931 0 7.74109 C0 10.1542 0.756685 12.2257 2.1669 13.6525 C3.31113 14.8195 4.78346 15.3616 6.72454 15.3616 C10.3629 15.3616 12.4063 13.4313 12.856 9.55091 C12.856 9.55091 10.8939 9.55091 10.8939 9.55091 C10.7303 10.5561 10.5265 11.2403 10.2194 11.8228 C9.6061 13.0294 8.3395 13.7136 6.74561 13.7136 C3.78176 13.7136 1.90092 11.3805 1.90092 7.72133 C1.90092 3.96138 3.69947 1.64897 6.582 1.64897 C7.78747 1.64897 8.91162 2.01134 9.52479 2.57407 C10.0768 3.07666 10.383 3.69972 10.6078 4.78586 C10.6078 4.78586 12.5499 4.78586 12.5499 4.78586 Z"/>
 </g>
 <g transform="translate(90.0257, 55.8747)" style="fill:#161413; fill-rule:evenodd; stroke:none; stroke-width:0.010015; stroke-linecap:butt; stroke-linejoin:miter; stroke-dasharray:none;">
  <path d="M9.56505 7.98193 C9.56505 7.98193 9.56505 14.6576 9.56505 14.6576 C9.56505 14.6576 11.4665 14.6576 11.4665 14.6576 C11.4665 14.6576 11.4665 0 11.4665 0 C11.4665 0 9.56505 0 9.56505 0 C9.56505 0 9.56505 6.33306 9.56505 6.33306 C9.56505 6.33306 1.90102 6.33306 1.90102 6.33306 C1.90102 6.33306 1.90102 0 1.90102 0 C1.90102 0 0 0 0 0 C0 0 0 14.6576 0 14.6576 C0 14.6576 1.9211 14.6576 1.9211 14.6576 C1.9211 14.6576 1.9211 7.98193 1.9211 7.98193 C1.9211 7.98193 9.56505 7.98193 9.56505 7.98193 Z"/>
 </g>
 <g transform="translate(103.79, 63.6958)" style="fill:#161413; fill-rule:evenodd; stroke:none; stroke-width:0.010015; stroke-linecap:butt; stroke-linejoin:miter; stroke-dasharray:none;">
  <path d="M7.23573 9.37955 C7.23573 9.37955 1.51748 9.37955 1.51748 9.37955 C1.65562 8.50515 2.14642 7.94704 3.47973 7.17817 C3.47973 7.17817 5.01191 6.36313 5.01191 6.36313 C6.53038 5.54905 7.31214 4.44884 7.31214 3.1368 C7.31214 2.24649 6.94379 1.41738 6.30016 0.844144 C5.65652 0.271005 4.85909 0 3.83241 0 C2.45208 0 1.4254 0.48274 0.827808 1.38721 C0.443783 1.96035 0.275283 2.62389 0.244914 3.70907 C0.244914 3.70907 1.5939 3.70907 1.5939 3.70907 C1.63994 2.9853 1.73203 2.54862 1.9162 2.20129 C2.26888 1.55288 2.97325 1.16131 3.78538 1.16131 C5.01191 1.16131 5.93279 2.02059 5.93279 3.16696 C5.93279 4.0112 5.42631 4.73488 4.46037 5.27795 C4.46037 5.27795 3.05064 6.06196 3.05064 6.06196 C0.781764 7.3287 0.122457 8.33861 0 10.6915 C0 10.6915 7.23573 10.6915 7.23573 10.6915 C7.23573 10.6915 7.23573 9.37955 7.23573 9.37955 Z"/>
 </g>
 <g transform="translate(46.4981, 61.6177)" style="fill:#161413; fill-rule:nonzero; stroke:none; stroke-width:2.04075; stroke-linecap:butt; stroke-linejoin:miter; stroke-dasharray:none;">
  <path d="M24.0015 0 C24.0015 0 24.0015 2.02348 24.0015 2.02348 C24.0015 2.02348 0 2.02348 0 2.02348 C0 2.02348 0 0 0 0 C0 0 24.0015 0 24.0015 0 Z"/>
 </g>
 <g transform="translate(135.109, 55.6328)" style="fill:#161413; fill-rule:evenodd; stroke:none; stroke-width:2.04075; stroke-linecap:butt; stroke-linejoin:miter; stroke-dasharray:none;">
  <path d="M12.5504 4.78586 C11.9567 1.56898 10.0767 0 6.80664 0 C4.80325 0 3.18878 0.624025 2.08568 1.83063 C0.7367 3.27808 0 5.36931 0 7.74109 C0 10.1542 0.756293 12.2257 2.167 13.6525 C3.31123 14.8195 4.78365 15.3616 6.72435 15.3616 C10.3628 15.3616 12.4063 13.4313 12.856 9.55091 C12.856 9.55091 10.8938 9.55091 10.8938 9.55091 C10.7302 10.5561 10.5264 11.2403 10.2198 11.8228 C9.60649 13.0294 8.3398 13.7136 6.7459 13.7136 C3.78147 13.7136 1.90053 11.3805 1.90053 7.72133 C1.90053 3.96138 3.69918 1.64897 6.5823 1.64897 C7.78727 1.64897 8.91192 2.01134 9.52518 2.57407 C10.0767 3.07666 10.3834 3.69972 10.6077 4.78586 C10.6077 4.78586 12.5504 4.78586 12.5504 4.78586 Z"/>
 </g>
 <g transform="translate(150.519, 55.8747)" style="fill:#161413; fill-rule:evenodd; stroke:none; stroke-width:2.04075; stroke-linecap:butt; stroke-linejoin:miter; stroke-dasharray:none;">
  <path d="M9.56535 7.98193 C9.56535 7.98193 9.56535 14.6576 9.56535 14.6576 C9.56535 14.6576 11.4669 14.6576 11.4669 14.6576 C11.4669 14.6576 11.4669 0 11.4669 0 C11.4669 0 9.56535 0 9.56535 0 C9.56535 0 9.56535 6.33306 9.56535 6.33306 C9.56535 6.33306 1.90151 6.33306 1.90151 6.33306 C1.90151 6.33306 1.90151 0 1.90151 0 C1.90151 0 0 0 0 0 C0 0 0 14.6576 0 14.6576 C0 14.6576 1.9211 14.6576 1.9211 14.6576 C1.9211 14.6576 1.9211 7.98193 1.9211 7.98193 C1.9211 7.98193 9.56535 7.98193 9.56535 7.98193 Z"/>
 </g>
 <g transform="translate(114.78, 61.6177)" style="fill:#161413; fill-rule:nonzero; stroke:none; stroke-width:2.04075; stroke-linecap:butt; stroke-linejoin:miter; stroke-dasharray:none;">
  <path d="M16.1643 0 C16.1643 0 16.1643 2.02348 16.1643 2.02348 C16.1643 2.02348 0 2.02348 0 2.02348 C0 2.02348 0 0 0 0 C0 0 16.1643 0 16.1643 0 Z"/>
 </g>
 <g transform="translate(135.109, 105.266)" style="fill:#161413; fill-rule:evenodd; stroke:none; stroke-width:2.04075; stroke-linecap:butt; stroke-linejoin:miter; stroke-dasharray:none;">
  <path d="M12.5504 4.78596 C11.9567 1.56898 10.0767 0 6.80664 0 C4.80325 0 3.18878 0.624507 2.08568 1.83015 C0.7367 3.2777 0 5.36902 0 7.7408 C0 10.154 0.756293 12.2261 2.167 13.6524 C3.31123 14.8195 4.78365 15.3611 6.72435 15.3611 C10.3628 15.3611 12.4063 13.4317 12.856 9.55071 C12.856 9.55071 10.8938 9.55071 10.8938 9.55071 C10.7302 10.5559 10.5264 11.2402 10.2198 11.8232 C9.60649 13.0298 8.3398 13.7141 6.7459 13.7141 C3.78147 13.7141 1.90053 11.3809 1.90053 7.72153 C1.90053 3.96099 3.69918 1.64897 6.5823 1.64897 C7.78727 1.64897 8.91192 2.01134 9.52518 2.57416 C10.0767 3.07627 10.3834 3.69982 10.6077 4.78596 C10.6077 4.78596 12.5504 4.78596 12.5504 4.78596 Z"/>
 </g>
 <g transform="translate(150.519, 105.508)" style="fill:#161413; fill-rule:evenodd; stroke:none; stroke-width:2.04075; stroke-linecap:butt; stroke-linejoin:miter; stroke-dasharray:none;">
  <path d="M9.56535 7.98174 C9.56535 7.98174 9.56535 14.6576 9.56535 14.6576 C9.56535 14.6576 11.4669 14.6576 11.4669 14.6576 C11.4669 14.6576 11.4669 0 11.4669 0 C11.4669 0 9.56535 0 9.56535 0 C9.56535 0 9.56535 6.33277 9.56535 6.33277 C9.56535 6.33277 1.90151 6.33277 1.90151 6.33277 C1.90151 6.33277 1.90151 0 1.90151 0 C1.90151 0 0 0 0 0 C0 0 0 14.6576 0 14.6576 C0 14.6576 1.9211 14.6576 1.9211 14.6576 C1.9211 14.6576 1.9211 7.98174 1.9211 7.98174 C1.9211 7.98174 9.56535 7.98174 9.56535 7.98174 Z"/>
 </g>
 <g transform="translate(164.009, 113.328)" style="fill:#161413; fill-rule:evenodd; stroke:none; stroke-width:2.04075; stroke-linecap:butt; stroke-linejoin:miter; stroke-dasharray:none;">
  <path d="M2.89684 5.79114 C2.89684 5.79114 3.06534 5.79114 3.06534 5.79114 C3.06534 5.79114 3.63256 5.77572 3.63256 5.77572 C5.11967 5.77572 5.88674 6.43974 5.88674 7.72153 C5.88674 9.06402 5.04228 9.86297 3.63256 9.86297 C2.16112 9.86297 1.44107 9.13919 1.34898 7.58467 C1.34898 7.58467 0 7.58467 0 7.58467 C0.0607386 8.4453 0.214544 9.00234 0.474153 9.48518 C1.02668 10.5116 2.10038 11.0387 3.58651 11.0387 C5.82405 11.0387 7.2661 9.72708 7.2661 7.70514 C7.2661 6.34819 6.72925 5.59454 5.42631 5.15796 C6.43731 4.76572 6.94379 4.01111 6.94379 2.94039 C6.94379 1.1006 5.70159 0 3.63256 0 C1.44107 0 0.275283 1.17673 0.229239 3.4531 C0.229239 3.4531 1.57822 3.4531 1.57822 3.4531 C1.5939 2.8045 1.65464 2.44309 1.82314 2.11157 C2.13075 1.52272 2.80475 1.16131 3.64823 1.16131 C4.84341 1.16131 5.56444 1.85521 5.56444 2.98568 C5.56444 3.73933 5.28817 4.19229 4.69059 4.43419 C4.32224 4.58454 3.8471 4.64525 2.89684 4.65971 C2.89684 4.65971 2.89684 5.79114 2.89684 5.79114 Z"/>
 </g>
 <g transform="translate(140.349, 74.7722)" style="fill:#161413; fill-rule:nonzero; stroke:none; stroke-width:2.04075; stroke-linecap:butt; stroke-linejoin:miter; stroke-dasharray:none;">
  <path d="M2.05629 26.8409 C2.05629 26.8409 0 26.8409 0 26.8409 C0 26.8409 0 0 0 0 C0 0 2.05629 0 2.05629 0 C2.05629 0 2.05629 26.8409 2.05629 26.8409 Z"/>
 </g>
 <g transform="translate(191.684, 55.6328)" style="fill:#161413; fill-rule:evenodd; stroke:none; stroke-width:2.04075; stroke-linecap:butt; stroke-linejoin:miter; stroke-dasharray:none;">
  <path d="M12.5504 4.78586 C11.9567 1.56898 10.0767 0 6.80664 0 C4.80325 0 3.18878 0.624025 2.08568 1.83063 C0.7367 3.27808 0 5.36931 0 7.74109 C0 10.1542 0.756293 12.2257 2.167 13.6525 C3.31123 14.8195 4.78365 15.3616 6.72435 15.3616 C10.3628 15.3616 12.4063 13.4313 12.856 9.55091 C12.856 9.55091 10.8938 9.55091 10.8938 9.55091 C10.7302 10.5561 10.5264 11.2403 10.2198 11.8228 C9.60649 13.0294 8.3398 13.7136 6.7459 13.7136 C3.78147 13.7136 1.90053 11.3805 1.90053 7.72133 C1.90053 3.96138 3.69918 1.64897 6.5823 1.64897 C7.78727 1.64897 8.91192 2.01134 9.52518 2.57407 C10.0767 3.07666 10.3834 3.69972 10.6077 4.78586 C10.6077 4.78586 12.5504 4.78586 12.5504 4.78586 Z"/>
 </g>
 <g transform="translate(207.094, 55.8747)" style="fill:#161413; fill-rule:evenodd; stroke:none; stroke-width:2.04075; stroke-linecap:butt; stroke-linejoin:miter; stroke-dasharray:none;">
  <path d="M9.56535 7.98193 C9.56535 7.98193 9.56535 14.6576 9.56535 14.6576 C9.56535 14.6576 11.4669 14.6576 11.4669 14.6576 C11.4669 14.6576 11.4669 0 11.4669 0 C11.4669 0 9.56535 0 9.56535 0 C9.56535 0 9.56535 6.33306 9.56535 6.33306 C9.56535 6.33306 1.90151 6.33306 1.90151 6.33306 C1.90151 6.33306 1.90151 0 1.90151 0 C1.90151 0 0 0 0 0 C0 0 0 14.6576 0 14.6576 C0 14.6576 1.9211 14.6576 1.9211 14.6576 C1.9211 14.6576 1.9211 7.98193 1.9211 7.98193 C1.9211 7.98193 9.56535 7.98193 9.56535 7.98193 Z"/>
 </g>
 <g transform="translate(165.917, 61.6177)" style="fill:#161413; fill-rule:nonzero; stroke:none; stroke-width:2.04075; stroke-linecap:butt; stroke-linejoin:miter; stroke-dasharray:none;">
  <path d="M21.6024 0 C21.6024 0 21.6024 2.02348 21.6024 2.02348 C21.6024 2.02348 0 2.02348 0 2.02348 C0 2.02348 0 0 0 0 C0 0 21.6024 0 21.6024 0 Z"/>
 </g>
 <g transform="translate(191.684, 105.266)" style="fill:#161413; fill-rule:evenodd; stroke:none; stroke-width:2.04075; stroke-linecap:butt; stroke-linejoin:miter; stroke-dasharray:none;">
  <path d="M12.5504 4.78596 C11.9567 1.56898 10.0767 0 6.80664 0 C4.80325 0 3.18878 0.624507 2.08568 1.83015 C0.7367 3.2777 0 5.36902 0 7.7408 C0 10.154 0.756293 12.2261 2.167 13.6524 C3.31123 14.8195 4.78365 15.3611 6.72435 15.3611 C10.3628 15.3611 12.4063 13.4317 12.856 9.55071 C12.856 9.55071 10.8938 9.55071 10.8938 9.55071 C10.7302 10.5559 10.5264 11.2402 10.2198 11.8232 C9.60649 13.0298 8.3398 13.7141 6.7459 13.7141 C3.78147 13.7141 1.90053 11.3809 1.90053 7.72153 C1.90053 3.96099 3.69918 1.64897 6.5823 1.64897 C7.78727 1.64897 8.91192 2.01134 9.52518 2.57416 C10.0767 3.07627 10.3834 3.69982 10.6077 4.78596 C10.6077 4.78596 12.5504 4.78596 12.5504 4.78596 Z"/>
 </g>
 <g transform="translate(207.094, 105.508)" style="fill:#161413; fill-rule:evenodd; stroke:none; stroke-width:2.04075; stroke-linecap:butt; stroke-linejoin:miter; stroke-dasharray:none;">
  <path d="M9.56535 7.98174 C9.56535 7.98174 9.56535 14.6576 9.56535 14.6576 C9.56535 14.6576 11.4669 14.6576 11.4669 14.6576 C11.4669 14.6576 11.4669 0 11.4669 0 C11.4669 0 9.56535 0 9.56535 0 C9.56535 0 9.56535 6.33277 9.56535 6.33277 C9.56535 6.33277 1.90151 6.33277 1.90151 6.33277 C1.90151 6.33277 1.90151 0 1.90151 0 C1.90151 0 0 0 0 0 C0 0 0 14.6576 0 14.6576 C0 14.6576 1.9211 14.6576 1.9211 14.6576 C1.9211 14.6576 1.9211 7.98174 1.9211 7.98174 C1.9211 7.98174 9.56535 7.98174 9.56535 7.98174 Z"/>
 </g>
 <g transform="translate(220.614, 113.328)" style="fill:#161413; fill-rule:evenodd; stroke:none; stroke-width:2.04075; stroke-linecap:butt; stroke-linejoin:miter; stroke-dasharray:none;">
  <path d="M7.23573 9.38013 C7.23573 9.38013 1.51748 9.38013 1.51748 9.38013 C1.65562 8.50505 2.14642 7.94704 3.47973 7.17797 C3.47973 7.17797 5.01191 6.36361 5.01191 6.36361 C6.53038 5.54924 7.31214 4.44865 7.31214 3.13699 C7.31214 2.24649 6.94379 1.41767 6.30016 0.844241 C5.65652 0.271776 4.85909 0 3.83241 0 C2.45208 0 1.4254 0.482836 0.827808 1.38779 C0.443783 1.96026 0.275283 2.62428 0.244914 3.70945 C0.244914 3.70945 1.5939 3.70945 1.5939 3.70945 C1.63994 2.98568 1.73203 2.54911 1.9162 2.20119 C2.26888 1.55356 2.97325 1.16131 3.78538 1.16131 C5.01191 1.16131 5.93279 2.02097 5.93279 3.16687 C5.93279 4.01111 5.42631 4.73488 4.46037 5.27843 C4.46037 5.27843 3.05064 6.06196 3.05064 6.06196 C0.781764 7.32928 0.122457 8.33929 0 10.6918 C0 10.6918 7.23573 10.6918 7.23573 10.6918 C7.23573 10.6918 7.23573 9.38013 7.23573 9.38013 Z"/>
 </g>
 <g transform="translate(196.924, 74.7722)" style="fill:#161413; fill-rule:nonzero; stroke:none; stroke-width:2.04075; stroke-linecap:butt; stroke-linejoin:miter; stroke-dasharray:none;">
  <path d="M2.05629 26.8409 C2.05629 26.8409 0 26.8409 0 26.8409 C0 26.8409 0 0 0 0 C0 0 2.05629 0 2.05629 0 C2.05629 0 2.05629 26.8409 2.05629 26.8409 Z"/>
 </g>
 <g transform="translate(191.684, 155.14)" style="fill:#161413; fill-rule:evenodd; stroke:none; stroke-width:2.04075; stroke-linecap:butt; stroke-linejoin:miter; stroke-dasharray:none;">
  <path d="M12.5504 4.78596 C11.9567 1.56898 10.0767 0 6.80664 0 C4.80325 0 3.18878 0.624507 2.08568 1.83015 C0.7367 3.2777 0 5.36902 0 7.7408 C0 10.154 0.756293 12.2261 2.167 13.6524 C3.31123 14.8195 4.78365 15.3611 6.72435 15.3611 C10.3628 15.3611 12.4063 13.4317 12.856 9.55071 C12.856 9.55071 10.8938 9.55071 10.8938 9.55071 C10.7302 10.5559 10.5264 11.2402 10.2198 11.8232 C9.60649 13.0298 8.3398 13.7141 6.7459 13.7141 C3.78147 13.7141 1.90053 11.3809 1.90053 7.72153 C1.90053 3.96099 3.69918 1.64897 6.5823 1.64897 C7.78727 1.64897 8.91192 2.01134 9.52518 2.57416 C10.0767 3.07627 10.3834 3.69982 10.6077 4.78596 C10.6077 4.78596 12.5504 4.78596 12.5504 4.78596 Z"/>
 </g>
 <g transform="translate(207.094, 155.381)" style="fill:#161413; fill-rule:evenodd; stroke:none; stroke-width:2.04075; stroke-linecap:butt; stroke-linejoin:miter; stroke-dasharray:none;">
  <path d="M9.56535 7.98174 C9.56535 7.98174 9.56535 14.6576 9.56535 14.6576 C9.56535 14.6576 11.4669 14.6576 11.4669 14.6576 C11.4669 14.6576 11.4669 0 11.4669 0 C11.4669 0 9.56535 0 9.56535 0 C9.56535 0 9.56535 6.33277 9.56535 6.33277 C9.56535 6.33277 1.90151 6.33277 1.90151 6.33277 C1.90151 6.33277 1.90151 0 1.90151 0 C1.90151 0 0 0 0 0 C0 0 0 14.6576 0 14.6576 C0 14.6576 1.9211 14.6576 1.9211 14.6576 C1.9211 14.6576 1.9211 7.98174 1.9211 7.98174 C1.9211 7.98174 9.56535 7.98174 9.56535 7.98174 Z"/>
 </g>
 <g transform="translate(220.584, 162.961)" style="fill:#161413; fill-rule:evenodd; stroke:none; stroke-width:2.04075; stroke-linecap:butt; stroke-linejoin:miter; stroke-dasharray:none;">
  <path d="M2.89684 5.79114 C2.89684 5.79114 3.06534 5.79114 3.06534 5.79114 C3.06534 5.79114 3.63256 5.77572 3.63256 5.77572 C5.11967 5.77572 5.88674 6.43974 5.88674 7.72153 C5.88674 9.06402 5.04228 9.86297 3.63256 9.86297 C2.16112 9.86297 1.44107 9.13919 1.34898 7.58467 C1.34898 7.58467 0 7.58467 0 7.58467 C0.0607386 8.4453 0.214544 9.00234 0.474153 9.48518 C1.02668 10.5116 2.10038 11.0387 3.58651 11.0387 C5.82405 11.0387 7.2661 9.72708 7.2661 7.70514 C7.2661 6.34819 6.72925 5.59454 5.42631 5.15796 C6.43731 4.76572 6.94379 4.01111 6.94379 2.94039 C6.94379 1.1006 5.70159 0 3.63256 0 C1.44107 0 0.275283 1.17673 0.229239 3.4531 C0.229239 3.4531 1.57822 3.4531 1.57822 3.4531 C1.5939 2.8045 1.65464 2.44309 1.82314 2.11157 C2.13075 1.52272 2.80475 1.16131 3.64823 1.16131 C4.84341 1.16131 5.56444 1.85521 5.56444 2.98568 C5.56444 3.73933 5.28817 4.19229 4.69059 4.43419 C4.32224 4.58454 3.8471 4.64525 2.89684 4.65971 C2.89684 4.65971 2.89684 5.79114 2.89684 5.79114 Z"/>
 </g>
 <g transform="translate(196.924, 124.55)" style="fill:#161413; fill-rule:nonzero; stroke:none; stroke-width:2.04075; stroke-linecap:butt; stroke-linejoin:miter; stroke-dasharray:none;">
  <path d="M2.05629 26.7439 C2.05629 26.7439 0 26.7439 0 26.7439 C0 26.7439 0 0 0 0 C0 0 2.05629 0 2.05629 0 C2.05629 0 2.05629 26.7439 2.05629 26.7439 Z"/>
 </g>
 <g transform="translate(248.259, 55.6328)" style="fill:#161413; fill-rule:evenodd; stroke:none; stroke-width:2.04075; stroke-linecap:butt; stroke-linejoin:miter; stroke-dasharray:none;">
  <path d="M12.5504 4.78586 C11.9567 1.56898 10.0767 0 6.80664 0 C4.80325 0 3.18878 0.624025 2.08568 1.83063 C0.7367 3.27808 0 5.36931 0 7.74109 C0 10.1542 0.756293 12.2257 2.167 13.6525 C3.31123 14.8195 4.78365 15.3616 6.72435 15.3616 C10.3628 15.3616 12.4063 13.4313 12.856 9.55091 C12.856 9.55091 10.8938 9.55091 10.8938 9.55091 C10.7302 10.5561 10.5264 11.2403 10.2198 11.8228 C9.60649 13.0294 8.3398 13.7136 6.7459 13.7136 C3.78147 13.7136 1.90053 11.3805 1.90053 7.72133 C1.90053 3.96138 3.69918 1.64897 6.5823 1.64897 C7.78727 1.64897 8.91192 2.01134 9.52518 2.57407 C10.0767 3.07666 10.3834 3.69972 10.6077 4.78586 C10.6077 4.78586 12.5504 4.78586 12.5504 4.78586 Z"/>
 </g>
 <g transform="translate(263.669, 55.8747)" style="fill:#161413; fill-rule:evenodd; stroke:none; stroke-width:2.04075; stroke-linecap:butt; stroke-linejoin:miter; stroke-dasharray:none;">
  <path d="M9.56535 7.98193 C9.56535 7.98193 9.56535 14.6576 9.56535 14.6576 C9.56535 14.6576 11.4669 14.6576 11.4669 14.6576 C11.4669 14.6576 11.4669 0 11.4669 0 C11.4669 0 9.56535 0 9.56535 0 C9.56535 0 9.56535 6.33306 9.56535 6.33306 C9.56535 6.33306 1.90151 6.33306 1.90151 6.33306 C1.90151 6.33306 1.90151 0 1.90151 0 C1.90151 0 0 0 0 0 C0 0 0 14.6576 0 14.6576 C0 14.6576 1.9211 14.6576 1.9211 14.6576 C1.9211 14.6576 1.9211 7.98193 1.9211 7.98193 C1.9211 7.98193 9.56535 7.98193 9.56535 7.98193 Z"/>
 </g>
 <g transform="translate(222.492, 61.6177)" style="fill:#161413; fill-rule:nonzero; stroke:none; stroke-width:2.04075; stroke-linecap:butt; stroke-linejoin:miter; stroke-dasharray:none;">
  <path d="M21.6513 0 C21.6513 0 21.6513 2.02348 21.6513 2.02348 C21.6513 2.02348 0 2.02348 0 2.02348 C0 2.02348 0 0 0 0 C0 0 21.6513 0 21.6513 0 Z"/>
 </g>
 <g transform="translate(248.259, 6)" style="fill:#161413; fill-rule:evenodd; stroke:none; stroke-width:2.04075; stroke-linecap:butt; stroke-linejoin:miter; stroke-dasharray:none;">
  <path d="M12.5504 4.78578 C11.9567 1.56891 10.0767 0 6.80664 0 C4.80325 0 3.18878 0.623986 2.08568 1.83055 C0.7367 3.27805 0 5.3693 0 7.74105 C0 10.1542 0.756293 12.2256 2.167 13.6525 C3.31123 14.8195 4.78365 15.3616 6.72435 15.3616 C10.3628 15.3616 12.4063 13.4313 12.856 9.55087 C12.856 9.55087 10.8938 9.55087 10.8938 9.55087 C10.7302 10.5561 10.5264 11.2402 10.2198 11.8228 C9.60649 13.0294 8.3398 13.7136 6.7459 13.7136 C3.78147 13.7136 1.90053 11.3804 1.90053 7.72129 C1.90053 3.96133 3.69918 1.64891 6.5823 1.64891 C7.78727 1.64891 8.91192 2.01125 9.52518 2.57407 C10.0767 3.07664 10.3834 3.69969 10.6077 4.78578 C10.6077 4.78578 12.5504 4.78578 12.5504 4.78578 Z"/>
 </g>
 <g transform="translate(263.669, 6.24188)" style="fill:#161413; fill-rule:evenodd; stroke:none; stroke-width:2.04075; stroke-linecap:butt; stroke-linejoin:miter; stroke-dasharray:none;">
  <path d="M9.56535 7.98191 C9.56535 7.98191 9.56535 14.6576 9.56535 14.6576 C9.56535 14.6576 11.4669 14.6576 11.4669 14.6576 C11.4669 14.6576 11.4669 0 11.4669 0 C11.4669 0 9.56535 0 9.56535 0 C9.56535 0 9.56535 6.33304 9.56535 6.33304 C9.56535 6.33304 1.90151 6.33304 1.90151 6.33304 C1.90151 6.33304 1.90151 0 1.90151 0 C1.90151 0 0 0 0 0 C0 0 0 14.6576 0 14.6576 C0 14.6576 1.9211 14.6576 1.9211 14.6576 C1.9211 14.6576 1.9211 7.98191 1.9211 7.98191 C1.9211 7.98191 9.56535 7.98191 9.56535 7.98191 Z"/>
 </g>
 <g transform="translate(277.159, 13.822)" style="fill:#161413; fill-rule:evenodd; stroke:none; stroke-width:2.04075; stroke-linecap:butt; stroke-linejoin:miter; stroke-dasharray:none;">
  <path d="M2.89684 5.79085 C2.89684 5.79085 3.06534 5.79085 3.06534 5.79085 C3.06534 5.79085 3.63256 5.77582 3.63256 5.77582 C5.11967 5.77582 5.88674 6.43936 5.88674 7.72124 C5.88674 9.06325 5.04228 9.86229 3.63256 9.86229 C2.16112 9.86229 1.44107 9.13862 1.34898 7.58477 C1.34898 7.58477 0 7.58477 0 7.58477 C0.0607386 8.44491 0.214544 9.00215 0.474153 9.48489 C1.02668 10.5108 2.10038 11.0388 3.58651 11.0388 C5.82405 11.0388 7.2661 9.72679 7.2661 7.70524 C7.2661 6.34809 6.72925 5.59415 5.42631 5.15748 C6.43731 4.76504 6.94379 4.0112 6.94379 2.9401 C6.94379 1.10021 5.70159 0 3.63256 0 C1.44107 0 0.275283 1.17644 0.229239 3.4531 C0.229239 3.4531 1.57822 3.4531 1.57822 3.4531 C1.5939 2.80459 1.65464 2.44319 1.82314 2.11099 C2.13075 1.52272 2.80475 1.16131 3.64823 1.16131 C4.84341 1.16131 5.56444 1.85502 5.56444 2.9853 C5.56444 3.73914 5.28817 4.19191 4.69059 4.43371 C4.32224 4.58434 3.8471 4.64458 2.89684 4.65961 C2.89684 4.65961 2.89684 5.79085 2.89684 5.79085 Z"/>
 </g>
 <g transform="translate(253.547, 25.1394)" style="fill:#161413; fill-rule:nonzero; stroke:none; stroke-width:2.04075; stroke-linecap:butt; stroke-linejoin:miter; stroke-dasharray:none;">
  <path d="M0 0 C0 0 2.00829 0 2.00829 0 C2.00829 0 2.00829 26.7439 2.00829 26.7439 C2.00829 26.7439 0 26.7439 0 26.7439 C0 26.7439 0 0 0 0 Z"/>
 </g>
 <g transform="translate(304.834, 55.6328)" style="fill:#161413; fill-rule:evenodd; stroke:none; stroke-width:2.04075; stroke-linecap:butt; stroke-linejoin:miter; stroke-dasharray:none;">
  <path d="M12.5504 4.78586 C11.9567 1.56898 10.0767 0 6.80664 0 C4.80325 0 3.18878 0.624025 2.08568 1.83063 C0.7367 3.27808 0 5.36931 0 7.74109 C0 10.1542 0.756293 12.2257 2.167 13.6525 C3.31123 14.8195 4.78365 15.3616 6.72435 15.3616 C10.3628 15.3616 12.4063 13.4313 12.856 9.55091 C12.856 9.55091 10.8938 9.55091 10.8938 9.55091 C10.7302 10.5561 10.5264 11.2403 10.2198 11.8228 C9.60649 13.0294 8.3398 13.7136 6.7459 13.7136 C3.78147 13.7136 1.90053 11.3805 1.90053 7.72133 C1.90053 3.96138 3.69918 1.64897 6.5823 1.64897 C7.78727 1.64897 8.91192 2.01134 9.52518 2.57407 C10.0767 3.07666 10.3834 3.69972 10.6077 4.78586 C10.6077 4.78586 12.5504 4.78586 12.5504 4.78586 Z"/>
 </g>
 <g transform="translate(320.244, 55.8747)" style="fill:#161413; fill-rule:evenodd; stroke:none; stroke-width:2.04075; stroke-linecap:butt; stroke-linejoin:miter; stroke-dasharray:none;">
  <path d="M9.56535 7.98193 C9.56535 7.98193 9.56535 14.6576 9.56535 14.6576 C9.56535 14.6576 11.4669 14.6576 11.4669 14.6576 C11.4669 14.6576 11.4669 0 11.4669 0 C11.4669 0 9.56535 0 9.56535 0 C9.56535 0 9.56535 6.33306 9.56535 6.33306 C9.56535 6.33306 1.90151 6.33306 1.90151 6.33306 C1.90151 6.33306 1.90151 0 1.90151 0 C1.90151 0 0 0 0 0 C0 0 0 14.6576 0 14.6576 C0 14.6576 1.9211 14.6576 1.9211 14.6576 C1.9211 14.6576 1.9211 7.98193 1.9211 7.98193 C1.9211 7.98193 9.56535 7.98193 9.56535 7.98193 Z"/>
 </g>
 <g transform="translate(333.734, 63.6958)" style="fill:#161413; fill-rule:evenodd; stroke:none; stroke-width:2.04075; stroke-linecap:butt; stroke-linejoin:miter; stroke-dasharray:none;">
  <path d="M2.89684 5.79085 C2.89684 5.79085 3.06534 5.79085 3.06534 5.79085 C3.06534 5.79085 3.63256 5.77582 3.63256 5.77582 C5.11967 5.77582 5.88674 6.43936 5.88674 7.72124 C5.88674 9.06325 5.04228 9.86229 3.63256 9.86229 C2.16112 9.86229 1.44107 9.13862 1.34898 7.58477 C1.34898 7.58477 0 7.58477 0 7.58477 C0.0607386 8.44491 0.214544 9.00215 0.474153 9.48489 C1.02668 10.5108 2.10038 11.0388 3.58651 11.0388 C5.82405 11.0388 7.2661 9.72679 7.2661 7.70524 C7.2661 6.34809 6.72925 5.59415 5.42631 5.15748 C6.43731 4.76504 6.94379 4.0112 6.94379 2.9401 C6.94379 1.10021 5.70159 0 3.63256 0 C1.44107 0 0.275283 1.17644 0.229239 3.4531 C0.229239 3.4531 1.57822 3.4531 1.57822 3.4531 C1.5939 2.80459 1.65464 2.44319 1.82314 2.11099 C2.13075 1.52272 2.80475 1.16131 3.64823 1.16131 C4.84341 1.16131 5.56444 1.85502 5.56444 2.9853 C5.56444 3.73914 5.28817 4.19191 4.69059 4.43371 C4.32224 4.58434 3.8471 4.64458 2.89684 4.65961 C2.89684 4.65961 2.89684 5.79085 2.89684 5.79085 Z"/>
 </g>
 <g transform="translate(308.146, 38.6384)" style="fill:#e20010; fill-rule:evenodd; stroke:none; stroke-width:2.04075; stroke-linecap:butt; stroke-linejoin:miter; stroke-dasharray:none;">
  <path d="M2.46089 3.14528 C2.46089 3.14528 2.46089 10.9324 2.46089 10.9324 C2.46089 10.9324 3.84025 10.9324 3.84025 10.9324 C3.84025 10.9324 3.84025 0 3.84025 0 C3.84025 0 2.93113 0 2.93113 0 C2.44522 1.68087 2.13173 1.9114 0 2.17402 C0 2.17402 0 3.14528 0 3.14528 C0 3.14528 2.46089 3.14528 2.46089 3.14528 Z"/>
 </g>
 <g transform="translate(279.117, 61.6177)" style="fill:#161413; fill-rule:nonzero; stroke:none; stroke-width:2.04075; stroke-linecap:butt; stroke-linejoin:miter; stroke-dasharray:none;">
  <path d="M21.6014 0 C21.6014 0 21.6014 2.02348 21.6014 2.02348 C21.6014 2.02348 0 2.02348 0 2.02348 C0 2.02348 0 0 0 0 C0 0 21.6014 0 21.6014 0 Z"/>
 </g>
 <g transform="translate(77.8566, 38.6384)" style="fill:#e20010; fill-rule:evenodd; stroke:none; stroke-width:2.04075; stroke-linecap:butt; stroke-linejoin:miter; stroke-dasharray:none;">
  <path d="M6.91303 0 C6.91303 0 1.17578 0 1.17578 0 C1.17578 0 0.345328 5.9518 0.345328 5.9518 C0.345328 5.9518 1.61486 5.9518 1.61486 5.9518 C2.25781 5.19613 2.79064 4.93447 3.65264 4.93447 C5.14123 4.93447 6.08169 5.93677 6.08169 7.55557 C6.08169 9.12821 5.15749 10.0844 3.65264 10.0844 C2.44532 10.0844 1.70862 9.48306 1.37955 8.24918 C1.37955 8.24918 0 8.24918 0 8.24918 C0.188486 9.14334 0.345328 9.57529 0.674394 9.97621 C1.30108 10.8092 2.42993 11.2873 3.68419 11.2873 C5.92573 11.2873 7.49279 9.68352 7.49279 7.37014 C7.49279 5.21213 6.03477 3.73162 3.90324 3.73162 C3.11971 3.73162 2.49214 3.93208 1.85018 4.3942 C1.85018 4.3942 2.28837 1.34115 2.28837 1.34115 C2.28837 1.34115 6.91303 1.34115 6.91303 1.34115 C6.91303 1.34115 6.91303 0 6.91303 0 Z"/>
 </g>
 <g transform="translate(259.322, 38.6384)" style="fill:#e20010; fill-rule:evenodd; stroke:none; stroke-width:2.04075; stroke-linecap:butt; stroke-linejoin:miter; stroke-dasharray:none;">
  <path d="M7.39835 9.59129 C7.39835 9.59129 1.55177 9.59129 1.55177 9.59129 C1.69284 8.69626 2.19443 8.12591 3.5581 7.34008 C3.5581 7.34008 5.12555 6.50711 5.12555 6.50711 C6.67732 5.67415 7.47672 4.54859 7.47672 3.20744 C7.47672 2.29728 7.10054 1.44938 6.44221 0.863034 C5.78388 0.277559 4.96881 0 3.91862 0 C2.50792 0 1.45773 0.493148 0.846421 1.41825 C0.45456 2.00459 0.28214 2.68316 0.250792 3.79282 C0.250792 3.79282 1.63014 3.79282 1.63014 3.79282 C1.67717 3.05305 1.77122 2.60606 1.95931 2.25121 C2.31982 1.58767 3.04085 1.18676 3.87159 1.18676 C5.12555 1.18676 6.06602 2.06579 6.06602 3.23751 C6.06602 4.10151 5.54876 4.84128 4.56127 5.39659 C4.56127 5.39659 3.11922 6.19842 3.11922 6.19842 C0.799398 7.49341 0.125396 8.52683 0 10.9324 C0 10.9324 7.39835 10.9324 7.39835 10.9324 C7.39835 10.9324 7.39835 9.59129 7.39835 9.59129 Z"/>
 </g>
 <g transform="translate(137.261, 38.6384)" style="fill:#e20010; fill-rule:evenodd; stroke:none; stroke-width:2.04075; stroke-linecap:butt; stroke-linejoin:miter; stroke-dasharray:none;">
  <path d="M4.68667 8.31134 C4.68667 8.31134 4.68667 10.9324 4.68667 10.9324 C4.68667 10.9324 6.06602 10.9324 6.06602 10.9324 C6.06602 10.9324 6.06602 8.31134 6.06602 8.31134 C6.06602 8.31134 7.71184 8.31134 7.71184 8.31134 C7.71184 8.31134 7.71184 7.09249 7.71184 7.09249 C7.71184 7.09249 6.06602 7.09249 6.06602 7.09249 C6.06602 7.09249 6.06602 0 6.06602 0 C6.06602 0 5.04718 0 5.04718 0 C5.04718 0 0 6.877 0 6.877 C0 6.877 0 8.31134 0 8.31134 C0 8.31134 4.68667 8.31134 4.68667 8.31134 Z M4.68667 7.09249 C4.68667 7.09249 1.20693 7.09249 1.20693 7.09249 C1.20693 7.09249 4.68667 2.31241 4.68667 2.31241 C4.68667 2.31241 4.68667 7.09249 4.68667 7.09249 Z"/>
 </g>
 <g transform="translate(193.899, 38.6384)" style="fill:#e20010; fill-rule:evenodd; stroke:none; stroke-width:2.04075; stroke-linecap:butt; stroke-linejoin:miter; stroke-dasharray:none;">
  <path d="M2.96247 5.92077 C2.96247 5.92077 3.13489 5.92077 3.13489 5.92077 C3.13489 5.92077 3.71485 5.90573 3.71485 5.90573 C5.23527 5.90573 6.019 6.58431 6.019 7.89442 C6.019 9.26757 5.1569 10.0844 3.71485 10.0844 C2.2101 10.0844 1.4734 9.3438 1.37935 7.75603 C1.37935 7.75603 0 7.75603 0 7.75603 C0.0626979 8.63506 0.219443 9.2054 0.485909 9.69855 C1.05019 10.747 2.1474 11.2873 3.66783 11.2873 C5.9563 11.2873 7.4297 9.94517 7.4297 7.87929 C7.4297 6.49111 6.88109 5.72031 5.54876 5.27323 C6.58328 4.87231 7.10054 4.10151 7.10054 3.00698 C7.10054 1.12556 5.8309 0 3.71485 0 C1.4734 0 0.28214 1.20275 0.235117 3.53116 C0.235117 3.53116 1.61447 3.53116 1.61447 3.53116 C1.63014 2.86762 1.69284 2.49774 1.86526 2.15898 C2.17875 1.5576 2.86843 1.18676 3.73052 1.18676 C4.95313 1.18676 5.68983 1.89636 5.68983 3.05305 C5.68983 3.82385 5.40769 4.28693 4.79639 4.53355 C4.4202 4.68785 3.93429 4.74905 2.96247 4.76408 C2.96247 4.76408 2.96247 5.92077 2.96247 5.92077 Z"/>
 </g>
 <g transform="translate(32.4289, 38.6384)" style="fill:#e20010; fill-rule:evenodd; stroke:none; stroke-width:2.04075; stroke-linecap:butt; stroke-linejoin:miter; stroke-dasharray:none;">
  <path d="M7.1312 2.85259 C6.86522 1.06349 5.67416 0 3.98083 0 C2.75812 0 1.66081 0.585379 1.00258 1.5576 C0.312804 2.6211 0 3.96225 0 5.9518 C0 7.78706 0.281259 8.95878 0.94037 9.93014 C1.53551 10.8092 2.50743 11.2873 3.73013 11.2873 C5.84638 11.2873 7.36651 9.74472 7.36651 7.60164 C7.36651 5.56592 5.95542 4.13254 3.96545 4.13254 C2.86813 4.13254 2.00614 4.54859 1.41011 5.35042 C1.4255 2.68316 2.30366 1.20275 3.88707 1.20275 C4.85899 1.20275 5.5325 1.80413 5.75165 2.85259 C5.75165 2.85259 7.1312 2.85259 7.1312 2.85259 Z M3.79234 5.33539 C5.12496 5.33539 5.95542 6.24449 5.95542 7.70996 C5.95542 9.08214 5.01495 10.0844 3.74541 10.0844 C2.4606 10.0844 1.48858 9.03598 1.48858 7.63276 C1.48858 6.27562 2.42905 5.33539 3.79234 5.33539 Z"/>
 </g>
</svg>