<?xml version="1.0" encoding="UTF-8" standalone="no"?>
<!-- Created with Inkscape (http://www.inkscape.org/) -->
<svg xmlns:svg="http://www.w3.org/2000/svg" xmlns="http://www.w3.org/2000/svg" version="1.0" width="507" height="558.91998" id="svg2">
  <defs id="defs4"/>
  <g transform="translate(-292.14285,4.3306663)" id="layer1">
    <path d="M 761.14285,543.52251 C 761.14285,540.95446 763.99936,537.45873 773.75488,528.08825 C 782.7064,519.49002 784.16417,517.64285 784.15431,514.91083 C 784.13032,508.25931 774.57598,505.06421 769.5974,510.0428 C 768.2474,511.3928 767.14285,513.1928 767.14285,514.0428 C 767.14285,515.74087 765.39933,516.03695 763.28584,514.69778 C 761.68991,513.68656 762.52821,510.05596 765.00877,507.23587 C 773.4057,497.68961 790.45571,503.7635 788.85075,515.72934 C 788.17681,520.75395 784.86263,525.05497 776.12753,532.24106 C 772.28595,535.4014 769.14285,538.34739 769.14285,538.78769 C 769.14285,539.228 773.64285,539.58825 779.14285,539.58825 C 789.14285,539.58825 789.14285,539.58825 789.14285,542.08825 L 789.14285,544.58825 L 775.14285,544.58825 C 765.90045,544.58825 761.14285,544.22608 761.14285,543.52251 z M 719.43607,527.20007 C 713.06878,525.11845 707.60796,520.23553 704.44581,513.79616 C 701.97245,508.75945 701.64285,506.97114 701.64285,498.58825 C 701.64285,490.19686 701.97118,488.41963 704.45641,483.35866 C 710.47397,471.1044 722.95906,465.95664 736.71135,470.05953 C 747.30808,473.22098 753.83548,482.48481 754.8418,495.79067 C 756.23692,514.23733 746.27292,527.20198 729.93874,528.19327 C 726.2443,528.41748 721.90462,528.00709 719.43607,527.20007 z M 738.8775,517.96131 C 743.71454,514.10548 746.20275,509.0192 746.87415,501.61494 C 747.90348,490.26329 743.67865,481.09785 735.75894,477.50137 C 725.42092,472.80668 713.85376,478.0879 710.61934,488.97936 C 705.29148,506.92021 714.20343,522.28818 729.3775,521.32635 C 733.91942,521.03845 735.89528,520.33857 738.8775,517.96131 z M 645.14285,498.58825 L 645.14285,469.58825 L 649.39285,469.61369 L 653.64285,469.63914 L 668.39011,491.86369 L 683.13737,514.08825 L 683.14011,491.83825 L 683.14285,469.58825 L 687.14285,469.58825 L 691.14285,469.58825 L 691.14285,498.58825 L 691.14285,527.58825 L 686.89285,527.56281 L 682.64285,527.53736 L 667.89559,505.31281 L 653.14833,483.08825 L 653.14559,505.33825 L 653.14285,527.58825 L 649.14285,527.58825 L 645.14285,527.58825 L 645.14285,498.58825 z M 380.89285,466.27572 L 322.14285,432.31971 L 322.14285,364.60498 L 322.14285,296.89025 L 379.39285,263.86232 L 436.64285,230.83438 L 436.90008,166.40004 L 437.15731,101.9657 L 397.14181,78.897981 L 357.1263,55.830256 L 358.95519,53.571677 L 360.78408,51.313098 L 395.25433,71.234611 L 429.72458,91.156124 L 472.06814,66.695786 C 511.88652,43.694154 514.49314,42.346819 515.77728,44.10298 C 516.52834,45.130123 517.14285,46.268286 517.14285,46.632231 C 517.14285,46.996176 498.91785,57.804102 476.64285,70.649843 C 454.36785,83.495585 436.14285,94.307214 436.14285,94.675674 C 436.14285,95.044144 437.47004,95.895354 439.09216,96.567254 C 441.64503,97.624694 442.08188,98.383404 442.34216,102.21177 L 442.64285,106.63464 L 483.47819,83.03703 C 521.65762,60.974189 524.40334,59.558074 525.69434,61.263834 C 526.45378,62.267265 526.9709,63.446682 526.84349,63.884761 C 526.71609,64.322839 507.71882,75.596376 484.62735,88.937064 L 442.64285,113.19286 L 442.64285,172.00041 L 442.64285,230.80796 L 499.89285,263.82736 L 557.14285,296.84676 L 557.14285,363.02615 L 557.14285,429.20555 L 596.1321,451.6469 C 617.57618,463.98964 635.12618,474.56474 635.1321,475.14712 C 635.13801,475.7295 634.58035,476.9298 633.89285,477.81445 C 632.78707,479.23732 628.25848,476.87979 594.64285,457.38139 C 573.74285,445.25855 555.92888,435.1375 555.05626,434.89016 C 553.90232,434.56308 461.96839,486.53492 441.64285,499.00472 C 439.86647,500.09453 433.07408,496.43514 380.89285,466.27572 z M 495.89285,461.11462 L 551.14285,429.2995 L 551.14285,364.60788 L 551.14285,299.91627 L 495.94969,268.08559 C 465.59345,250.57872 440.24681,236.25492 439.62381,236.25492 C 439.00082,236.25492 413.66274,250.59179 383.31697,268.11463 L 328.14285,299.97433 L 328.14285,364.62947 L 328.14285,429.2846 L 383.79763,461.39979 C 414.40775,479.06314 439.72025,493.3833 440.04762,493.22236 C 440.375,493.06142 465.50535,478.61294 495.89285,461.11462 z M 439.68881,474.01805 C 438.15041,471.67015 438.2121,471.6019 445.8889,467.15855 C 450.15357,464.69015 471.41785,452.36522 493.14285,439.76981 C 527.61512,419.78397 532.80196,417.06645 533.89285,418.41979 C 534.58035,419.27269 535.14285,420.46424 535.14285,421.0677 C 535.14285,421.67115 521.53494,430.02264 504.90305,439.62657 C 488.27116,449.23049 467.14361,461.43104 457.95296,466.73889 L 441.24267,476.38953 L 439.68881,474.01805 z M 342.14285,364.58825 L 342.14285,309.58825 L 345.14285,309.58825 L 348.14285,309.58825 L 348.14285,364.58825 L 348.14285,419.58825 L 345.14285,419.58825 L 342.14285,419.58825 L 342.14285,364.58825 z M 493.57693,289.71835 C 472.09068,277.2718 450.82813,264.94472 446.32683,262.32484 C 438.78487,257.93522 438.24,257.40554 439.3833,255.57484 C 440.06565,254.48222 441.03941,253.58825 441.54721,253.58825 C 443.36325,253.58825 535.14285,307.06751 535.14285,308.1257 C 535.14285,308.71986 534.58035,309.91305 533.89285,310.77722 C 532.79656,312.15524 527.83886,309.5656 493.57693,289.71835 z M 544.43607,64.200072 C 538.06878,62.118458 532.60796,57.235532 529.44581,50.796168 C 526.97245,45.759451 526.64285,43.971144 526.64285,35.588254 C 526.64285,27.196867 526.97118,25.419633 529.45641,20.358664 C 535.47397,8.1044083 547.95906,2.9566393 561.71135,7.0595303 C 572.30808,10.220986 578.83548,19.484812 579.8418,32.790671 C 581.23692,51.237337 571.27292,64.201988 554.93874,65.193278 C 551.2443,65.417486 546.90462,65.007095 544.43607,64.200072 z M 563.8775,54.961317 C 568.71454,51.105482 571.20275,46.019204 571.87415,38.614943 C 572.90348,27.263293 568.67865,18.097857 560.75894,14.50137 C 550.42092,9.8066833 538.85376,15.087908 535.61934,25.979368 C 530.29148,43.920217 539.20343,59.288184 554.3775,58.326354 C 558.91942,58.038458 560.89528,57.338578 563.8775,54.961317 z M 302.14285,35.588254 L 302.14285,6.5882543 L 306.14285,6.5882543 L 310.14285,6.5882543 L 310.14285,18.588254 L 310.14285,30.588254 L 325.14285,30.588254 L 340.14285,30.588254 L 340.14285,18.588254 L 340.14285,6.5882543 L 344.14285,6.5882543 L 348.14285,6.5882543 L 348.14285,35.588254 L 348.14285,64.588254 L 344.14285,64.588254 L 340.14285,64.588254 L 340.14285,51.088254 L 340.14285,37.588254 L 325.14285,37.588254 L 310.14285,37.588254 L 310.14285,51.088254 L 310.14285,64.588254 L 306.14285,64.588254 L 302.14285,64.588254 L 302.14285,35.588254 z" id="path2576" style="fill:#000000"/>
  </g>
</svg>