<?xml version="1.0" encoding="UTF-8" standalone="no"?>
<!-- Created with Inkscape (http://www.inkscape.org/) -->
<svg xmlns:dc="http://purl.org/dc/elements/1.1/" xmlns:cc="http://creativecommons.org/ns#" xmlns:rdf="http://www.w3.org/1999/02/22-rdf-syntax-ns#" xmlns:svg="http://www.w3.org/2000/svg" xmlns="http://www.w3.org/2000/svg" version="1.1" width="633.41064" height="300.07687" id="svg2">
  <defs id="defs4"/>
  <metadata id="metadata7">
    <rdf:RDF>
      <cc:Work rdf:about="">
        <dc:format>image/svg+xml</dc:format>
        <dc:type rdf:resource="http://purl.org/dc/dcmitype/StillImage"/>
        <dc:title/>
      </cc:Work>
    </rdf:RDF>
  </metadata>
  <g transform="translate(-52.556176,-93.82385)" id="layer1">
    <g transform="matrix(2,0,0,2,-369.36155,-243.86228)" id="g3288">
      <g transform="matrix(-1.5,0,0,1.5,625.33749,-122.30387)" id="g3183">
        <path d="m 265.7357,253.60838 0,-18.00128" id="path2991" style="fill:none;stroke:#000000;stroke-width:0.90004027px;stroke-linecap:round;stroke-linejoin:round;stroke-opacity:1;stroke-dasharray:none"/>
        <path d="m 250.135,226.60646 15.6007,9.00064" id="path2993" style="fill:none;stroke:#000000;stroke-width:0.90004027px;stroke-linecap:round;stroke-linejoin:round;stroke-opacity:1;stroke-dasharray:none"/>
        <path d="m 249.83499,230.20671 12.90058,7.50054" id="path2995" style="fill:none;stroke:#000000;stroke-width:0.90004027px;stroke-linecap:round;stroke-linejoin:round;stroke-opacity:1;stroke-dasharray:none"/>
        <path d="m 250.135,262.60902 15.6007,-9.00064" id="path2997" style="fill:none;stroke:#000000;stroke-width:0.90004027px;stroke-linecap:round;stroke-linejoin:round;stroke-opacity:1;stroke-dasharray:none"/>
        <path d="m 249.83499,259.00876 12.90058,-7.50053" id="path2999" style="fill:none;stroke:#000000;stroke-width:0.90004027px;stroke-linecap:round;stroke-linejoin:round;stroke-opacity:1;stroke-dasharray:none"/>
        <path d="m 234.5343,235.6071 15.6007,-9.00064" id="path3001" style="fill:none;stroke:#000000;stroke-width:0.90004027px;stroke-linecap:round;stroke-linejoin:round;stroke-opacity:1;stroke-dasharray:none"/>
        <path d="m 234.5343,253.60838 15.6007,9.00064" id="path3003" style="fill:none;stroke:#000000;stroke-width:0.90004027px;stroke-linecap:round;stroke-linejoin:round;stroke-opacity:1;stroke-dasharray:none"/>
        <path d="m 234.5343,253.60838 0,-18.00128" id="path3005" style="fill:none;stroke:#000000;stroke-width:0.90004027px;stroke-linecap:round;stroke-linejoin:round;stroke-opacity:1;stroke-dasharray:none"/>
        <path d="m 237.83445,252.10827 0,-15.00106" id="path3007" style="fill:none;stroke:#000000;stroke-width:0.90004027px;stroke-linecap:round;stroke-linejoin:round;stroke-opacity:1;stroke-dasharray:none"/>
      </g>
      <g transform="matrix(1.5,0,0,1.5,-224.78079,-122.41236)" id="g3256">
        <text x="473.64499" y="231.18639" id="text3009" xml:space="preserve" style="font-size:12.600564px;font-style:normal;font-weight:normal;text-align:start;text-anchor:start;fill:#ff0000;font-family:Arial">O</text>
        <text x="483.54544" y="231.18639" id="text3011" xml:space="preserve" style="font-size:12.600564px;font-style:normal;font-weight:normal;text-align:start;text-anchor:start;fill:#008000;font-family:Arial">H</text>
        <text x="473.64499" y="267.48895" id="text3013" xml:space="preserve" style="font-size:12.600564px;font-style:normal;font-weight:normal;text-align:start;text-anchor:start;fill:#ff0000;font-family:Arial">O</text>
        <text x="483.54544" y="267.48895" id="text3015" xml:space="preserve" style="font-size:12.600564px;font-style:normal;font-weight:normal;text-align:start;text-anchor:start;fill:#008000;font-family:Arial">H</text>
        <path d="m 463.14453,253.60838 0,-18.00128" id="path3017" style="fill:none;stroke:#000000;stroke-width:0.90004027px;stroke-linecap:round;stroke-linejoin:round;stroke-opacity:1;stroke-dasharray:none"/>
        <path d="m 447.54383,226.60646 15.6007,9.00064" id="path3019" style="fill:none;stroke:#000000;stroke-width:0.90004027px;stroke-linecap:round;stroke-linejoin:round;stroke-opacity:1;stroke-dasharray:none"/>
        <path d="m 447.54383,262.60902 15.6007,-9.00064" id="path3021" style="fill:none;stroke:#000000;stroke-width:0.90004027px;stroke-linecap:round;stroke-linejoin:round;stroke-opacity:1;stroke-dasharray:none"/>
        <path d="m 431.94314,235.6071 15.60069,-9.00064" id="path3023" style="fill:none;stroke:#000000;stroke-width:0.90004027px;stroke-linecap:round;stroke-linejoin:round;stroke-opacity:1;stroke-dasharray:none"/>
        <path d="m 434.94327,237.70725 12.90058,-7.50054" id="path3025" style="fill:none;stroke:#000000;stroke-width:0.90004027px;stroke-linecap:round;stroke-linejoin:round;stroke-opacity:1;stroke-dasharray:none"/>
        <path d="m 431.94314,253.60838 15.60069,9.00064" id="path3027" style="fill:none;stroke:#000000;stroke-width:0.90004027px;stroke-linecap:round;stroke-linejoin:round;stroke-opacity:1;stroke-dasharray:none"/>
        <path d="m 434.94327,251.50823 12.90058,7.50053" id="path3029" style="fill:none;stroke:#000000;stroke-width:0.90004027px;stroke-linecap:round;stroke-linejoin:round;stroke-opacity:1;stroke-dasharray:none"/>
        <path d="m 431.94314,253.60838 0,-18.00128" id="path3031" style="fill:none;stroke:#000000;stroke-width:0.90004027px;stroke-linecap:round;stroke-linejoin:round;stroke-opacity:1;stroke-dasharray:none"/>
        <path d="m 463.14453,235.6071 0,0 9.90044,-4.50032 -0.60002,-0.90007 -0.60003,-0.90006 -8.70039,6.30045 0,0 z" id="path3033" style="fill:#000000;fill-opacity:1;fill-rule:evenodd;stroke:none"/>
        <path d="m 463.14453,235.6071 0,0 9.90044,-4.50032 -0.60002,-0.90007 -0.60003,-0.90006 -8.70039,6.30045 0,0" id="path3035" style="fill:none;stroke:#000000;stroke-width:0.30001342px;stroke-linecap:round;stroke-linejoin:round;stroke-opacity:1;stroke-dasharray:none"/>
        <path d="m 463.14453,253.60838 0,0 8.70039,6.30044 0.60003,-0.90006 0.60002,-0.90006 -9.90044,-4.50032 0,0 z" id="path3037" style="fill:#000000;fill-opacity:1;fill-rule:evenodd;stroke:none"/>
        <path d="m 463.14453,253.60838 0,0 8.70039,6.30044 0.60003,-0.90006 0.60002,-0.90006 -9.90044,-4.50032 0,0" id="path3039" style="fill:none;stroke:#000000;stroke-width:0.30001342px;stroke-linecap:round;stroke-linejoin:round;stroke-opacity:1;stroke-dasharray:none"/>
      </g>
      <g transform="translate(-2.1545111,0)" id="g3274">
        <g id="g3161">
          <path d="m 298.43716,244.60774 104.10466,0" id="path3041" style="fill:none;stroke:#000000;stroke-width:0.60002685px;stroke-linecap:round;stroke-linejoin:round;stroke-opacity:1;stroke-dasharray:none"/>
          <path d="m 392.64138,242.20757 9.90044,2.40017 -9.90044,2.40017 1.80008,-2.40017 -1.80008,-2.40017 z" id="path3043" style="fill:#000000;fill-opacity:1;fill-rule:evenodd;stroke:none"/>
          <path d="m 392.64138,242.20757 9.90044,2.40017 -9.90044,2.40017 1.80008,-2.40017 -1.80008,-2.40017" id="path3045" style="fill:none;stroke:#000000;stroke-width:0.60002685px;stroke-linecap:round;stroke-linejoin:round;stroke-opacity:1;stroke-dasharray:none"/>
        </g>
        <g id="g3156">
          <path d="m 306.53753,280.31027 0.60002,-2.70019 0.60003,-2.40017 0.90004,-2.40017 0.90004,-2.40017 1.20005,-2.40017 1.20006,-2.10015 1.50006,-2.10015 1.50007,-2.10015 1.50007,-2.10015 1.80008,-1.80013 1.80008,-1.80012 1.80008,-1.50011 2.10009,-1.50011 2.1001,-1.5001 2.10009,-1.20009 2.40011,-1.20008 2.40011,-1.20009 2.4001,-0.90006 2.40011,-0.60005 2.40011,-0.60004 2.70012,-0.60004 2.70012,-0.30002 2.70012,0 0.90004,0 7.80035,0.60004" id="path3047" style="fill:none;stroke:#000000;stroke-width:0.60002685px;stroke-linecap:round;stroke-linejoin:round;stroke-opacity:1;stroke-dasharray:none"/>
          <path d="m 347.03934,242.20757 9.90044,3.30023 -10.20046,1.80013 2.1001,-2.40017 -1.80008,-2.70019 z" id="path3049" style="fill:#000000;fill-opacity:1;fill-rule:evenodd;stroke:none"/>
          <path d="m 347.03934,242.20757 9.90044,3.30023 -10.20046,1.80013 2.1001,-2.40017 -1.80008,-2.70019" id="path3051" style="fill:none;stroke:#000000;stroke-width:0.60002685px;stroke-linecap:round;stroke-linejoin:round;stroke-opacity:1;stroke-dasharray:none"/>
        </g>
        <g transform="translate(-4.950225,0)" id="g3166">
          <path d="m 308.33761,204.40488 3.00013,6.00043 2.70012,4.2003 2.40011,4.20029 2.70012,3.60026 2.70012,3.60026 2.70012,3.30023 3.00013,3.00021 3.00014,2.7002 3.00013,2.40017 3.00014,1.80012 3.30015,1.80013 3.30014,1.50011 3.30015,1.20008 2.10009,0.60005 2.40011,0.30002 2.1001,0.30002 1.20005,0 1.20005,0 2.1001,0 2.10009,-0.30002 2.1001,-0.30002 2.10009,-0.60005 2.70012,-0.90006 2.70012,-0.90006 2.70012,-1.20009 2.70012,-1.80013 2.70012,-1.5001 2.40011,-2.10015 2.70012,-2.10015 2.40011,-2.40017 2.40011,-2.40017 2.10009,-2.70019 3.00013,-3.90028 2.70013,-3.90028 2.70012,-4.2003 2.4001,-4.50032 1.80008,-3.90027 0.60003,-0.90007" id="path3053" style="fill:none;stroke:#000000;stroke-width:0.60002685px;stroke-linecap:round;stroke-linejoin:round;stroke-opacity:1;stroke-dasharray:none"/>
          <path d="m 395.94153,212.20544 6.60029,-7.80056 -2.10009,10.20073 -1.50007,-3.00022 -3.00013,0.60005 z" id="path3055" style="fill:#000000;fill-opacity:1;fill-rule:evenodd;stroke:none"/>
          <path d="m 395.94153,212.20544 6.60029,-7.80056 -2.10009,10.20073 -1.50007,-3.00022 -3.00013,0.60005" id="path3057" style="fill:none;stroke:#000000;stroke-width:0.60002685px;stroke-linecap:round;stroke-linejoin:round;stroke-opacity:1;stroke-dasharray:none"/>
        </g>
      </g>
      <g transform="translate(0,8)" id="g3224">
        <text x="298.43716" y="290.99121" id="text3059" xml:space="preserve" style="font-size:12.600564px;font-style:normal;font-weight:normal;text-align:start;text-anchor:start;fill:#ff0000;font-family:Arial">O</text>
        <text x="308.63763" y="295.8815" id="text3061" xml:space="preserve" style="font-size:9.90044308px;font-style:normal;font-weight:normal;text-align:start;text-anchor:start;fill:#ff0000;font-family:Arial">2</text>
      </g>
      <g id="g3250">
        <text x="264.03653" y="196.78366" id="text3063" xml:space="preserve" style="font-size:12.600564px;font-style:normal;font-weight:normal;text-align:start;text-anchor:start;fill:#000000;font-family:Arial">NAD<tspan id="tspan3214" style="fill:#008000">H </tspan>+ <tspan id="tspan3216" style="fill:#008000">H</tspan></text>
        <text x="323.43918" y="189.67311" id="text3065" xml:space="preserve" style="font-size:9.90044308px;font-style:normal;font-weight:normal;text-align:start;text-anchor:start;fill:#008000;font-family:Arial">+</text>
      </g>
      <g transform="translate(0,15.000214)" id="g3175">
        <text x="390.24127" y="181.78345" id="text3067" xml:space="preserve" style="font-size:12.600564px;font-style:normal;font-weight:normal;text-align:start;text-anchor:start;fill:#000000;font-family:Arial">NAD</text>
        <text x="416.94247" y="174.6729" id="text3069" xml:space="preserve" style="font-size:9.90044308px;font-style:normal;font-weight:normal;text-align:start;text-anchor:start;fill:#000000;font-family:Arial">+</text>
      </g>
      <text x="323.26913" y="261.9584" id="text3179" xml:space="preserve" style="font-size:12.60006046px;font-style:normal;font-variant:normal;font-weight:normal;font-stretch:normal;line-height:125%;letter-spacing:0px;word-spacing:0px;fill:#000000;fill-opacity:1;stroke:none;font-family:Arial;-inkscape-font-specification:Arial"><tspan x="323.26913" y="261.9584" id="tspan3181">EC .14.12.3</tspan></text>
    </g>
  </g>
</svg>