<?xml version="1.0" encoding="UTF-8"?>
<!DOCTYPE svg PUBLIC "-//W3C//DTD SVG 1.0//EN" "http://www.w3.org/TR/2001/REC-SVG-20010904/DTD/svg10.dtd">
<svg fill-opacity="1" xmlns:xlink="http://www.w3.org/1999/xlink" color-rendering="auto" color-interpolation="auto" text-rendering="auto" stroke="black" stroke-linecap="square" width="135" stroke-miterlimit="10" shape-rendering="auto" stroke-opacity="1" fill="black" stroke-dasharray="none" font-weight="normal" stroke-width="1" height="130" xmlns="http://www.w3.org/2000/svg" font-family="'Dialog'" font-style="normal" stroke-linejoin="miter" font-size="12px" stroke-dashoffset="0" image-rendering="auto"><!--Generated by Marvin with Batik SVG Generator--><defs id="genericDefs"/><g><defs id="80919451625-defs1"><clipPath clipPathUnits="userSpaceOnUse" id="809194516697-clipPath1"><path d="M0 0 L135 0 L135 130 L0 130 L0 0 Z"/></clipPath></defs><g text-rendering="geometricPrecision"><path d="M68.2976 12.1693 L68.2976 12.1693 L11.5659 53.3892 C10.9065 53.8683 9.9837 53.7221 9.5046 53.0628 C9.0255 52.4034 9.1717 51.4806 9.831 51.0015 L9.831 51.0015 L66.5628 9.7816 C67.2221 9.3025 68.145 9.4487 68.624 10.108 C69.1031 10.7673 68.9569 11.6902 68.2976 12.1693 Z" stroke="none" clip-path="url(#809194516697-clipPath1)"/></g><g text-rendering="geometricPrecision"><path d="M12.1019 51.7393 L12.1019 51.7393 L33.7708 118.4289 C34.0226 119.204 33.5984 120.0366 32.8233 120.2884 C32.0482 120.5403 31.2157 120.1161 30.9638 119.341 L30.9638 119.341 L9.295 52.6514 C9.0431 51.8762 9.4673 51.0437 10.2424 50.7919 C11.0175 50.54 11.8501 50.9642 12.1019 51.7393 Z" stroke="none" clip-path="url(#809194516697-clipPath1)"/></g><g text-rendering="geometricPrecision"><path d="M32.3673 117.4092 L32.3673 117.4092 L102.4931 117.4092 C103.3081 117.4092 103.9688 118.0699 103.9688 118.8849 C103.9688 119.6999 103.3081 120.3606 102.4931 120.3606 L102.4931 120.3606 L32.3673 120.3606 C31.5523 120.3606 30.8916 119.6999 30.8916 118.8849 C30.8916 118.0699 31.5523 117.4092 32.3673 117.4092 Z" stroke="none" clip-path="url(#809194516697-clipPath1)"/></g><g text-rendering="geometricPrecision"><path d="M101.0896 118.4289 L101.0896 118.4289 L122.7584 51.7393 C123.0103 50.9642 123.8428 50.54 124.6179 50.7919 C125.3931 51.0437 125.8172 51.8762 125.5654 52.6514 L125.5654 52.6514 L103.8965 119.341 C103.6447 120.1161 102.8122 120.5403 102.037 120.2884 C101.2619 120.0366 100.8377 119.204 101.0896 118.4289 Z" stroke="none" clip-path="url(#809194516697-clipPath1)"/></g><g text-rendering="geometricPrecision"><path d="M68.2976 9.7816 L68.2976 9.7816 L125.0293 51.0015 C125.6887 51.4806 125.8348 52.4034 125.3558 53.0628 C124.8767 53.7221 123.9538 53.8683 123.2945 53.3892 L123.2945 53.3892 L66.5628 12.1693 C65.9034 11.6902 65.7573 10.7673 66.2363 10.108 C66.7154 9.4487 67.6383 9.3025 68.2976 9.7816 Z" stroke="none" clip-path="url(#809194516697-clipPath1)"/></g></g></svg>