<svg xmlns="http://www.w3.org/2000/svg" width="244" height="64pt" viewBox="0 0 183 64">
  <defs>
    <clipPath id="a">
      <path d="M0 63.75h182.5V0H0v63.75Zm0 0"/>
    </clipPath>
  </defs>
  <g clip-path="url(#a)">
    <path d="M5.949219 53.4375V31.953125h2.851562v8.828125h11.152344v-8.828125h2.851563V53.4375h-2.851563V43.320312H8.800781V53.4375H5.949219Zm20.261719 2.101562 1.992187-.253906c.21875 1.121094.605469 1.925782 1.152344 2.421875.546875.496094 1.210937.742188 1.992187.742188.9375 0 1.722656-.320313 2.363282-.957031.636718-.652344.957031-1.453126.957031-2.402344 0-.910156-.300781-1.660156-.898438-2.246094-.585937-.597656-1.335937-.898438-2.246093-.898438-.378907 0-.847657.078126-1.40625.234376l.214843-1.738282c.128907.011719.238281.019532.332031.019532.832032 0 1.585938-.222657 2.265626-.664063.675781-.441406 1.015624-1.121094 1.015624-2.03125 0-.730469-.25-1.328125-.742187-1.796875-.496094-.480469-1.128906-.722656-1.894531-.722656-.769532 0-1.414063.242187-1.933594.722656-.507812.480469-.835938 1.210938-.976562 2.1875l-1.972657-.351562c.234375-1.328126.78125-2.355469 1.640625-3.085938.859375-.730469 1.925782-1.09375 3.203125-1.09375.871094 0 1.679688.1875 2.421875.566406.742188.378906 1.308594.890625 1.699219 1.542969s.585937 1.339844.585937 2.070313c0 .703124-.191406 1.339843-.566406 1.914062-.367187.558594-.917968 1.007812-1.660156 1.347656.949219.222656 1.683594.683594 2.207031 1.386719.53125.691406.800781 1.550781.800781 2.578125 0 1.40625-.515624 2.605469-1.542968 3.59375-1.015625.976562-2.304688 1.464844-3.867188 1.464844-1.421875 0-2.597656-.421875-3.535156-1.269532-.925781-.847656-1.460938-1.941406-1.601562-3.28125Zm29.277343-9.640624 2.851563.722656c-.601563 2.332031-1.675782 4.117187-3.222656 5.351562-1.554688 1.226563-3.449219 1.835938-5.683594 1.835938-2.304688 0-4.191406-.46875-5.644532-1.40625-1.445312-.949219-2.550781-2.316406-3.300781-4.101563-.757812-1.796875-1.132812-3.714843-1.132812-5.761719 0-2.234374.417969-4.1875 1.269531-5.859374.859375-1.664063 2.074219-2.929688 3.652344-3.789063 1.570312-.859375 3.308594-1.289063 5.214844-1.289063 2.148437 0 3.949218.546876 5.410156 1.640626 1.46875 1.09375 2.488281 2.632812 3.066406 4.609374l-2.792969.664063c-.507812-1.5625-1.242187-2.699219-2.1875-3.417969-.9375-.714844-2.125-1.074218-3.554687-1.074218-1.65625 0-3.039063.398437-4.140625 1.191406-1.109375.796875-1.890625 1.855468-2.34375 3.183594-.445313 1.328124-.664063 2.703124-.664063 4.121093 0 1.824219.257813 3.417969.78125 4.785157.53125 1.367187 1.355469 2.390624 2.480469 3.066406 1.132813.664062 2.347656.996094 3.652344.996094 1.601562 0 2.949219-.453126 4.042969-1.367188 1.101562-.921875 1.855468-2.289062 2.246093-4.101562ZM81.507812 18.15625c0-3.554688.957032-6.335938 2.871094-8.359375 1.914063-2.015625 4.386719-3.027344 7.421875-3.027344 1.976563 0 3.761719.480469 5.351563 1.425781 1.601562.9375 2.816406 2.261719 3.652344 3.964844.828124 1.695313 1.25 3.613282 1.25 5.761719 0 2.179687-.445313 4.121094-1.328126 5.839844-.875 1.71875-2.117187 3.023437-3.730468 3.90625-1.617188.886719-3.355469 1.328125-5.214844 1.328125-2.023438 0-3.828125-.488282-5.429688-1.464844-1.59375-.976562-2.792968-2.308594-3.613281-4.003906-.820312-1.691406-1.230469-3.480469-1.230469-5.371094Zm2.929688.058594c0 2.578125.695312 4.621094 2.089844 6.113281 1.390625 1.484375 3.136718 2.226563 5.234375 2.226563 2.148437 0 3.910156-.746094 5.292969-2.246094 1.375-1.507813 2.070312-3.644532 2.070312-6.40625 0-1.742188-.304688-3.265625-.898438-4.570313-.585937-1.3125-1.453124-2.328125-2.597656-3.046875-1.132812-.714844-2.402344-1.074218-3.808594-1.074218-2.023437 0-3.757812.695312-5.214843 2.070312-1.445313 1.382812-2.167969 3.691406-2.167969 6.933594Zm-5 5.347656 1.0625 1.875L60.8125 36.75 59.75 34.9375l19.6875-11.375Zm61.886719 22.335938 2.851562.722656c-.601562 2.332031-1.675781 4.117187-3.222656 5.351562-1.554687 1.226563-3.445313 1.835938-5.683594 1.835938-2.304687 0-4.191406-.46875-5.644531-1.40625-1.445312-.949219-2.546875-2.316406-3.300781-4.101563-.757813-1.796875-1.132813-3.714843-1.132813-5.761719 0-2.234374.417969-4.1875 1.269532-5.859374.859374-1.664063 2.074218-2.929688 3.652343-3.789063 1.574219-.859375 3.308594-1.289063 5.214844-1.289063 2.148437 0 3.949219.546876 5.410156 1.640626 1.46875 1.09375 2.488281 2.632812 3.066407 4.609374l-2.792969.664063c-.507813-1.5625-1.238281-2.699219-2.1875-3.417969-.9375-.714844-2.125-1.074218-3.554688-1.074218-1.65625 0-3.035156.398437-4.140625 1.191406-1.109375.796875-1.890625 1.855468-2.34375 3.183594-.445312 1.328124-.664062 2.703124-.664062 4.121093 0 1.824219.257812 3.417969.78125 4.785157.53125 1.367187 1.355468 2.390624 2.480468 3.066406 1.132813.664062 2.347657.996094 3.652344.996094 1.601563 0 2.949219-.453126 4.042969-1.367188 1.101563-.921875 1.855469-2.289062 2.246094-4.101562ZM147.75 53.4375V31.953125h2.851562v8.828125h11.152344v-8.828125h2.851563V53.4375h-2.851563V43.320312h-11.152344V53.4375H147.75Zm20.269531 2.101562 1.992188-.253906c.21875 1.121094.605469 1.925782 1.152343 2.421875.546876.496094 1.210938.742188 1.992188.742188.9375 0 1.722656-.320313 2.363281-.957031.632813-.652344.957031-1.453126.957031-2.402344 0-.910156-.304687-1.660156-.898437-2.246094-.585937-.597656-1.339844-.898438-2.246094-.898438-.382812 0-.851562.078126-1.40625.234376l.214844-1.738282c.125.011719.238281.019532.332031.019532.828125 0 1.585938-.222657 2.265625-.664063.671875-.441406 1.015625-1.121094 1.015625-2.03125 0-.730469-.25-1.328125-.742187-1.796875-.5-.480469-1.128907-.722656-1.894531-.722656-.773438 0-1.417969.242187-1.933594.722656-.507813.480469-.835938 1.210938-.976563 2.1875l-1.972656-.351562c.234375-1.328126.78125-2.355469 1.640625-3.085938.859375-.730469 1.921875-1.09375 3.203125-1.09375.867187 0 1.679687.1875 2.421875.566406.742188.378906 1.308594.890625 1.699219 1.542969s.585937 1.339844.585937 2.070313c0 .703124-.191406 1.339843-.566406 1.914062-.367188.558594-.917969 1.007812-1.660156 1.347656.945312.222656 1.683594.683594 2.207031 1.386719.53125.691406.800781 1.550781.800781 2.578125 0 1.40625-.519531 2.605469-1.542968 3.59375-1.015626.976562-2.304688 1.464844-3.867188 1.464844-1.421875 0-2.597656-.421875-3.535156-1.269532-.929688-.847656-1.460938-1.941406-1.601563-3.28125ZM124.0625 35.125 123 36.9375l-19.9375-11.5 1.0625-1.8125 19.9375 11.5Zm0 0"/>
  </g>
</svg>