<?xml version="1.0" encoding="UTF-8"?>
<svg width="161pt" version="1.1" xmlns="http://www.w3.org/2000/svg" height="101pt" viewBox="0 0 161 101" xmlns:xlink="http://www.w3.org/1999/xlink">
 <defs>
  <clipPath id="Clip0">
   <path d="M0 0 L161 0 L161 101 L0 101 L0 0 Z" transform="translate(0, 0)"/>
  </clipPath>
 </defs>
 <g id="Hintergrund">
  <g id="Gruppe1" clip-path="url(#Clip0)">
   <path style="fill:#000000; fill-rule:evenodd;stroke:none;" d="M11.2266 9.5274 L11.2266 17.4922 L13.4609 17.4922 L13.4609 0 L11.2266 0 L11.2266 7.5586 L2.23047 7.5586 L2.23047 0 L0 0 L0 17.4922 L2.23047 17.4922 L2.23047 9.5274 L11.2266 9.5274 Z" transform="translate(4.29199, 41.6074)"/>
   <path style="fill:#000000; fill-rule:evenodd;stroke:none;" d="M14.7304 5.7109 C14.0351 1.875 11.8281 0 7.9882 0 C5.6367 0 3.7421 0.746 2.4453 2.1835 C0.8632 3.914 0 6.4101 0 9.2382 C0 12.1171 0.8867 14.5898 2.5195 16.2929 C3.8867 17.6835 5.6132 18.332 7.8945 18.332 C12.164 18.332 14.5625 16.0312 15.0898 11.3984 L12.789 11.3984 C12.5976 12.5976 12.3554 13.414 11.996 14.1093 C11.2773 15.5507 9.789 16.3671 7.9179 16.3671 C4.4375 16.3671 2.2304 13.582 2.2304 9.2148 C2.2304 4.7304 4.3164 1.9687 7.7265 1.9687 C9.1406 1.9687 10.4609 2.3789 11.1796 3.0742 C11.8281 3.6718 12.1875 4.3945 12.4531 5.7109 L14.7304 5.7109 Z" transform="translate(42.252, 41.4688)"/>
   <path style="fill:#000000; fill-rule:nonzero;stroke:none;" d="M20.0996 0 L20.0996 1.6992 L0 1.6992 L0 0 L20.0996 0 Z" transform="translate(19.9004, 49.6504)"/>
   <path style="fill:#000000; fill-rule:evenodd;stroke:none;" d="M14.7305 5.7109 C14.0352 1.875 11.8282 0 7.9883 0 C5.6368 0 3.7422 0.746 2.4454 2.1835 C0.8633 3.914 0 6.4101 0 9.2382 C0 12.1171 0.8868 14.5898 2.5196 16.2929 C3.8868 17.6835 5.6133 18.332 7.8946 18.332 C12.1641 18.332 14.5625 16.0312 15.0899 11.3984 L12.7891 11.3984 C12.5977 12.5976 12.3555 13.414 11.9961 14.1093 C11.2774 15.5507 9.7891 16.3671 7.918 16.3671 C4.4375 16.3671 2.2305 13.582 2.2305 9.2148 C2.2305 4.7304 4.3165 1.9687 7.7266 1.9687 C9.1407 1.9687 10.461 2.3789 11.1797 3.0742 C11.8282 3.6718 12.1875 4.3945 12.4532 5.7109 L14.7305 5.7109 Z" transform="translate(81.9023, 41.4688)"/>
   <path style="fill:#000000; fill-rule:nonzero;stroke:none;" d="M20 0 L20 1.6992 L0 1.6992 L0 0 L20 0 Z" transform="translate(59.7002, 49.6504)"/>
   <path style="fill:#000000; fill-rule:evenodd;stroke:none;" d="M11.2265 9.5273 L11.2265 17.4922 L13.4609 17.4922 L13.4609 0 L11.2265 0 L11.2265 7.5586 L2.2305 7.5586 L2.2305 0 L0 0 L0 17.4922 L2.2305 17.4922 L2.2305 9.5273 L11.2265 9.5273 Z" transform="translate(43.9424, 1.9082)"/>
   <path style="fill:#000000; fill-rule:nonzero;stroke:none;" d="M0 0 L1.7002 0 L1.7002 17.8496 L0 17.8496 L0 0 Z" transform="translate(47.8496, 21.7002)"/>
   <path style="fill:#000000; fill-rule:evenodd;stroke:none;" d="M11.2265 9.5274 L11.2265 17.4922 L13.4609 17.4922 L13.4609 0 L11.2265 0 L11.2265 7.5586 L2.2305 7.5586 L2.2305 0 L0 0 L0 17.4922 L2.2305 17.4922 L2.2305 9.5274 L11.2265 9.5274 Z" transform="translate(43.9424, 81.3076)"/>
   <path style="fill:#000000; fill-rule:nonzero;stroke:none;" d="M1.7002 17.8496 L0 17.8496 L0 0 L1.7002 0 L1.7002 17.8496 Z" transform="translate(47.8496, 61.5)"/>
   <path style="fill:#000000; fill-rule:evenodd;stroke:none;" d="M11.2265 9.5273 L11.2265 17.4922 L13.4609 17.4922 L13.4609 0 L11.2265 0 L11.2265 7.5586 L2.2304 7.5586 L2.2304 0 L0 0 L0 17.4922 L2.2304 17.4922 L2.2304 9.5273 L11.2265 9.5273 Z" transform="translate(83.6426, 1.9082)"/>
   <path style="fill:#000000; fill-rule:nonzero;stroke:none;" d="M0 0 L1.7002 0 L1.7002 17.8496 L0 17.8496 L0 0 Z" transform="translate(87.5, 21.7002)"/>
   <path style="fill:#000000; fill-rule:evenodd;stroke:none;" d="M11.2265 9.5274 L11.2265 17.4922 L13.4609 17.4922 L13.4609 0 L11.2265 0 L11.2265 7.5586 L2.2304 7.5586 L2.2304 0 L0 0 L0 17.4922 L2.2304 17.4922 L2.2304 9.5274 L11.2265 9.5274 Z" transform="translate(83.6426, 81.3076)"/>
   <path style="fill:#000000; fill-rule:nonzero;stroke:none;" d="M1.7002 17.8496 L0 17.8496 L0 0 L1.7002 0 L1.7002 17.8496 Z" transform="translate(87.5, 61.5)"/>
   <path style="fill:#000000; fill-rule:evenodd;stroke:none;" d="M8.422 0 C3.41 0 0 3.6953 0 9.1679 C0 14.6601 3.383 18.332 8.449 18.332 C10.582 18.332 12.453 17.6835 13.871 16.4843 C15.765 14.8789 16.894 12.1679 16.894 9.3125 C16.894 3.6718 13.558 0 8.422 0 Z M8.422 1.9687 C12.215 1.9687 14.66 4.8242 14.66 9.2617 C14.66 13.4882 12.14 16.3671 8.449 16.3671 C4.703 16.3671 2.234 13.4882 2.234 9.1679 C2.234 4.8476 4.703 1.9687 8.422 1.9687 Z" transform="translate(120.76, 41.4688)"/>
   <path style="fill:#000000; fill-rule:nonzero;stroke:none;" d="M19.3496 0 L19.3496 1.6992 L0 1.6992 L0 0 L19.3496 0 Z" transform="translate(99.4004, 49.6504)"/>
   <path style="fill:#000000; fill-rule:evenodd;stroke:none;" d="M11.226 9.52739 L11.226 17.4922 L13.461 17.4922 L13.461 0 L11.226 0 L11.226 7.55859 L2.23 7.55859 L2.23 0 L0 0 L0 17.4922 L2.23 17.4922 L2.23 9.52739 L11.226 9.52739 Z" transform="translate(143.143, 7.25781)"/>
   <path style="fill:#000000; fill-rule:nonzero;stroke:none;" d="M8 0 L9.5 0.8496 L1.5 14.7002 L0 13.8496 L8 0 Z" transform="translate(133.1, 26.2002)"/>
  </g>
 </g>
</svg>
