<svg xmlns="http://www.w3.org/2000/svg" width="207.906" height="130.104" viewBox="0 0 155.93 97.578">
  <defs>
    <clipPath id="a">
      <path d="M0 0h50.332v29.492H0Z"/>
    </clipPath>
  </defs>
  <g fill="#161413" clip-path="url(#a)" clip-rule="evenodd" transform="matrix(2.8 0 0 2.8 7.5 7.5)">
    <path d="M.602 21.773 0 22.121V7.375l.602.344zm1.992-1.324h.598V9.043h-.598Zm10.176 8.352v.691L0 22.122l.602-.349Zm12.171-7.028.602.348-12.773 7.371v-.69ZM22.5 20.191l.301.52-9.88 5.703-.3-.52Z"/>
    <path d="m24.941 7.72.301-.173.301.172v14.402l-.602-.348ZM12.77.691V0l12.472 7.199v.348l-.301.172zm-.149 2.907.3-.52 9.88 5.703-.301.52Z"/>
    <path d="M.602 7.72 0 7.374 12.77 0v.691zM37.71 0v.691L25.544 7.719l-.3-.172v-.348Zm12.622 7.285-.301.52L37.71.691V0Z"/>
  </g>
</svg>