<?xml version="1.0" encoding="UTF-8"?>
<!-- Generator: Adobe Illustrator 19.2.1, SVG Export Plug-In . SVG Version: 6.00 Build 0)  -->
<svg version="1.1" id="Слой_1" xmlns="http://www.w3.org/2000/svg" xmlns:xlink="http://www.w3.org/1999/xlink" x="0px" y="0px" viewBox="0 0 814.9 230.1" style="enable-background:new 0 0 814.9 230.1;" xml:space="preserve">
<g>
	<rect x="23.5" y="109.8" transform="matrix(0.809 -0.5878 0.5878 0.809 -57.7769 44.2416)" width="31.3" height="2.4"/>
	<polygon points="27.8,149.1 17,115.8 17.9,115.2 17.9,115.2 46.5,94.4 45.1,92.5 16.5,113.2 16.5,113.2 14.9,114.4 14.2,114.9    14.4,115.7 25.5,149.9  "/>
	<rect x="67.2" y="138.3" transform="matrix(0.309 -0.9511 0.9511 0.309 -70.5097 182.0486)" width="45.6" height="2.4"/>
	<path d="M264.8,47.8h-2.4v39.7l-1.7-1l0,0l-1.7-1l-0.6-0.3l-0.6,0.3l-1.7,1l0,0l-1.7,1V47.8h-2.4v41.1L208.6,114L161,86.5l0,0   l-1.7-1l-0.6-0.3l-0.6,0.3l-1.7,1l0,0l-47.5,27.4L79.3,92.5l-1.4,1.9l29.5,21.4l-17.3,53.1H89H51v2.4H89h2l0.9,0l0.3-0.8l0.6-1.9   l17-52.4l48.9-28.2l48.6,28l-6.3,36h15.2l-6.3-36l48.6-28l1.1,0.7l32.7,18.9l1.2-2.1l-28.6-16.5V47.8z M108.8,115.4L108.8,115.4   L108.8,115.4L108.8,115.4z"/>
	<polygon points="54.4,73.1 54.6,73.1 70,95.1 73.4,95.1 73.4,66.9 70,66.9 70,89.1 69.8,89.1 54.4,66.9 50.9,66.9 50.9,95.1    54.4,95.1  "/>
	<polygon points="41.2,177.7 41,177.7 25.6,155.6 22.1,155.6 22.1,183.8 25.6,183.8 25.6,161.7 25.8,161.7 41.2,183.8 44.6,183.8    44.6,155.6 41.2,155.6  "/>
	<polygon points="41.1,200 25.7,200 25.7,187.8 22.1,187.8 22.1,215.9 25.7,215.9 25.7,203.1 41.1,203.1 41.1,215.9 44.6,215.9    44.6,187.8 41.1,187.8  "/>
	<polygon points="216.3,180.5 216.2,180.5 200.7,158.4 197.3,158.4 197.3,186.6 200.8,186.6 200.8,164.5 201,164.5 216.4,186.6    219.8,186.6 219.8,158.4 216.3,158.4  "/>
	<polygon points="242.8,170.6 227.3,170.6 227.3,158.4 223.8,158.4 223.8,186.6 227.3,186.6 227.3,173.8 242.8,173.8 242.8,186.6    246.3,186.6 246.3,158.4 242.8,158.4  "/>
	<path d="M253.8,190.6l5-5.2c3.3-3.4,4.3-5,4.3-7.2c0-3-2.8-5.4-6.3-5.4c-3.7,0-6.5,2.6-6.5,6v0h2.4v0c0-2.2,1.8-3.9,4.1-3.9   c2.2,0,3.9,1.5,3.9,3.4c0,1.6-0.6,2.7-3.3,5.5l-6.9,7.3v1.7h13v-2.2L253.8,190.6L253.8,190.6z"/>
	<path d="M308.3,100.6c-8,0-13,5.6-13,14.6s5,14.6,13,14.6s13-5.6,13-14.6S316.3,100.6,308.3,100.6z M308.3,126.4   c-5.8,0-9.4-4.4-9.4-11.3c0-7,3.6-11.3,9.4-11.3s9.4,4.4,9.4,11.3C317.7,122.1,314.1,126.4,308.3,126.4z"/>
	<polygon points="344.3,113.2 328.8,113.2 328.8,101 325.3,101 325.3,129.2 328.8,129.2 328.8,116.4 344.3,116.4 344.3,129.2    347.8,129.2 347.8,101 344.3,101  "/>
	<path d="M258.4,43.3c8,0,13-5.6,13-14.6c0-8.9-5-14.6-13-14.6c-8,0-13,5.6-13,14.6C245.5,37.7,250.5,43.3,258.4,43.3z M258.4,17.4   c5.8,0,9.4,4.4,9.4,11.3c0,6.9-3.6,11.3-9.4,11.3c-5.8,0-9.4-4.4-9.4-11.3C249.1,21.8,252.7,17.4,258.4,17.4z"/>
	<path d="M498.5,119.7L496,119v2.6v5H422c10.3-3.1,19.6-9.3,26.5-17.9c5.1-6.3,8.6-13.5,10.5-21.1l5.3,0l2.6,0l-0.7-2.5l-6.2-23.2   l-1.9-7.2l-1.9,7.2L450,85.1l-0.7,2.5l2.6,0l4.7,0c-1.8,7.1-5.2,13.8-9.9,19.6c-10.1,12.5-25.3,19.6-41.4,19.4l0,0h-35.1v2.4H496v5   v2.6l2.5-0.7l23.2-6.2l7.2-1.9l-7.2-1.9L498.5,119.7z"/>
	<path d="M435.1,43.3c6.2,0,10.4-3.1,11.7-8.7h-3.6c-1,3.4-4,5.4-8.1,5.4c-5.6,0-9.1-4.4-9.1-11.3c0-6.9,3.6-11.3,9.1-11.3   c4,0,7.2,2.4,8.1,6.1h3.6c-0.9-5.6-5.6-9.4-11.7-9.4c-7.7,0-12.7,5.7-12.7,14.6C422.4,37.6,427.3,43.3,435.1,43.3z"/>
	<path d="M463.8,43.3c8,0,13-5.6,13-14.6s-5-14.6-13-14.6s-13,5.6-13,14.6S455.8,43.3,463.8,43.3z M463.8,17.4   c5.8,0,9.4,4.4,9.4,11.3c0,6.9-3.6,11.3-9.4,11.3s-9.4-4.4-9.4-11.3C454.4,21.8,458,17.4,463.8,17.4z"/>
	<path d="M483.1,35c0-2.2,1.8-3.9,4.1-3.9c2.2,0,3.9,1.5,3.9,3.4c0,1.6-0.6,2.7-3.3,5.5l-6.9,7.3v1.7h13v-2.2h-9.6v-0.1l5-5.2   c3.3-3.4,4.3-5,4.3-7.2c0-3-2.8-5.4-6.3-5.4c-3.7,0-6.5,2.6-6.5,6v0L483.1,35L483.1,35z"/>
	<rect x="560.8" y="109.8" transform="matrix(0.809 -0.5878 0.5878 0.809 44.8287 360.0291)" width="31.3" height="2.4"/>
	<polygon points="744.6,117.4 744.6,152 747,152 747,117.4 747,115.4 747,114.7 746.4,114.3 744.7,113.3 698.3,86.5 698.3,86.5    696.5,85.5 695.9,85.2 695.3,85.5 693.6,86.5 693.6,86.5 646.1,113.9 616.6,92.5 615.2,94.4 644.6,115.8 627.4,168.9 626.2,168.9    588.3,168.9 588.3,171.3 626.2,171.3 628.2,171.3 629.1,171.3 629.4,170.5 630,168.6 647,116.2 695.9,87.9 744.6,116.1  "/>
	<rect x="604.5" y="138.3" transform="matrix(0.309 -0.9511 0.9511 0.309 300.7214 693.0049)" width="45.6" height="2.4"/>
	<polygon points="565.1,149.1 554.3,115.8 555.2,115.2 583.7,94.4 582.3,92.5 553.8,113.2 553.8,113.2 552.1,114.4 551.4,114.9    551.7,115.7 552.3,117.6 562.8,149.9  "/>
	<polygon points="591.7,73.1 591.8,73.1 607.3,95.1 610.7,95.1 610.7,66.9 607.2,66.9 607.2,89.1 607,89.1 591.6,66.9 588.2,66.9    588.2,95.1 591.7,95.1  "/>
	<polygon points="578.4,177.7 578.2,177.7 562.8,155.6 559.4,155.6 559.4,183.8 562.9,183.8 562.9,161.7 563,161.7 578.5,183.8    581.9,183.8 581.9,155.6 578.4,155.6  "/>
	<polygon points="578.4,200 562.9,200 562.9,187.8 559.4,187.8 559.4,215.9 562.9,215.9 562.9,203.1 578.4,203.1 578.4,215.9    581.9,215.9 581.9,187.8 578.4,187.8  "/>
	<polygon points="753.6,180.5 753.4,180.5 738,158.4 734.6,158.4 734.6,186.6 738,186.6 738,164.5 738.2,164.5 753.6,186.6    757.1,186.6 757.1,158.4 753.6,158.4  "/>
	<polygon points="780,170.6 764.6,170.6 764.6,158.4 761.1,158.4 761.1,186.6 764.6,186.6 764.6,173.8 780,173.8 780,186.6    783.6,186.6 783.6,158.4 780,158.4  "/>
	<path d="M791.1,190.7L791.1,190.7l5-5.2c3.3-3.4,4.3-5,4.3-7.2c0-3-2.8-5.4-6.3-5.4c-3.7,0-6.5,2.6-6.5,6v0h2.4v0   c0-2.2,1.8-3.9,4.1-3.9c2.2,0,3.9,1.5,3.9,3.4c0,1.6-0.6,2.7-3.3,5.5l-6.9,7.3v1.7h13v-2.2H791.1z"/>
</g>
</svg>