<?xml version="1.0" encoding="UTF-8"?>
<svg width="146pt" version="1.1" xmlns="http://www.w3.org/2000/svg" height="87pt" viewBox="0 0 146 87" xmlns:xlink="http://www.w3.org/1999/xlink">
 <defs>
  <clipPath id="Clip0">
   <path d="M0 0 L146 0 L146 87 L0 87 L0 0 Z" transform="translate(0, 0)"/>
  </clipPath>
 </defs>
 <g id="Hintergrund">
  <g id="Gruppe1" clip-path="url(#Clip0)">
   <path style="fill:#161413; fill-rule:evenodd;stroke:none;" d="M14.7354 5.71191 C14.0401 1.87207 11.8321 0 7.9913 0 C5.6397 0 3.7442 0.74414 2.4473 2.18457 C0.8633 3.91211 0 6.4082 0 9.24028 C0 12.1201 0.8877 14.5918 2.544 16.2959 C3.8877 17.6885 5.6153 18.336 7.8956 18.336 C12.168 18.336 14.5674 16.0322 15.0957 11.4004 L12.792 11.4004 C12.5997 12.6006 12.3594 13.416 12 14.1123 C11.2793 15.5518 9.792 16.3682 7.92 16.3682 C4.4395 16.3682 2.2315 13.584 2.2315 9.21578 C2.2315 4.72852 4.3438 1.96777 7.7276 1.96777 C9.1436 1.96777 10.4639 2.40039 11.1836 3.07227 C11.8321 3.67188 12.1915 4.41602 12.4561 5.71191 L14.7354 5.71191 Z" transform="translate(65.6523, 1.71582)"/>
   <path style="fill:#161413; fill-rule:evenodd;stroke:none;" d="M11.2314 9.52829 L11.2314 17.4961 L13.4639 17.4961 L13.4639 0 L11.2314 0 L11.2314 7.56054 L2.2314 7.56054 L2.2314 0 L0 0 L0 17.4961 L2.2558 17.4961 L2.2558 9.52829 L11.2314 9.52829 Z" transform="translate(83.7422, 2.00391)"/>
   <path style="fill:#161413; fill-rule:evenodd;stroke:none;" d="M3.4018 6.9121 L3.5998 6.9121 L4.2658 6.8935 C6.0118 6.8935 6.9118 7.6855 6.9118 9.2158 C6.9118 10.8174 5.9218 11.7715 4.2658 11.7715 C2.5378 11.7715 1.6918 10.9082 1.5838 9.0537 L0 9.0537 C0.0722 10.0801 0.2519 10.7461 0.5578 11.3213 C1.2058 12.5459 2.4658 13.1758 4.2118 13.1758 C6.8398 13.1758 8.5318 11.6094 8.5318 9.1972 C8.5318 7.5781 7.9018 6.6777 6.3718 6.1553 C7.5598 5.6875 8.1538 4.7881 8.1538 3.5097 C8.1538 1.3135 6.6958 0 4.2658 0 C1.6918 0 0.3242 1.4033 0.2695 4.1221 L1.8538 4.1221 C1.8718 3.3476 1.9438 2.916 2.1418 2.5195 C2.5018 1.8174 3.2938 1.3857 4.2838 1.3857 C5.6878 1.3857 6.5338 2.2138 6.5338 3.5635 C6.5338 4.4638 6.2098 5.0039 5.5078 5.292 C5.0758 5.4717 4.5178 5.5439 3.4018 5.5615 L3.4018 6.9121 Z" transform="translate(99.5762, 11.2383)"/>
   <path style="fill:#161413; fill-rule:nonzero;stroke:none;" d="M0 0 L1.6992 0 L1.6992 27.2002 L0.8496 27.7002 L0 27.2002 L0 0 Z" transform="translate(72.4004, 22.0498)"/>
   <path style="fill:#161413; fill-rule:evenodd;stroke:none;" d="M11.2314 9.5283 L11.2314 17.4961 L13.4639 17.4961 L13.4639 0 L11.2314 0 L11.2314 7.5606 L2.23144 7.5606 L2.23144 0 L0 0 L0 17.4961 L2.25586 17.4961 L2.25586 9.5283 L11.2314 9.5283 Z" transform="translate(4.74219, 61.5039)"/>
   <path style="fill:#161413; fill-rule:evenodd;stroke:none;" d="M3.4013 6.9121 L3.5996 6.9121 L4.2656 6.8935 C6.0117 6.8935 6.9121 7.6855 6.9121 9.2158 C6.9121 10.8174 5.9218 11.7715 4.2656 11.7715 C2.5381 11.7715 1.6914 10.9082 1.584 9.0537 L0 9.0537 C0.0722 10.0801 0.2519 10.7461 0.5576 11.3213 C1.206 12.5459 2.4658 13.1758 4.2119 13.1758 C6.8398 13.1758 8.5322 11.6094 8.5322 9.1972 C8.5322 7.5781 7.9013 6.6777 6.372 6.1553 C7.5595 5.6875 8.1543 4.7881 8.1543 3.5097 C8.1543 1.3135 6.6963 0 4.2656 0 C1.6914 0 0.3242 1.4033 0.2695 4.1221 L1.8535 4.1221 C1.872 3.3476 1.9433 2.916 2.1416 2.5195 C2.5019 1.8174 3.2939 1.3857 4.2842 1.3857 C5.6875 1.3857 6.5342 2.2138 6.5342 3.5635 C6.5342 4.4638 6.2099 5.0039 5.5078 5.292 C5.0761 5.4717 4.5176 5.5439 3.4013 5.5615 L3.4013 6.9121 Z" transform="translate(20.5762, 70.7383)"/>
   <path style="fill:#161413; fill-rule:evenodd;stroke:none;" d="M14.7354 5.7119 C14.0401 1.8721 11.8321 0 7.9913 0 C5.6397 0 3.7442 0.7442 2.4473 2.1846 C0.8633 3.9121 0 6.4082 0 9.2403 C0 12.1201 0.8877 14.5918 2.544 16.2959 C3.8877 17.6885 5.6153 18.336 7.8956 18.336 C12.168 18.336 14.5674 16.0322 15.0957 11.4004 L12.792 11.4004 C12.5997 12.6006 12.3594 13.416 12 14.1123 C11.2793 15.5518 9.792 16.3682 7.92 16.3682 C4.4395 16.3682 2.2315 13.584 2.2315 9.2158 C2.2315 4.7285 4.3438 1.9678 7.7276 1.9678 C9.1436 1.9678 10.4639 2.4004 11.1836 3.0723 C11.8321 3.6719 12.1915 4.416 12.4561 5.7119 L14.7354 5.7119 Z" transform="translate(31.1523, 61.2158)"/>
   <path style="fill:#161413; fill-rule:nonzero;stroke:none;" d="M0.8496 15.9502 L0 14.4502 L25 0 L25.8496 0.5 L25.8496 1.5 L0.8496 15.9502 Z" transform="translate(47.4004, 49.25)"/>
   <path style="fill:#161413; fill-rule:evenodd;stroke:none;" d="M14.7357 5.7119 C14.0397 1.8721 11.8317 0 7.9917 0 C5.6397 0 3.7437 0.7442 2.4477 2.1846 C0.8637 3.9121 0 6.4082 0 9.2403 C0 12.1201 0.8877 14.5918 2.5437 16.2959 C3.8877 17.6885 5.6157 18.336 7.8957 18.336 C12.1677 18.336 14.5677 16.0322 15.0957 11.4004 L12.7917 11.4004 C12.5997 12.6006 12.3597 13.416 11.9997 14.1123 C11.2797 15.5518 9.7917 16.3682 7.9197 16.3682 C4.4397 16.3682 2.2317 13.584 2.2317 9.2158 C2.2317 4.7285 4.3437 1.9678 7.7277 1.9678 C9.1437 1.9678 10.4637 2.4004 11.1837 3.0723 C11.8317 3.6719 12.1917 4.416 12.4557 5.7119 L14.7357 5.7119 Z" transform="translate(99.9023, 61.2158)"/>
   <path style="fill:#161413; fill-rule:evenodd;stroke:none;" d="M11.232 9.5283 L11.232 17.4961 L13.464 17.4961 L13.464 0 L11.232 0 L11.232 7.5606 L2.232 7.5606 L2.232 0 L0 0 L0 17.4961 L2.256 17.4961 L2.256 9.5283 L11.232 9.5283 Z" transform="translate(118.242, 61.5039)"/>
   <path style="fill:#161413; fill-rule:evenodd;stroke:none;" d="M3.402 6.9121 L3.6 6.9121 L4.266 6.8935 C6.012 6.8935 6.912 7.6855 6.912 9.2158 C6.912 10.8174 5.922 11.7715 4.266 11.7715 C2.538 11.7715 1.692 10.9082 1.584 9.0537 L0 9.0537 C0.072 10.0801 0.252 10.7461 0.558 11.3213 C1.206 12.5459 2.466 13.1758 4.212 13.1758 C6.84 13.1758 8.532 11.6094 8.532 9.1972 C8.532 7.5781 7.902 6.6777 6.372 6.1553 C7.56 5.6875 8.154 4.7881 8.154 3.5097 C8.154 1.3135 6.696 0 4.266 0 C1.692 0 0.324 1.4033 0.27 4.1221 L1.854 4.1221 C1.872 3.3476 1.944 2.916 2.142 2.5195 C2.502 1.8174 3.294 1.3857 4.284 1.3857 C5.688 1.3857 6.534 2.2138 6.534 3.5635 C6.534 4.4638 6.21 5.0039 5.508 5.292 C5.076 5.4717 4.518 5.5439 3.402 5.5615 L3.402 6.9121 Z" transform="translate(134.076, 70.7383)"/>
   <path style="fill:#161413; fill-rule:nonzero;stroke:none;" d="M26.0996 14.5996 L25.25 16.0498 L0 1.5 L0 0.5 L0.8496 0 L26.0996 14.5996 Z" transform="translate(73.25, 49.25)"/>
  </g>
 </g>
</svg>