<svg xmlns:rdf="http://www.w3.org/1999/02/22-rdf-syntax-ns#" xmlns="http://www.w3.org/2000/svg" height="63" shape-rendering="geometricPrecision" width="105" version="1.1" xmlns:cc="http://creativecommons.org/ns#" xmlns:dc="http://purl.org/dc/elements/1.1/" preserveAspectRatio="xMidYMid">

<title>naphthalene</title>

<metadata>

<rdf:RDF>

<cc:Work rdf:about="">

<dc:format>image/svg+xml</dc:format>

<dc:type rdf:resource="http://purl.org/dc/dcmitype/StillImage"/>

<dc:title>naphthalene</dc:title>

<cc:license rdf:resource="http://creativecommons.org/licenses/publicdomain/"/>

</cc:Work>

<cc:License rdf:about="http://creativecommons.org/licenses/publicdomain/">

<cc:permits rdf:resource="http://creativecommons.org/ns#Reproduction"/>

<cc:permits rdf:resource="http://creativecommons.org/ns#Distribution"/>

<cc:permits rdf:resource="http://creativecommons.org/ns#DerivativeWorks"/>

</cc:License>

</rdf:RDF>

</metadata>

<path d="M27.53125,2,2,16.75,2,46.25,27.53125,61,52.46875,46.59375,77.40625,61,102.96875,46.25,102.96875,16.75,77.40625,2,52.46875,16.40625,27.53125,2zm0,1.375,24.34375,14.0625,0,28.125-24.34375,14.0625-24.34375-14.0625,0-28.125,24.34375-14.0625zm49.875,0,24.34375,14.0625,0,28.125-24.34375,14.0625-24.3125-14.0625,0-28.125,24.3125-14.0625zm-50.15625,4.78125-19.78125,11.40625,0.625,1.0625,19.75-11.40625-0.59375-1.0625zm49.875,0-19.75,11.40625,0.59375,1.0625,19.75-11.40625-0.59375-1.0625zm19.46875,11.9375,0,22.8125,1.1875,0,0-22.8125-1.1875,0zm-88.5,22.28125-0.625,1.0625,19.78125,11.40625,0.59375-1.0625-19.75-11.40625zm49.875,0-0.59375,1.0625,19.75,11.40625,0.59375-1.0625-19.75-11.40625z" fill="#000"/>

</svg>