<svg xmlns="http://www.w3.org/2000/svg" width="222.093" height="202.36" viewBox="0 0 166.57 151.77">
  <g fill="#171615">
    <path d="m10 79.804 1.685.96v39.377l-1.685.975zM17.274 116.42h1.686V84.483h-1.686ZM10 121.116l1.685-.975 34.09 19.687v1.946zM45.776 141.774v-1.945L79.88 120.14l1.674.975zM46.205 133.125l-.844-1.456L73.022 115.7l.843 1.454Z"/>
    <path d="m81.554 121.115-1.674-.975V80.765l.82-.47.82.458ZM80.711 79.354l-.01.94-.821.47L45.776 61.09v-.951l.81-.483zM73.865 83.764l-.843 1.453-27.66-15.968.843-1.454Z"/>
    <path d="m44.966 59.655.81.483v.951l-34.09 19.676-1.686-.96zM54.218 16.65c-.831-4.463-3.412-6.65-7.875-6.65-2.756 0-4.944.875-6.475 2.538-1.837 2.012-2.844 4.943-2.844 8.225 0 3.368 1.007 6.256 2.932 8.225 1.575 1.618 3.587 2.406 6.256 2.406 4.987 0 7.787-2.713 8.4-8.094h-2.669c-.218 1.4-.525 2.363-.918 3.15-.832 1.663-2.582 2.625-4.77 2.625-4.068 0-6.65-3.237-6.65-8.312 0-5.25 2.45-8.488 6.432-8.488 1.663 0 3.194.481 4.025 1.313.744.7 1.182 1.53 1.488 3.062zM71.02 21.463v9.275h2.582V10.306H71.02v8.838h-10.5v-8.838h-2.625v20.432h2.625v-9.275zM80.743 29.925h1.026c2.01 0 3.076.943 3.076 2.748 0 1.928-1.149 3.076-3.076 3.076-2.01 0-2.994-1.025-3.158-3.281h-1.846c.082 1.23.328 2.05.656 2.707.78 1.476 2.256 2.215 4.266 2.215 3.076 0 5.045-1.846 5.045-4.717 0-1.97-.738-2.994-2.502-3.61 1.353-.574 2.05-1.64 2.05-3.158 0-2.625-1.681-4.183-4.511-4.183-2.994 0-4.594 1.681-4.676 4.88h1.846c.041-.902.123-1.435.328-1.886.451-.862 1.354-1.395 2.502-1.395 1.64 0 2.625.985 2.625 2.625 0 1.067-.37 1.723-1.19 2.092-.492.205-1.189.287-2.46.328z"/>
    <path d="m46.585 59.655-.81.483-.809-.483-.03-23.94h1.683zM124.054 56.97c-.831-4.462-3.413-6.65-7.875-6.65-2.756 0-4.944.875-6.475 2.538-1.837 2.012-2.844 4.943-2.844 8.225 0 3.368 1.007 6.256 2.932 8.225 1.575 1.618 3.587 2.406 6.256 2.406 4.987 0 7.787-2.713 8.4-8.094h-2.669c-.218 1.4-.525 2.363-.918 3.15-.832 1.663-2.582 2.625-4.77 2.625-4.068 0-6.65-3.237-6.65-8.312 0-5.25 2.45-8.488 6.432-8.488 1.663 0 3.194.482 4.025 1.313.744.7 1.181 1.531 1.488 3.062zM140.856 61.783v9.275h2.582V50.626h-2.582v8.838h-10.5v-8.838h-2.625v20.432h2.625v-9.275zM150.58 70.245h1.025c2.01 0 3.076.943 3.076 2.748 0 1.928-1.149 3.076-3.076 3.076-2.01 0-2.994-1.025-3.158-3.281H146.6c.082 1.23.328 2.05.656 2.707.78 1.476 2.256 2.215 4.266 2.215 3.076 0 5.045-1.846 5.045-4.717 0-1.969-.739-2.994-2.502-3.61 1.353-.574 2.05-1.64 2.05-3.158 0-2.625-1.681-4.183-4.511-4.183-2.994 0-4.594 1.681-4.676 4.88h1.846c.04-.902.123-1.435.328-1.886.451-.861 1.354-1.395 2.502-1.395 1.64 0 2.625.985 2.625 2.625 0 1.067-.37 1.723-1.19 2.092-.492.205-1.189.287-2.46.328zM81.52 80.753l-.82-.459.01-.94 22.085-12.785.84 1.456z"/>
  </g>
</svg>