<?xml version="1.0" encoding="UTF-8" standalone="no"?>
<svg xmlns:dc="http://purl.org/dc/elements/1.1/" xmlns:cc="http://creativecommons.org/ns#" xmlns:rdf="http://www.w3.org/1999/02/22-rdf-syntax-ns#" xmlns:svg="http://www.w3.org/2000/svg" xmlns="http://www.w3.org/2000/svg" viewBox="0 0 145.97737 124.69602" height="124.69598" width="145.97739" xml:space="preserve" id="svg2" version="1.1"><metadata id="metadata8"><rdf:RDF><cc:Work rdf:about=""><dc:format>image/svg+xml</dc:format><dc:type rdf:resource="http://purl.org/dc/dcmitype/StillImage"/><dc:title/></cc:Work></rdf:RDF></metadata><defs id="defs6"/><g transform="matrix(1.3333333,0,0,-1.3333333,-27.410945,233.54452)" id="g10"><g id="g5231" transform="matrix(1.8,0,0,1.8,-38.999168,26.575361)"><g id="g5233" transform="scale(0.1)"><g id="g5429"><g id="g6340" transform="matrix(10,0,0,10,2808.6733,40.969493)"><g id="g6342" transform="scale(0.1)"><g id="g8716" transform="matrix(10,0,0,10,-2034.4756,-86.018473)"><g id="g8718" transform="scale(0.1)"><g id="g9430" transform="matrix(10,0,0,10,-451.99005,348.777)"><g id="g9432" transform="scale(0.1)"><path d="m 35.5,127.5 -6,-3.5 v 202 l 6,-3.5 z" style="fill:#000000;fill-opacity:1;fill-rule:nonzero;stroke:none" id="path9434"/><path d="m 65.5,146.5 h 6 v 157 h -6 z" style="fill:#000000;fill-opacity:1;fill-rule:nonzero;stroke:none" id="path9436"/><path d="m 204.5,30 v -7 l -175,101 6,3.5 z" style="fill:#000000;fill-opacity:1;fill-rule:nonzero;stroke:none" id="path9438"/><path d="M 373,127.5 379,124 204.5,23 v 7 z" style="fill:#000000;fill-opacity:1;fill-rule:nonzero;stroke:none" id="path9440"/><path d="m 339,149 3,-5 -136,-79 -3,5.5 z" style="fill:#000000;fill-opacity:1;fill-rule:nonzero;stroke:none" id="path9442"/><path d="m 373,322.5 3,1.5 3,-1.5 V 124 l -6,3.5" style="fill:#000000;fill-opacity:1;fill-rule:nonzero;stroke:none" id="path9444"/><path d="m 204.5,420 v 7 L 376,327.5 V 324 l -3,-1.5" style="fill:#000000;fill-opacity:1;fill-rule:nonzero;stroke:none" id="path9446"/><path d="m 203,379.5 3,5.5 136,-79 -3,-5 z" style="fill:#000000;fill-opacity:1;fill-rule:nonzero;stroke:none" id="path9448"/><path d="m 35.5,322.5 -6,3.5 175,101 v -7 z" style="fill:#000000;fill-opacity:1;fill-rule:nonzero;stroke:none" id="path9450"/><path d="m 546,426 3,-5.5 -170,-98 -3,1.5 v 3.5" style="fill:#000000;fill-opacity:1;fill-rule:nonzero;stroke:none" id="path9452"/><path d="m 593.5,353.5 c -1.5,2.5 -4.5,3.5 -6.5,2 -2.5,-1.5 -5.5,-0.5 -7,1.5 -1.5,2.5 -0.5,5.5 2,7 2.5,1 3,4 2,6.5 -1.5,2.5 -4.5,3 -7,2 -2.5,-1.5 -5.5,-1 -6.5,1.5 -1.5,2.5 -0.5,5.5 1.5,6.5 2.5,1.5 3.5,4.5 2,7 -1,2 -4,3 -6.5,1.5 -2.5,-1.5 -5.5,-0.5 -7,2 -1,2 -0.5,5 2,6.5 2.5,1.5 3.5,4.5 2,6.5 -1.5,2.5 -4.5,3.5 -7,2 -2,-1.5 -5.5,-0.5 -6.5,1.5 -1.5,2.5 -0.5,5.5 2,7 2,1.5 3,4.5 1.5,6.5 -1,2.5 -4,3 -6.5,2 -2.5,-1.5 -5.5,-1 -7,1.5 -1,2.5 -0.5,5.5 2,6.5 2.5,1.5 3.5,4.5 2,7 -1.5,2 -4.5,3 -7,1.5 -2,-1.5 -5,-0.5 -6.5,2 -1.5,2 -0.5,5 2,6.5 2,1.5 3,4.5 2,7 -1.5,2 -4.5,3 -7,1.5 -2.5,-1.5 -5.5,-0.5 -7,1.5 -1,2.5 -0.5,5.5 2,7 2.5,1.5 3.5,4.5 2,6.5 -1.5,2.5 -4.5,3 -6.5,2 -2.5,-1.5 -5.5,-1 -7,1.5 -1.5,2.5 -0.5,5.5 2,6.5 2.5,1.5 3,4.5 2,7 -1.5,2.5 -4.5,3 -7,1.5 -2.5,-1 -5.5,-0.5 -6.5,2 -1.5,2 -0.5,5 1.5,6.5" style="fill:none;stroke:#000000;stroke-width:5.99989986;stroke-linecap:butt;stroke-linejoin:miter;stroke-miterlimit:4;stroke-dasharray:none;stroke-opacity:1" id="path9454"/></g></g></g></g></g></g></g></g></g></g></svg>