<?xml version="1.0" encoding="UTF-8" standalone="no"?>
<!-- Generator: Adobe Illustrator 12.0.1, SVG Export Plug-In . SVG Version: 6.00 Build 51448)  -->
<svg xmlns:dc="http://purl.org/dc/elements/1.1/" xmlns:cc="http://web.resource.org/cc/" xmlns:rdf="http://www.w3.org/1999/02/22-rdf-syntax-ns#" xmlns:svg="http://www.w3.org/2000/svg" xmlns="http://www.w3.org/2000/svg" xmlns:sodipodi="http://sodipodi.sourceforge.net/DTD/sodipodi-0.dtd" xmlns:inkscape="http://www.inkscape.org/namespaces/inkscape" version="1.1" id="Layer_1" width="128.608" height="136.781" viewBox="0 0 128.608 136.781" style="overflow:visible;enable-background:new 0 0 128.608 136.781;" xml:space="preserve" sodipodi:version="0.32" inkscape:version="0.45.1" sodipodi:docname="Resorcin.svg" inkscape:output_extension="org.inkscape.output.svg.inkscape" sodipodi:docbase="C:\"><metadata id="metadata40"><rdf:RDF><cc:Work rdf:about=""><dc:format>image/svg+xml</dc:format><dc:type rdf:resource="http://purl.org/dc/dcmitype/StillImage"/></cc:Work></rdf:RDF></metadata><defs id="defs38"/><sodipodi:namedview inkscape:window-height="579" inkscape:window-width="801" inkscape:pageshadow="2" inkscape:pageopacity="0.0" guidetolerance="10.0" gridtolerance="10.0" objecttolerance="10.0" borderopacity="1.0" bordercolor="#666666" pagecolor="#ffffff" id="base" inkscape:zoom="2.7635416" inkscape:cx="64.304001" inkscape:cy="68.390503" inkscape:window-x="176" inkscape:window-y="176" inkscape:current-layer="Layer_1"/>
<path style="fill:#231f20" d="M 4.8302,104.81685 L 3.2152,105.7203 L 3.2152,67.10185 L 4.8302,68.05185 L 4.8302,104.81685 z " id="polygon3"/>
<path style="fill:#231f20" d="M 8.8676998,70.854351 L 10.4827,70.854351 L 10.4827,102.01435 L 8.8676998,102.01435 L 8.8676998,70.854351 z " id="rect5"/>
<path style="fill:#231f20" d="M 36.7027,123.19935 L 36.7027,125.05185 L 3.2152,105.7203 L 4.8302,104.81685 L 36.7027,123.19935 z " id="polygon7"/>
<path style="fill:#231f20" d="M 68.5277,104.81685 L 69.3352,105.29185 L 69.3352,106.1953 L 36.7027,125.05185 L 36.7027,123.19935 L 68.5277,104.81685 z " id="polygon9"/>
<path style="fill:#231f20" d="M 63.3027,101.30185 L 64.1102,102.72685 L 37.0827,118.3078 L 36.2752,116.8828 L 63.3027,101.30185 z " id="polygon11"/>
<path style="fill:#231f20" d="M 68.5277,68.05185 L 70.14175,67.10185 L 70.14175,104.81685 L 69.3352,105.29185 L 68.5277,104.81685 L 68.5277,68.05185 z " id="polygon13"/>
<path style="fill:#231f20" d="M 36.7027,49.6703 L 36.7027,48.7203 L 37.5102,48.2453 L 70.14175,67.10185 L 68.5277,68.05185 L 36.7027,49.6703 z " id="polygon15"/>
<path style="fill:#231f20" d="M 36.2752,55.93935 L 37.0827,54.56185 L 64.1102,70.14185 L 63.3027,71.5203 L 36.2752,55.93935 z " id="polygon17"/>
<path style="fill:#231f20" d="M 4.8302,68.05185 L 3.2152,67.10185 L 35.8952,48.2453 L 36.7027,48.7203 L 36.7027,49.6703 L 4.8302,68.05185 z " id="polygon19"/>
<g id="g21" transform="matrix(0.95,0,0,0.95,3.2152,3.41955)">
	<path style="fill:#231f20" d="M 27.006,9.119 C 27.006,6.266 27.772,4.034 29.304,2.421 C 30.836,0.807 32.813,0 35.236,0 C 36.823,0 38.253,0.379 39.527,1.137 C 40.801,1.896 41.772,2.952 42.441,4.308 C 43.11,5.664 43.443,7.202 43.443,8.92 C 43.443,10.663 43.091,12.222 42.388,13.597 C 41.685,14.972 40.688,16.014 39.398,16.721 C 38.108,17.428 36.717,17.782 35.224,17.782 C 33.606,17.782 32.16,17.391 30.886,16.61 C 29.612,15.829 28.647,14.761 27.99,13.41 C 27.333,12.059 27.006,10.628 27.006,9.119 z M 29.35,9.148 C 29.35,11.218 29.907,12.849 31.021,14.041 C 32.135,15.233 33.533,15.828 35.213,15.828 C 36.925,15.828 38.334,15.226 39.441,14.023 C 40.547,12.82 41.1,11.113 41.1,8.902 C 41.1,7.504 40.864,6.283 40.391,5.24 C 39.918,4.197 39.226,3.388 38.315,2.814 C 37.404,2.24 36.382,1.953 35.249,1.953 C 33.639,1.953 32.253,2.506 31.092,3.611 C 29.931,4.716 29.35,6.563 29.35,9.148 z " id="path23"/>
	<path style="fill:#231f20" d="M 46.455,17.484 L 46.455,0.297 L 48.736,0.297 L 48.736,7.36 L 57.627,7.36 L 57.627,0.297 L 59.908,0.297 L 59.908,17.485 L 57.627,17.485 L 57.627,9.391 L 48.736,9.391 L 48.736,17.485 L 46.455,17.485 L 46.455,17.484 z " id="path25"/>
</g>
<path style="fill:#231f20" d="M 35.8952,22.40435 L 37.5102,22.40435 L 37.5102,48.2453 L 36.7027,48.7203 L 35.8952,48.2453 L 35.8952,22.40435 z " id="polygon27"/>
<g id="g29" transform="matrix(0.95,0,0,0.95,3.2152,3.41955)">
	<path style="fill:#231f20" d="M 95.706,128.119 C 95.706,125.266 96.472,123.034 98.004,121.421 C 99.536,119.807 101.514,119 103.937,119 C 105.524,119 106.954,119.379 108.228,120.137 C 109.502,120.896 110.473,121.952 111.141,123.308 C 111.81,124.663 112.144,126.202 112.144,127.92 C 112.144,129.663 111.792,131.222 111.088,132.597 C 110.385,133.972 109.389,135.014 108.099,135.721 C 106.809,136.428 105.418,136.782 103.925,136.782 C 102.307,136.782 100.861,136.391 99.587,135.61 C 98.313,134.829 97.348,133.761 96.691,132.41 C 96.034,131.058 95.706,129.628 95.706,128.119 z M 98.05,128.148 C 98.05,130.218 98.607,131.849 99.721,133.041 C 100.835,134.233 102.233,134.828 103.913,134.828 C 105.625,134.828 107.034,134.226 108.141,133.023 C 109.246,131.82 109.8,130.113 109.8,127.902 C 109.8,126.504 109.564,125.283 109.09,124.24 C 108.617,123.197 107.926,122.388 107.015,121.814 C 106.104,121.24 105.082,120.953 103.949,120.953 C 102.339,120.953 100.953,121.506 99.792,122.611 C 98.631,123.716 98.05,125.563 98.05,128.148 z " id="path31"/>
	<path style="fill:#231f20" d="M 115.155,136.484 L 115.155,119.296 L 117.436,119.296 L 117.436,126.359 L 126.327,126.359 L 126.327,119.296 L 128.608,119.296 L 128.608,136.484 L 126.327,136.484 L 126.327,128.39 L 117.436,128.39 L 117.436,136.484 L 115.155,136.484 z " id="path33"/>
</g>
<path style="fill:#231f20" d="M 93.7502,118.44935 L 92.94175,119.82685 L 69.3352,106.1953 L 69.3352,105.29185 L 70.14175,104.81685 L 93.7502,118.44935 z " id="polygon35"/>
</svg>