<?xml version="1.0" encoding="UTF-8" standalone="no"?>
<svg
   version="1.2"
   width="537.413mm"
   height="282.118mm"
   viewBox="0 0 537.413 282.118"
   id="svg7"
   sodipodi:docname="trans-2-brombut-2-en.svg"
   inkscape:version="1.4.2 (2aeb623e1d, 2025-05-12)"
   xmlns:inkscape="http://www.inkscape.org/namespaces/inkscape"
   xmlns:sodipodi="http://sodipodi.sourceforge.net/DTD/sodipodi-0.dtd"
   xmlns="http://www.w3.org/2000/svg"
   xmlns:svg="http://www.w3.org/2000/svg">
  <defs
     id="defs7" />
  <sodipodi:namedview
     id="namedview7"
     pagecolor="#ffffff"
     bordercolor="#000000"
     borderopacity="0.25"
     inkscape:showpageshadow="2"
     inkscape:pageopacity="0.0"
     inkscape:pagecheckerboard="0"
     inkscape:deskcolor="#d1d1d1"
     inkscape:document-units="mm"
     inkscape:zoom="0.15743564"
     inkscape:cx="752.68854"
     inkscape:cy="555.78268"
     inkscape:window-width="1440"
     inkscape:window-height="863"
     inkscape:window-x="0"
     inkscape:window-y="0"
     inkscape:window-maximized="1"
     inkscape:current-layer="mol1" />
  <desc
     id="desc1">Generated by the Chemistry Development Kit (http://github.com/cdk)</desc>
  <g
     stroke-linecap="round"
     stroke-linejoin="round"
     stroke="#000000"
     stroke-width="5.175"
     fill="#000000"
     id="g7">
    <g
       id="mol1"
       class="mol">
      <line
         id="mol1bnd1"
         class="bond"
         x1="125.968"
         y1="215.736"
         x2="211.998"
         y2="166.055" />
      <g
         id="mol1bnd2"
         class="bond">
        <line
           x1="325.401"
           y1="231.551"
           x2="211.998"
           y2="166.055"
           id="line1" />
        <line
           x1="325.402"
           y1="204.328"
           x2="235.573"
           y2="152.447"
           id="line2" />
      </g>
      <line
         id="mol1bnd3"
         class="bond"
         x1="325.401"
         y1="231.551"
         x2="412.002"
         y2="181.545" />
      <line
         id="mol1bnd4"
         class="bond"
         x1="211.998"
         y1="166.055"
         x2="211.998"
         y2="70.529" />
      <g
         id="mol1atm1"
         class="atom">
        <path
           d="M103.64 211.322q-8.076 -.0 -12.702 5.41q-4.626 5.41 -4.626 14.819q.0 9.33 4.313 14.818q4.312 5.41 12.936 5.41q3.293 .0 6.273 -.549q2.979 -.549 5.723 -1.411v5.488q-2.744 1.02 -5.802 1.49q-2.979 .549 -7.056 .549q-7.684 -.0 -12.859 -3.136q-5.096 -3.215 -7.683 -9.017q-2.509 -5.802 -2.509 -13.721q-.0 -7.605 2.744 -13.329q2.744 -5.802 8.154 -9.095q5.41 -3.293 13.172 -3.293q7.919 .0 13.8 2.979l-2.509 5.332q-2.274 -1.019 -5.175 -1.882q-2.823 -.862 -6.194 -.862z"
           stroke="none"
           id="path2" />
        <path
           d="M48.34 256.64h-6.351v-23.365h-25.638v23.365h-6.351v-50.179h6.351v21.248h25.638v-21.248h6.351v50.179z"
           stroke="none"
           id="path3" />
        <path
           d="M73.003 248.643q-.0 3.011 -1.694 4.845q-1.693 1.788 -4.563 2.353v.188q3.622 .423 5.363 2.258q1.788 1.835 1.788 4.845q-.0 2.635 -1.223 4.705q-1.224 2.023 -3.764 3.152q-2.54 1.129 -6.539 1.129q-2.352 -.0 -4.375 -.377q-2.023 -.329 -3.905 -1.27v-3.434q1.929 .894 4.093 1.458q2.211 .518 4.234 .518q4.046 -.0 5.833 -1.6q1.788 -1.599 1.788 -4.375q.0 -2.822 -2.211 -4.046q-2.211 -1.27 -6.21 -1.27h-2.916v-3.152h2.963q3.717 .0 5.599 -1.552q1.928 -1.552 1.928 -4.14q.0 -2.164 -1.505 -3.34q-1.458 -1.223 -3.952 -1.223q-2.446 -.0 -4.187 .706q-1.74 .705 -3.434 1.787l-1.834 -2.493q1.599 -1.27 3.951 -2.211q2.399 -.941 5.457 -.941q4.705 .0 7.01 2.117q2.305 2.117 2.305 5.363z"
           stroke="none"
           id="path4" />
      </g>
      <g
         id="mol1atm4"
         class="atom">
        <path
           d="M443.887 145.826q-8.076 .0 -12.702 5.41q-4.626 5.41 -4.626 14.819q.0 9.33 4.313 14.819q4.312 5.41 12.937 5.41q3.293 -.0 6.272 -.549q2.98 -.549 5.724 -1.412v5.489q-2.744 1.019 -5.802 1.489q-2.98 .549 -7.057 .549q-7.683 .0 -12.858 -3.136q-5.097 -3.215 -7.684 -9.017q-2.509 -5.802 -2.509 -13.721q.0 -7.605 2.744 -13.328q2.744 -5.802 8.154 -9.096q5.41 -3.293 13.173 -3.293q7.919 .0 13.799 2.98l-2.509 5.331q-2.274 -1.019 -5.175 -1.881q-2.822 -.863 -6.194 -.863z"
           stroke="none"
           id="path5" />
        <path
           d="M501.856 191.145h-6.351v-23.365h-25.638v23.365h-6.351v-50.18h6.351v21.248h25.638v-21.248h6.351v50.18z"
           stroke="none"
           id="path6" />
        <path
           d="M526.519 183.147q-.0 3.011 -1.694 4.846q-1.693 1.787 -4.563 2.352v.188q3.622 .424 5.363 2.258q1.788 1.835 1.788 4.846q-.0 2.634 -1.223 4.704q-1.224 2.023 -3.764 3.152q-2.54 1.129 -6.539 1.129q-2.352 -.0 -4.375 -.376q-2.023 -.33 -3.905 -1.271v-3.434q1.929 .894 4.093 1.459q2.211 .517 4.234 .517q4.046 .0 5.833 -1.599q1.788 -1.6 1.788 -4.375q.0 -2.823 -2.211 -4.046q-2.211 -1.27 -6.21 -1.27h-2.916v-3.152h2.963q3.717 -.0 5.599 -1.553q1.928 -1.552 1.928 -4.139q.0 -2.164 -1.505 -3.341q-1.458 -1.223 -3.952 -1.223q-2.446 .0 -4.187 .706q-1.74 .706 -3.434 1.788l-1.834 -2.494q1.599 -1.27 3.951 -2.211q2.399 -.941 5.457 -.941q4.705 .0 7.01 2.117q2.305 2.117 2.305 5.363z"
           stroke="none"
           id="path7" />
      </g>
      <path
         id="mol1atm5"
         class="atom"
         d="M208.823 10.0q9.409 .0 14.191 2.823q4.862 2.744 4.862 9.643q-.0 4.391 -2.509 7.371q-2.431 2.901 -7.057 3.685v.392q3.136 .47 5.645 1.803q2.588 1.333 4.077 3.842q1.49 2.43 1.49 6.351q.0 6.821 -4.704 10.585q-4.626 3.685 -12.702 3.685h-17.641v-50.18h14.348zM210.078 31.405q6.429 -.0 8.781 -2.039q2.431 -2.117 2.431 -6.194q-.0 -4.155 -2.902 -5.959q-2.901 -1.803 -9.33 -1.803h-8.232v15.995h9.252zM200.826 36.658v18.19h10.114q6.664 .0 9.252 -2.587q2.587 -2.588 2.587 -6.822q.0 -3.92 -2.744 -6.351q-2.666 -2.43 -9.644 -2.43h-9.565zM256.838 21.839q1.098 .0 2.274 .079q1.255 .078 2.196 .313l-.785 5.724q-.94 -.235 -2.038 -.392q-1.098 -.157 -2.039 -.157q-2.901 .0 -5.41 1.647q-2.509 1.568 -4.077 4.39q-1.489 2.823 -1.489 6.665v20.072h-6.194v-37.635h5.096l.706 6.9h.235q1.882 -3.137 4.704 -5.332q2.901 -2.274 6.821 -2.274z"
         stroke="none"
         fill="#A62929" />
    </g>
  </g>
</svg>
