<svg xmlns="http://www.w3.org/2000/svg" width="161.934" height="121.184" overflow="visible" xmlns:v="https://vecta.io/nano"><path d="M4.048 57.307V40.978h2.167v6.71h8.446v-6.71h2.167v16.329h-2.167v-7.689H6.215v7.689H4.048zm13.739 1.039l1.499-.208c.174.851.467 1.466.882 1.841s.923.564 1.527.564c.715 0 1.317-.245 1.804-.734s.731-1.095.731-1.818c0-.691-.226-1.259-.68-1.707s-1.029-.672-1.728-.672c-.286 0-.641.056-1.066.167l.168-1.321.243.017a3.11 3.11 0 0 0 1.73-.5c.513-.333.77-.847.77-1.542 0-.55-.187-1.006-.561-1.366s-.857-.541-1.449-.541c-.586 0-1.075.184-1.466.553s-.642.922-.753 1.659l-1.499-.267c.183-1.009.602-1.791 1.254-2.346s1.463-.831 2.433-.831c.669 0 1.285.142 1.848.429s.993.676 1.292 1.17a3.01 3.01 0 0 1 .447 1.575c0 .528-.142 1.009-.426 1.442s-.704.777-1.261 1.034c.724.167 1.286.513 1.69 1.04s.605 1.184.605 1.974c0 1.069-.39 1.975-1.171 2.718s-1.768 1.115-2.961 1.115c-1.076 0-1.97-.319-2.681-.959s-1.12-1.47-1.22-2.486zm21.448-6.766l2.167.545c-.452 1.776-1.266 3.131-2.441 4.063s-2.613 1.399-4.31 1.399c-1.757 0-3.186-.358-4.287-1.075s-1.939-1.755-2.514-3.114-.862-2.819-.862-4.379c0-1.701.324-3.185.973-4.452s1.571-2.229 2.769-2.886 2.514-.986 3.952-.986c1.631 0 3.002.416 4.113 1.248s1.887 2.004 2.324 3.512l-2.122.501c-.378-1.187-.926-2.052-1.644-2.593s-1.624-.812-2.712-.812c-1.252 0-2.299.3-3.141.902s-1.432 1.408-1.773 2.422a9.76 9.76 0 0 0-.511 3.134c0 1.388.201 2.599.605 3.635s1.031 1.809 1.883 2.321 1.774.769 2.766.769c1.207 0 2.229-.349 3.066-1.047s1.402-1.732 1.699-3.106zm6.115 2.829l.807-1.425 22.99 13.253v.95l-.808.475-22.99-13.253z"/><path d="M69.955 67.662l-.808-.475v-.95l32.633-18.81v1.852L69.955 67.662zm56.673.555c0-2.709.728-4.831 2.183-6.364s3.334-2.299 5.636-2.299c1.508 0 2.867.36 4.076 1.08s2.133 1.724 2.768 3.012.952 2.749.952 4.381c0 1.655-.334 3.137-1.002 4.443s-1.616 2.296-2.84 2.968a8.12 8.12 0 0 1-3.965 1.008c-1.537 0-2.911-.371-4.121-1.113a7.17 7.17 0 0 1-2.751-3.04 9.21 9.21 0 0 1-.936-4.076zm2.227.028c0 1.966.529 3.516 1.587 4.648s2.386 1.698 3.982 1.698c1.626 0 2.965-.572 4.017-1.715s1.576-2.765 1.576-4.865c0-1.328-.224-2.488-.674-3.479s-1.108-1.759-1.972-2.305-1.836-.818-2.913-.818c-1.53 0-2.846.525-3.949 1.575s-1.655 2.804-1.655 5.26zm16.249 7.918V59.836h2.167v6.71h8.446v-6.71h2.167v16.329h-2.167v-7.689h-8.446v7.689h-2.167v-.001z"/><path d="M101.78 49.279v-1.852l24.51 14.107-.808 1.425-23.702-13.68zm-7.832-37.586c0-2.709.728-4.831 2.183-6.364s3.334-2.299 5.636-2.299c1.508 0 2.867.36 4.076 1.08s2.133 1.724 2.768 3.012.952 2.749.952 4.381c0 1.655-.334 3.137-1.002 4.443s-1.616 2.296-2.84 2.968a8.12 8.12 0 0 1-3.965 1.008c-1.537 0-2.911-.371-4.121-1.113a7.17 7.17 0 0 1-2.751-3.04 9.21 9.21 0 0 1-.936-4.076zm2.227.028c0 1.967.529 3.516 1.587 4.648s2.386 1.698 3.982 1.698c1.626 0 2.965-.572 4.017-1.715s1.576-2.764 1.576-4.865c0-1.328-.224-2.488-.674-3.479s-1.108-1.759-1.972-2.305-1.836-.818-2.913-.818c-1.529 0-2.846.525-3.949 1.575s-1.655 2.804-1.655 5.26zm1.947 10.341h1.614v27.929h-1.614V22.062z"/><path d="M103.822 22.062h1.614v27.929h-1.614V22.062zm-41.156 91.817V97.551h2.223l8.554 12.814V97.551h2.079v16.329h-2.223l-8.554-12.815v12.815h-2.079zm16.57 0V97.551h2.167v6.71h8.446v-6.71h2.167v16.329h-2.167v-7.689h-8.446v7.689h-2.167zm22.073 2.835v1.44h-8.104c-.011-.362.047-.71.177-1.045.207-.551.539-1.093.996-1.626s1.112-1.15 1.967-1.851c1.326-1.094 2.225-1.96 2.698-2.596s.71-1.239.71-1.808a2 2 0 0 0-.641-1.505c-.428-.409-.985-.613-1.673-.613-.728 0-1.308.218-1.744.654s-.656 1.039-.662 1.81l-1.544-.163c.105-1.154.504-2.035 1.197-2.64s1.621-.907 2.787-.907c1.177 0 2.109.326 2.795.978s1.029 1.458 1.029 2.422a3.67 3.67 0 0 1-.301 1.445c-.2.473-.535.971-1 1.495s-1.24 1.243-2.318 2.156l-1.741 1.54c-.257.271-.471.541-.639.814h6.014v.001zm-31.354-21.36H68.34V67.662l.808-.475.808.475v27.692z"/></svg>