<svg xmlns="http://www.w3.org/2000/svg" width="333.784" height="121.184" overflow="visible" xmlns:v="https://vecta.io/nano"><path d="M204.021 49.279v-1.852l32.68 18.81v.95l-.808.475-31.873-18.382z"/><path d="M237.508 67.662l-.808-.475v-.95l32.632-18.81v1.852l-31.825 18.383zm56.674.555c0-2.709.728-4.831 2.183-6.364s3.335-2.299 5.636-2.299c1.508 0 2.867.36 4.076 1.08s2.133 1.724 2.768 3.012.952 2.749.952 4.381c0 1.655-.334 3.137-1.002 4.443s-1.616 2.296-2.841 2.968a8.12 8.12 0 0 1-3.965 1.008c-1.537 0-2.911-.371-4.121-1.113a7.17 7.17 0 0 1-2.751-3.04 9.21 9.21 0 0 1-.936-4.076zm2.227.028c0 1.966.529 3.516 1.587 4.648s2.386 1.698 3.982 1.698c1.626 0 2.965-.572 4.017-1.715s1.576-2.765 1.576-4.865c0-1.328-.224-2.488-.674-3.479s-1.108-1.759-1.972-2.305-1.836-.818-2.913-.818c-1.529 0-2.846.525-3.949 1.575s-1.655 2.804-1.655 5.26zm16.25 7.918V59.836h2.167v6.71h8.446v-6.71h2.167v16.329h-2.167v-7.689h-8.446v7.689h-2.167v-.001z"/><path d="M269.333 49.279v-1.852l24.462 14.107-.807 1.425-23.655-13.68zm-7.831-37.586c0-2.709.728-4.831 2.184-6.364s3.335-2.299 5.635-2.299c1.509 0 2.867.36 4.076 1.08s2.134 1.724 2.768 3.012.952 2.749.952 4.381c0 1.655-.334 3.137-1.002 4.443s-1.615 2.296-2.84 2.968-2.547 1.008-3.965 1.008c-1.536 0-2.911-.371-4.121-1.113a7.17 7.17 0 0 1-2.751-3.04 9.21 9.21 0 0 1-.936-4.076zm2.227.028c0 1.967.529 3.516 1.588 4.648s2.386 1.698 3.981 1.698c1.627 0 2.965-.572 4.018-1.715s1.575-2.764 1.575-4.865c0-1.328-.224-2.488-.674-3.479s-1.107-1.759-1.972-2.305-1.835-.818-2.913-.818c-1.529 0-2.846.525-3.948 1.575s-1.656 2.804-1.656 5.26zm1.947 10.341h1.614v27.93h-1.614v-27.93z"/><path d="M271.376 22.062h1.614v27.93h-1.614v-27.93zm-41.156 91.817V97.551h2.223l8.554 12.814V97.551h2.079v16.329h-2.223l-8.554-12.815v12.815h-2.079zm16.57 0V97.551h2.167v6.71h8.446v-6.71h2.167v16.329h-2.167v-7.689h-8.446v7.689h-2.167zm22.072 2.835v1.44h-8.104a2.66 2.66 0 0 1 .177-1.045c.208-.551.54-1.093.997-1.626s1.111-1.15 1.966-1.851c1.325-1.094 2.225-1.96 2.698-2.596s.709-1.239.709-1.808a2 2 0 0 0-.641-1.505c-.427-.409-.984-.613-1.673-.613-.728 0-1.308.218-1.744.654s-.656 1.039-.662 1.81l-1.544-.163c.105-1.154.504-2.035 1.197-2.64s1.622-.907 2.787-.907c1.177 0 2.11.326 2.795.978s1.029 1.458 1.029 2.422c0 .491-.1.972-.3 1.445s-.535.971-1 1.495-1.24 1.243-2.319 2.156l-1.74 1.54a5.07 5.07 0 0 0-.64.814h6.014v.001zm-31.354-21.36h-1.615V67.662l.808-.475.808.475v27.692zm-33.487-47.927v1.852l-32.632 18.857v-1.9l32.632-18.81z"/><path d="M171.388 66.237v1.9L138.756 49.28v-1.852l32.632 18.81zm-71.746 9.926V59.836h2.223l8.554 12.814V59.836h2.079v16.329h-2.223l-8.554-12.815v12.815h-2.079v-.001zm.104 18.954V78.788h2.167v6.71h8.446v-6.71h2.167v16.329h-2.167v-7.689h-8.446v7.689h-2.167z"/><path d="M138.756 47.427v1.852l-22.563 13.015-.807-1.425 23.37-13.442zM96.718 60.869l-.808 1.377-22.467-12.967v-1.852l23.275 13.442zM8.345 76.163V59.836h2.167v6.71h8.446v-6.71h2.167v16.329h-2.167v-7.689h-8.446v7.689H8.345v-.001zM29.98 79v1.44h-8.104c-.011-.362.047-.71.177-1.045.207-.551.539-1.093.996-1.626s1.111-1.15 1.967-1.851c1.326-1.094 2.225-1.96 2.698-2.596s.71-1.239.71-1.808a2 2 0 0 0-.641-1.505c-.427-.408-.985-.613-1.672-.613-.728 0-1.308.218-1.744.654s-.656 1.039-.662 1.81l-1.544-.163c.105-1.154.504-2.035 1.197-2.64s1.621-.907 2.787-.907c1.177 0 2.109.326 2.795.978s1.029 1.458 1.029 2.423a3.67 3.67 0 0 1-.301 1.445c-.2.473-.535.971-1 1.495s-1.239 1.243-2.318 2.156l-1.741 1.54c-.257.271-.471.541-.639.814h6.014V79zm1.899-2.837V59.836h2.223l8.554 12.814V59.836h2.079v16.329h-2.223L33.957 63.35v12.815h-2.078z"/><path d="M73.443 47.427v1.852L50.786 62.342l-.808-1.425 23.465-13.49zm-6.481-27.788V3.312h2.223l8.554 12.814V3.312h2.079V19.64h-2.223L69.041 6.825V19.64h-2.079zm16.57 0V3.312h2.167v6.71h8.446v-6.71h2.167V19.64h-2.167v-7.689h-8.446v7.689h-2.167v-.001z"/><path d="M69.786 21.777h1.615v28.215h-1.615V21.777zm5.652 0h1.615v28.215h-1.615V21.777z"/></svg>