<svg xmlns="http://www.w3.org/2000/svg" width="204.752" height="121.185" overflow="visible" xmlns:v="https://vecta.io/nano"><path d="M78.216 49.28v-1.853l32.68 18.81v.95l-.855.427L78.216 49.28z"/><path d="M111.751 67.614l-.855-.427v-.95l32.632-18.81v1.853l-31.777 18.334zm56.625.604c0-2.71.728-4.831 2.183-6.363s3.334-2.3 5.636-2.3c1.508 0 2.866.36 4.076 1.08s2.133 1.724 2.767 3.012.953 2.749.953 4.381c0 1.656-.334 3.137-1.003 4.443s-1.614 2.296-2.84 2.968a8.12 8.12 0 0 1-3.965 1.008c-1.537 0-2.911-.371-4.121-1.113a7.17 7.17 0 0 1-2.751-3.04c-.624-1.284-.936-2.643-.936-4.076zm2.227.028c0 1.967.529 3.516 1.587 4.648s2.386 1.698 3.982 1.698c1.626 0 2.965-.572 4.017-1.715s1.576-2.764 1.576-4.865c0-1.328-.224-2.488-.674-3.479s-1.106-1.759-1.971-2.305-1.836-.818-2.913-.818c-1.529 0-2.846.525-3.949 1.575s-1.655 2.804-1.655 5.26zm16.25 7.918V59.837h2.167v6.71h8.446v-6.71h2.167v16.329h-2.167v-7.689h-8.446v7.689h-2.167v-.001z"/><path d="M143.528 49.28v-1.853l24.463 14.108-.808 1.425-23.655-13.68zm-7.831-37.587c0-2.71.728-4.831 2.182-6.363s3.334-2.3 5.636-2.3c1.507 0 2.866.36 4.076 1.08s2.132 1.724 2.767 3.012.953 2.749.953 4.381c0 1.656-.334 3.137-1.003 4.443s-1.615 2.296-2.84 2.968-2.548 1.008-3.965 1.008c-1.538 0-2.911-.371-4.121-1.113a7.16 7.16 0 0 1-2.751-3.04c-.623-1.283-.935-2.643-.935-4.076zm2.226.028c0 1.967.529 3.516 1.586 4.648s2.386 1.698 3.983 1.698c1.625 0 2.965-.572 4.016-1.715s1.577-2.765 1.577-4.865c0-1.328-.224-2.488-.675-3.479s-1.107-1.759-1.971-2.305-1.837-.818-2.913-.818a5.53 5.53 0 0 0-3.95 1.575c-1.102 1.051-1.654 2.804-1.654 5.26zm1.948 10.342h1.615v27.93h-1.615v-27.93z"/><path d="M145.571 22.063h1.615v27.93h-1.615v-27.93zm-41.156 91.817V97.552h2.223l8.554 12.815V97.552h2.079v16.329h-2.223l-8.554-12.815v12.815h-2.079z"/><use href="#B"/><path d="M144.008 116.715v1.44h-8.104a2.62 2.62 0 0 1 .177-1.044c.207-.551.538-1.093.996-1.627s1.112-1.15 1.966-1.85c1.326-1.095 2.226-1.961 2.698-2.597s.711-1.24.711-1.808a2 2 0 0 0-.642-1.505c-.428-.409-.985-.613-1.672-.613-.728 0-1.308.218-1.744.654s-.656 1.039-.662 1.81l-1.544-.163c.105-1.155.504-2.035 1.197-2.639s1.62-.908 2.787-.908c1.176 0 2.108.326 2.794.978s1.03 1.459 1.03 2.422c0 .49-.101.972-.302 1.445s-.535.972-1 1.495-1.239 1.242-2.317 2.155l-1.742 1.542c-.257.269-.471.541-.638.813h6.014v.001zm-29.502-21.36h-7.267l2.802-27.741.855-.427.855.427 2.755 27.741zm-36.29-47.928v1.853L46.391 67.662l-1.615-.95 33.44-19.285zM5.119 49.361c0-2.71.728-4.831 2.183-6.363s3.335-2.3 5.636-2.3c1.508 0 2.866.36 4.076 1.08s2.133 1.724 2.768 3.012.952 2.749.952 4.381c0 1.656-.334 3.137-1.002 4.443s-1.615 2.296-2.84 2.968a8.12 8.12 0 0 1-3.965 1.008c-1.537 0-2.911-.371-4.121-1.113a7.17 7.17 0 0 1-2.751-3.04c-.624-1.283-.936-2.644-.936-4.076zm2.227.028c0 1.967.529 3.516 1.587 4.648s2.386 1.698 3.982 1.698c1.626 0 2.965-.572 4.017-1.715s1.576-2.764 1.576-4.865c0-1.328-.224-2.488-.674-3.479s-1.107-1.759-1.972-2.305-1.836-.818-2.913-.818c-1.53 0-2.846.525-3.949 1.575s-1.655 2.803-1.655 5.26z"/><path d="M48.813 64.86l-.807 1.377-24.748-14.249.808-1.425L48.813 64.86zm-2.85 4.892l-.807 1.425-24.7-14.297.808-1.378 24.7 14.25zm-8.212 36.181c0-2.71.728-4.831 2.183-6.363s3.334-2.3 5.636-2.3c1.508 0 2.866.36 4.076 1.08s2.133 1.724 2.768 3.012.952 2.749.952 4.381c0 1.656-.334 3.137-1.002 4.443s-1.615 2.296-2.84 2.968a8.12 8.12 0 0 1-3.965 1.008c-1.537 0-2.911-.371-4.121-1.113a7.17 7.17 0 0 1-2.751-3.04c-.624-1.283-.936-2.643-.936-4.076zm2.227.029c0 1.966.529 3.516 1.587 4.648s2.386 1.698 3.982 1.698c1.626 0 2.965-.572 4.017-1.715s1.576-2.765 1.576-4.865c0-1.328-.224-2.488-.674-3.479s-1.107-1.759-1.972-2.305-1.836-.818-2.913-.818c-1.53 0-2.846.525-3.949 1.575s-1.655 2.803-1.655 5.26z"/><use href="#B" x="-64.756"/><path d="M46.391 95.069h-1.615V66.712l1.615.95v27.408z"/><defs ><path id="B" d="M120.984 113.88V97.552h2.167v6.71h8.446v-6.71h2.167v16.329h-2.167v-7.689h-8.446v7.689h-2.167z"/></defs></svg>