<svg xmlns="http://www.w3.org/2000/svg" width="185.471" height="121.185" overflow="visible" xmlns:v="https://vecta.io/nano"><path d="M59.417 49.28v-1.853l32.68 18.81v.95l-.855.427L59.417 49.28z"/><path d="M92.951 67.614l-.854-.427v-.95l32.632-18.81v1.853L92.951 67.614zm56.626.604c0-2.71.728-4.831 2.183-6.363s3.334-2.3 5.636-2.3c1.508 0 2.866.36 4.076 1.08s2.133 1.724 2.767 3.012.953 2.749.953 4.381c0 1.656-.334 3.137-1.003 4.443s-1.614 2.296-2.84 2.968a8.12 8.12 0 0 1-3.965 1.008c-1.537 0-2.911-.371-4.121-1.113a7.17 7.17 0 0 1-2.751-3.04c-.624-1.284-.936-2.643-.936-4.076zm2.227.028c0 1.967.529 3.516 1.587 4.648s2.386 1.698 3.982 1.698c1.626 0 2.965-.572 4.017-1.715s1.576-2.764 1.576-4.865c0-1.328-.224-2.488-.674-3.479s-1.106-1.759-1.971-2.305-1.836-.818-2.913-.818c-1.53 0-2.846.525-3.949 1.575s-1.655 2.804-1.655 5.26zm16.25 7.918V59.837h2.167v6.71h8.446v-6.71h2.167v16.329h-2.167v-7.689h-8.446v7.689h-2.167v-.001z"/><path d="M124.729 49.28v-1.853l24.463 14.108-.808 1.425-23.655-13.68zm-7.832-37.587c0-2.71.728-4.831 2.182-6.363s3.335-2.3 5.637-2.3c1.507 0 2.866.36 4.076 1.08s2.132 1.724 2.767 3.012.953 2.749.953 4.381c0 1.656-.334 3.137-1.003 4.443s-1.615 2.296-2.84 2.968-2.548 1.008-3.965 1.008c-1.538 0-2.911-.371-4.121-1.113a7.16 7.16 0 0 1-2.751-3.04 9.22 9.22 0 0 1-.936-4.076zm2.227.028c0 1.967.529 3.516 1.587 4.648s2.386 1.698 3.983 1.698c1.625 0 2.965-.572 4.016-1.715s1.577-2.765 1.577-4.865c0-1.328-.224-2.488-.675-3.479s-1.107-1.759-1.971-2.305-1.837-.818-2.913-.818a5.53 5.53 0 0 0-3.95 1.575c-1.103 1.051-1.654 2.804-1.654 5.26zm1.948 10.342h1.615v27.93h-1.615v-27.93z"/><path d="M126.772 22.063h1.615v27.93h-1.615v-27.93zM85.616 113.88V97.552h2.223l8.554 12.815V97.552h2.079v16.329h-2.223l-8.554-12.815v12.815h-2.079zm16.569 0V97.552h2.167v6.71h8.446v-6.71h2.167v16.329h-2.167v-7.689h-8.446v7.689h-2.167zm23.023 2.835v1.44h-8.104a2.62 2.62 0 0 1 .177-1.044c.207-.551.538-1.093.996-1.627s1.112-1.15 1.966-1.85c1.326-1.095 2.226-1.961 2.698-2.597s.711-1.24.711-1.808a2 2 0 0 0-.642-1.505c-.428-.409-.985-.613-1.672-.613-.728 0-1.308.218-1.744.654s-.656 1.039-.662 1.81l-1.544-.163c.105-1.155.504-2.035 1.197-2.639s1.62-.908 2.787-.908c1.176 0 2.108.326 2.794.978s1.03 1.459 1.03 2.422c0 .49-.101.972-.302 1.445s-.535.972-1 1.495-1.239 1.242-2.317 2.155l-1.742 1.542c-.257.269-.471.541-.638.813h6.014v.001zm-29.501-21.36h-7.268l2.803-27.741.855-.427.854.427 2.756 27.741zM4.637 76.164V59.837h2.167v6.71h8.446v-6.71h2.167v16.329H15.25v-7.689H6.804v7.689H4.637v-.001zM20.3 70.925l2.034-.179c.097.818.321 1.489.674 2.013s.901.949 1.643 1.272 1.578.485 2.506.485c.825 0 1.552-.123 2.183-.369s1.101-.581 1.409-1.01.462-.894.462-1.4a2.11 2.11 0 0 0-.451-1.344c-.301-.382-.793-.704-1.476-.965-.438-.171-1.408-.437-2.909-.798s-2.552-.7-3.152-1.019c-.779-.409-1.359-.916-1.741-1.522s-.573-1.283-.573-2.035c0-.824.234-1.595.702-2.312s1.151-1.262 2.05-1.633 1.898-.558 2.997-.558c1.21 0 2.278.196 3.203.585s1.637.965 2.134 1.722.766 1.617.803 2.575l-2.079.163c-.111-1.038-.489-1.821-1.131-2.352s-1.589-.791-2.844-.791c-1.307 0-2.261.24-2.859.72s-.897 1.057-.897 1.734c0 .588.212 1.072.636 1.45.416.379 1.502.769 3.259 1.167s2.963.746 3.618 1.043c.952.438 1.655.993 2.109 1.665s.681 1.446.681 2.323c0 .869-.249 1.687-.746 2.457s-1.211 1.366-2.142 1.794-1.98.641-3.144.641c-1.477 0-2.714-.216-3.712-.646s-1.781-1.078-2.348-1.943a5.53 5.53 0 0 1-.898-2.934zm14.987-7.727l-.807-1.378 24.938-14.393v1.853l-24.13 13.918z"/></svg>