<svg xmlns="http://www.w3.org/2000/svg" width="100.23" height="121.184" overflow="visible" xmlns:v="https://vecta.io/nano"><path d="M9.794 67.662l-1.615-.95 33.44-19.285v1.852L9.794 67.662zm56.673.556c0-2.709.728-4.831 2.183-6.364s3.334-2.299 5.636-2.299c1.508 0 2.867.36 4.076 1.08s2.133 1.724 2.768 3.012.952 2.749.952 4.381c0 1.655-.334 3.137-1.002 4.443s-1.616 2.296-2.84 2.968a8.12 8.12 0 0 1-3.965 1.008c-1.537 0-2.911-.371-4.121-1.113a7.17 7.17 0 0 1-2.751-3.04 9.21 9.21 0 0 1-.936-4.076zm2.227.028c0 1.967.529 3.516 1.587 4.648s2.386 1.698 3.982 1.698c1.626 0 2.965-.572 4.017-1.715s1.576-2.764 1.576-4.865c0-1.328-.224-2.488-.674-3.479s-1.108-1.759-1.972-2.305-1.836-.818-2.913-.818c-1.529 0-2.846.525-3.949 1.575s-1.655 2.804-1.655 5.26zm16.25 7.918V59.837h2.167v6.71h8.446v-6.71h2.167v16.329h-2.167v-7.689h-8.446v7.689h-2.167v-.001z"/><path d="M41.619 49.279v-1.852l24.463 14.107-.807 1.425-23.655-13.68zm-7.832-37.586c0-2.709.728-4.831 2.183-6.364s3.334-2.299 5.636-2.299c1.508 0 2.866.36 4.076 1.08s2.133 1.724 2.768 3.012.952 2.749.952 4.381c0 1.655-.334 3.137-1.002 4.443s-1.615 2.296-2.84 2.968a8.12 8.12 0 0 1-3.965 1.008c-1.537 0-2.911-.371-4.121-1.113a7.17 7.17 0 0 1-2.751-3.04 9.21 9.21 0 0 1-.936-4.076zm2.227.028c0 1.967.529 3.516 1.587 4.648s2.386 1.698 3.982 1.698c1.626 0 2.965-.572 4.017-1.715s1.576-2.764 1.576-4.865c0-1.328-.224-2.488-.674-3.479s-1.107-1.759-1.972-2.305-1.836-.818-2.913-.818c-1.529 0-2.846.525-3.949 1.575s-1.655 2.804-1.655 5.26zm1.948 10.341h1.615v27.93h-1.615v-27.93z"/><path d="M43.662 22.062h1.615v27.93h-1.615v-27.93zM2.506 113.879V97.551h2.223l8.554 12.814V97.551h2.079v16.329h-2.223l-8.554-12.815v12.815H2.506zm16.569 0V97.551h2.167v6.71h8.446v-6.71h2.167v16.329h-2.167v-7.689h-8.446v7.689h-2.167zm22.073 2.835v1.44h-8.104c-.011-.362.047-.71.177-1.045.207-.551.539-1.093.996-1.626s1.111-1.15 1.967-1.851c1.326-1.094 2.225-1.96 2.698-2.596s.71-1.239.71-1.808a2 2 0 0 0-.641-1.505c-.427-.409-.985-.613-1.672-.613-.728 0-1.308.218-1.744.654s-.656 1.039-.662 1.81l-1.544-.163c.105-1.154.504-2.035 1.197-2.64s1.621-.907 2.787-.907c1.177 0 2.109.326 2.795.978s1.029 1.458 1.029 2.422a3.67 3.67 0 0 1-.301 1.445c-.2.473-.535.971-1 1.495s-1.239 1.243-2.318 2.156l-1.741 1.54c-.257.271-.471.541-.639.814h6.014v.001zM9.794 95.402H8.179v-28.69l1.615.95v27.74z"/></svg>