<svg xmlns="http://www.w3.org/2000/svg" width="231.546" height="121.185" overflow="visible" xmlns:v="https://vecta.io/nano"><path d="M104.339 49.28v-1.853l32.681 18.81v.95l-.856.427-31.825-18.334z"/><path d="M137.874 67.614l-.854-.427v-.95l32.632-18.81v1.853l-31.778 18.334zm56.626.604c0-2.71.728-4.831 2.183-6.363s3.334-2.3 5.636-2.3c1.508 0 2.866.36 4.076 1.08s2.133 1.724 2.767 3.012.953 2.749.953 4.381c0 1.656-.334 3.137-1.003 4.443s-1.614 2.296-2.84 2.968a8.12 8.12 0 0 1-3.965 1.008c-1.537 0-2.911-.371-4.121-1.113a7.17 7.17 0 0 1-2.751-3.04c-.624-1.284-.936-2.643-.936-4.076zm2.226.028c0 1.967.529 3.516 1.587 4.648s2.386 1.698 3.982 1.698c1.626 0 2.965-.572 4.017-1.715s1.576-2.764 1.576-4.865c0-1.328-.224-2.488-.674-3.479s-1.106-1.759-1.971-2.305-1.836-.818-2.913-.818c-1.529 0-2.846.525-3.949 1.575s-1.655 2.804-1.655 5.26zm16.251 7.918V59.837h2.167v6.71h8.446v-6.71h2.167v16.329h-2.167v-7.689h-8.446v7.689h-2.167v-.001z"/><path d="M169.651 49.28v-1.853l24.463 14.108-.807 1.426-23.656-13.68zm-7.831-37.587c0-2.71.728-4.831 2.182-6.363s3.334-2.3 5.637-2.3c1.507 0 2.866.36 4.076 1.08s2.132 1.724 2.767 3.012.953 2.749.953 4.381c0 1.656-.334 3.137-1.003 4.443s-1.615 2.296-2.84 2.968-2.548 1.008-3.965 1.008c-1.538 0-2.911-.371-4.121-1.113a7.16 7.16 0 0 1-2.751-3.04 9.22 9.22 0 0 1-.936-4.076zm2.227.028c0 1.967.529 3.516 1.587 4.648s2.386 1.698 3.983 1.698c1.625 0 2.965-.572 4.016-1.715s1.577-2.765 1.577-4.865c0-1.328-.224-2.488-.675-3.479s-1.107-1.759-1.971-2.305-1.837-.818-2.913-.818a5.53 5.53 0 0 0-3.95 1.575c-1.103 1.051-1.654 2.804-1.654 5.26zm1.948 10.342h1.615v27.93h-1.615v-27.93z"/><path d="M171.695 22.063h1.615v27.93h-1.615v-27.93zm-41.157 91.817V97.552h2.223l8.554 12.815V97.552h2.079v16.329h-2.223l-8.554-12.815v12.815h-2.079zm16.57 0V97.552h2.167v6.71h8.446v-6.71h2.167v16.329h-2.167v-7.689h-8.446v7.689h-2.167zm23.023 2.835v1.44h-8.104a2.62 2.62 0 0 1 .177-1.044c.207-.551.538-1.093.996-1.627s1.112-1.15 1.966-1.85c1.326-1.095 2.226-1.961 2.698-2.597s.711-1.24.711-1.808a2 2 0 0 0-.642-1.505c-.427-.409-.985-.613-1.672-.613-.728 0-1.308.218-1.744.654s-.656 1.039-.662 1.81l-1.544-.163c.105-1.155.504-2.035 1.197-2.639s1.62-.908 2.787-.908c1.176 0 2.108.326 2.794.978s1.03 1.459 1.03 2.422c0 .49-.101.972-.302 1.445s-.535.972-1 1.495-1.239 1.242-2.317 2.155l-1.742 1.542c-.257.269-.471.541-.638.813h6.014v.001zm-29.501-21.36h-7.268l2.803-27.741.856-.427.854.427 2.756 27.741zm-36.291-47.928v1.853L71.707 68.137v-1.9l32.632-18.81zm-98.55 9.881V40.979h2.167v6.71h8.446v-6.71h2.167v16.329h-2.167v-7.689H7.956v7.689H5.789h0zm14.688 1.039l1.499-.208c.174.851.467 1.465.882 1.841s.923.563 1.527.563c.715 0 1.317-.245 1.804-.733s.731-1.096.731-1.82c0-.69-.226-1.258-.68-1.706s-1.029-.672-1.728-.672c-.286 0-.641.056-1.066.167l.168-1.321.243.017a3.1 3.1 0 0 0 1.73-.5c.513-.334.77-.847.77-1.542 0-.55-.187-1.006-.561-1.366s-.857-.541-1.449-.541c-.586 0-1.075.184-1.466.553s-.642.921-.753 1.659l-1.499-.267c.183-1.009.602-1.791 1.254-2.345s1.463-.832 2.433-.832c.669 0 1.285.142 1.848.429s.993.676 1.292 1.17a3.01 3.01 0 0 1 .447 1.575c0 .528-.142 1.009-.426 1.442s-.704.777-1.261 1.034c.724.167 1.286.514 1.69 1.039s.605 1.185.605 1.975c0 1.07-.39 1.975-1.171 2.718s-1.768 1.115-2.961 1.115c-1.076 0-1.97-.32-2.681-.959s-1.119-1.469-1.22-2.486zm21.449-6.766l2.167.545c-.452 1.777-1.266 3.131-2.441 4.063s-2.612 1.399-4.31 1.399c-1.758 0-3.186-.358-4.287-1.075s-1.939-1.756-2.514-3.114-.862-2.82-.862-4.379c0-1.7.324-3.185.973-4.452s1.571-2.23 2.769-2.886 2.514-.986 3.952-.986c1.631 0 3.002.416 4.113 1.248s1.887 2.003 2.324 3.512l-2.122.501c-.378-1.187-.926-2.052-1.644-2.594s-1.624-.812-2.712-.812c-1.252 0-2.299.3-3.141.902s-1.432 1.408-1.773 2.422a9.76 9.76 0 0 0-.511 3.134c0 1.388.201 2.599.605 3.635s1.031 1.809 1.883 2.321 1.774.769 2.766.769c1.207 0 2.229-.349 3.066-1.047s1.402-1.732 1.699-3.106z"/><path d="M71.707 66.237v1.9l-23.75-13.728.807-1.377 22.943 13.205zm37.851-52.323l2.167.545c-.452 1.777-1.266 3.131-2.441 4.063s-2.612 1.399-4.31 1.399c-1.758 0-3.186-.358-4.287-1.075s-1.939-1.756-2.514-3.114-.862-2.82-.862-4.379c0-1.7.324-3.185.973-4.452s1.571-2.23 2.769-2.886 2.514-.986 3.952-.986c1.631 0 3.002.416 4.114 1.248s1.887 2.003 2.324 3.512l-2.122.501c-.378-1.187-.926-2.052-1.644-2.594s-1.624-.812-2.712-.812c-1.252 0-2.299.3-3.141.902s-1.432 1.408-1.773 2.422a9.76 9.76 0 0 0-.511 3.134c0 1.388.201 2.599.605 3.635s1.031 1.809 1.883 2.321 1.774.769 2.766.769c1.207 0 2.229-.349 3.066-1.047s1.402-1.733 1.699-3.106zm4.917 5.725V3.312h2.167v6.71h8.445v-6.71h2.167V19.64h-2.167v-7.689h-8.445v7.689h-2.167v-.001zm14.298 1.04l1.499-.208c.174.851.467 1.465.882 1.841s.924.563 1.527.563c.715 0 1.318-.245 1.803-.733s.732-1.096.732-1.82c0-.69-.226-1.258-.68-1.706s-1.029-.672-1.728-.672c-.286 0-.641.056-1.066.167l.168-1.321.243.017a3.1 3.1 0 0 0 1.73-.5c.513-.334.769-.847.769-1.542 0-.55-.187-1.006-.561-1.366s-.857-.541-1.449-.541c-.586 0-1.075.184-1.467.553s-.642.922-.753 1.659l-1.499-.267c.183-1.009.602-1.791 1.254-2.345s1.462-.832 2.433-.832a4.02 4.02 0 0 1 1.848.429c.563.286.993.676 1.291 1.17a3.01 3.01 0 0 1 .447 1.575c0 .528-.142 1.009-.426 1.442s-.704.777-1.261 1.034c.724.167 1.286.514 1.69 1.039s.605 1.185.605 1.975c0 1.07-.39 1.975-1.17 2.718s-1.768 1.115-2.961 1.115c-1.076 0-1.97-.32-2.681-.959s-1.118-1.469-1.219-2.486zm-28.043 1.335h7.267l-.237 1.616h-6.84l-.19-1.616zm.521 4.133h6.222l-.237 1.616h-5.794l-.191-1.616zm.523 4.133h5.178l-.237 1.614h-4.75l-.19-1.614zm.523 4.132h4.132l-.237 1.615h-3.706l-.189-1.615zm.523 4.132h3.088l-.238 1.615h-2.66l-.19-1.615zm.522 4.133h2.042l-.237 1.616h-1.615l-.19-1.616z"/></svg>