<svg xmlns="http://www.w3.org/2000/svg" width="272" height="168" viewBox="0 0 204 126" xmlns:v="https://vecta.io/nano"><g fill="#161413"><path d="M41.137 107.749h-1.642V70.294l.822-.478.821.478v37.454z"/><path d="M73.497 49.915v1.866L41.138 70.294l-.821-.478v-.957l33.18-18.944z"/><path d="M6.75 51.542l.821-1.387L40.317 68.86v.957l-.822.478L6.75 51.542zm99.927 17.317v.957l-.868.43-32.312-18.464v-1.866l33.18 18.944z"/><path d="M113.25 99.956h-2.04v13.685l-8.833-13.685h-2.341v16.739h2.04v-13.57l8.74 13.57h2.434V99.956zm14.702 9.116v7.623h2.156V99.956h-2.156v7.233h-8.694v-7.233h-2.156v16.739h2.179v-7.623h8.67zm12.687 10.429h-6.485c.156-.999.713-1.636 2.226-2.514l1.739-.93c1.721-.93 2.608-2.187 2.608-3.685 0-1.016-.417-1.963-1.148-2.618s-1.634-.964-2.799-.964c-1.565 0-2.73.551-3.408 1.584-.435.654-.626 1.412-.661 2.652h1.53c.052-.827.156-1.326.365-1.722.4-.74 1.2-1.188 2.121-1.188 1.391 0 2.434.982 2.434 2.29 0 .964-.574 1.791-1.669 2.411l-1.6.895c-2.573 1.447-3.321 2.6-3.46 5.287h8.207v-1.498z" fill-rule="evenodd"/><path d="M110.349 98.182h-7.39l2.85-27.936.868-.43.822.43 2.85 27.936z"/><path d="M139.81 49.915v1.866l-32.311 18.464-.822-.43v-.957l33.133-18.944z"/><use href="#B" fill-rule="evenodd"/><path d="M136.138 24.372h1.642v28.127h-1.642V24.372zm5.748 0h1.643v28.127h-1.643V24.372z"/><g fill-rule="evenodd"><use href="#B" x="33.084" y="56.924"/><path d="M194.844 71.282v7.623H197V62.166h-2.156v7.233h-8.694v-7.233h-2.156v16.739h2.179v-7.623h8.67z"/></g><path d="M164.634 64.123l-.82 1.387-24.004-13.729v-1.866l24.824 14.208z"/></g><defs ><path id="B" d="M139.893 4.966c-4.845 0-8.137 3.536-8.137 8.771s3.292 8.771 8.16 8.771c2.04 0 3.872-.62 5.239-1.768 1.831-1.539 2.921-4.133 2.921-6.865 0-5.396-3.222-8.909-8.184-8.909zm0 1.883c3.663 0 6.028 2.756 6.028 6.981 0 4.041-2.434 6.796-6.004 6.796-3.593 0-6.004-2.755-6.004-6.889s2.411-6.889 5.981-6.889z"/></defs></svg>