<svg xmlns="http://www.w3.org/2000/svg" width="300.296" height="121.185" overflow="visible" xmlns:v="https://vecta.io/nano"><path d="M171.37 49.28v-1.853l32.68 18.81v.95l-.855.427L171.37 49.28z"/><path d="M204.905 67.614l-.855-.427v-.95l32.632-18.81v1.853l-31.778 18.334zm56.627.604c0-2.71.728-4.831 2.183-6.363s3.334-2.3 5.636-2.3c1.508 0 2.866.36 4.076 1.08s2.133 1.724 2.767 3.012.953 2.749.953 4.381c0 1.656-.334 3.137-1.003 4.443s-1.614 2.296-2.84 2.968a8.12 8.12 0 0 1-3.965 1.008c-1.537 0-2.911-.371-4.121-1.113a7.17 7.17 0 0 1-2.751-3.04c-.624-1.284-.936-2.643-.936-4.076zm2.226.028c0 1.967.529 3.516 1.587 4.648s2.386 1.698 3.982 1.698c1.626 0 2.965-.572 4.017-1.715s1.576-2.764 1.576-4.865c0-1.328-.224-2.488-.675-3.479s-1.106-1.759-1.971-2.305-1.836-.818-2.913-.818c-1.529 0-2.846.525-3.949 1.575s-1.655 2.804-1.655 5.26zm16.25 7.918V59.837h2.167v6.71h8.446v-6.71h2.167v16.329h-2.167v-7.689h-8.446v7.689h-2.167v-.001z"/><path d="M236.683 49.28v-1.853l24.463 14.108-.808 1.425-23.655-13.679zm-7.831-37.587c0-2.71.728-4.831 2.182-6.363s3.334-2.3 5.637-2.3c1.507 0 2.866.36 4.076 1.08s2.132 1.724 2.767 3.012.953 2.749.953 4.381c0 1.656-.334 3.137-1.003 4.443s-1.615 2.296-2.84 2.968-2.548 1.008-3.965 1.008c-1.538 0-2.911-.371-4.121-1.113a7.16 7.16 0 0 1-2.751-3.04 9.22 9.22 0 0 1-.936-4.076zm2.227.028c0 1.967.529 3.516 1.587 4.648s2.386 1.698 3.983 1.698c1.625 0 2.965-.572 4.016-1.715s1.577-2.765 1.577-4.865c0-1.328-.224-2.488-.675-3.479s-1.107-1.759-1.971-2.305-1.837-.818-2.913-.818a5.53 5.53 0 0 0-3.95 1.575c-1.103 1.051-1.654 2.804-1.654 5.26zm1.946 10.342h1.616v27.93h-1.616v-27.93z"/><path d="M238.725 22.063h1.616v27.93h-1.616v-27.93zm-41.156 91.817V97.552h2.223l8.554 12.815V97.552h2.079v16.329h-2.223l-8.554-12.815v12.815h-2.079zm16.57 0V97.552h2.167v6.71h8.446v-6.71h2.167v16.329h-2.167v-7.689h-8.446v7.689h-2.167zm23.023 2.835v1.44h-8.104a2.62 2.62 0 0 1 .177-1.044c.207-.551.538-1.093.996-1.627s1.112-1.15 1.966-1.85c1.326-1.095 2.226-1.961 2.698-2.597s.711-1.24.711-1.808a2 2 0 0 0-.642-1.505c-.427-.409-.985-.613-1.672-.613-.728 0-1.308.218-1.744.654s-.656 1.039-.662 1.81l-1.544-.163c.105-1.155.504-2.035 1.197-2.639s1.62-.908 2.787-.908c1.176 0 2.108.326 2.794.978s1.03 1.459 1.03 2.422c0 .49-.101.972-.302 1.445s-.535.972-1 1.495-1.239 1.242-2.317 2.155l-1.742 1.542c-.257.269-.471.541-.638.813h6.014v.001zm-29.501-21.36h-7.268l2.803-27.741.855-.427.855.427 2.756 27.741zM171.37 47.427v1.853l-32.632 18.857v-1.9l32.632-18.81z"/><path d="M138.738 66.237v1.9L106.106 49.28v-1.853l32.632 18.81z"/><path d="M106.106 47.427v1.853L73.425 68.137v-1.9l32.681-18.81zM7.507 57.308V40.979h2.167v6.71h8.446v-6.71h2.167v16.329H18.12v-7.689H9.674v7.689H7.507h0zm22.586 2.835v1.44h-8.104a2.63 2.63 0 0 1 .177-1.044c.207-.551.539-1.093.996-1.627s1.111-1.15 1.967-1.85c1.326-1.095 2.225-1.961 2.698-2.597s.71-1.24.71-1.808a2 2 0 0 0-.641-1.505c-.427-.409-.985-.613-1.672-.613-.728 0-1.308.218-1.744.654s-.656 1.039-.662 1.81l-1.544-.163c.105-1.155.504-2.035 1.197-2.639s1.621-.908 2.787-.908c1.177 0 2.109.326 2.795.978s1.029 1.459 1.029 2.422a3.68 3.68 0 0 1-.301 1.445c-.2.473-.535.972-1 1.495s-1.239 1.242-2.318 2.155l-1.741 1.542a4.97 4.97 0 0 0-.639.813h6.014v.001zm1.899-2.835V40.979h2.223l8.554 12.815V40.979h2.079v16.329h-2.223L34.07 44.493v12.815h-2.078 0z"/><path d="M73.425 66.237v1.9l-23.322-13.49.808-1.425 22.514 13.015z"/></svg>