<svg xmlns="http://www.w3.org/2000/svg" width="265.034" height="121.184" overflow="visible" xmlns:v="https://vecta.io/nano"><path d="M136.99 49.279v-1.852l32.68 18.81v.95l-.808.475-31.873-18.382z"/><path d="M170.477 67.662l-.808-.475v-.95l32.632-18.81v1.852l-31.825 18.383zm56.673.556c0-2.709.728-4.831 2.183-6.364s3.334-2.299 5.636-2.299c1.508 0 2.867.36 4.076 1.08s2.133 1.724 2.768 3.012.952 2.749.952 4.381c0 1.655-.334 3.137-1.002 4.443s-1.616 2.296-2.84 2.968a8.12 8.12 0 0 1-3.965 1.008c-1.537 0-2.911-.371-4.121-1.113a7.17 7.17 0 0 1-2.751-3.04 9.21 9.21 0 0 1-.936-4.076zm2.227.028c0 1.967.529 3.516 1.587 4.648s2.386 1.698 3.982 1.698c1.626 0 2.965-.572 4.017-1.715s1.576-2.764 1.576-4.865c0-1.328-.224-2.488-.674-3.479s-1.108-1.759-1.972-2.305-1.836-.818-2.913-.818c-1.529 0-2.846.525-3.949 1.575s-1.655 2.804-1.655 5.26zm16.251 7.918V59.837h2.167v6.71h8.446v-6.71h2.167v16.329h-2.167v-7.689h-8.446v7.689h-2.167v-.001z"/><path d="M202.302 49.279v-1.852l24.463 14.107-.808 1.425-23.655-13.68zm-7.832-37.586c0-2.709.728-4.831 2.184-6.364s3.334-2.299 5.635-2.299c1.509 0 2.867.36 4.076 1.08s2.134 1.724 2.768 3.012.952 2.749.952 4.381c0 1.655-.334 3.137-1.002 4.443s-1.615 2.296-2.841 2.968-2.547 1.008-3.965 1.008c-1.536 0-2.911-.371-4.121-1.113a7.17 7.17 0 0 1-2.751-3.04 9.21 9.21 0 0 1-.936-4.076zm2.227.028c0 1.967.529 3.516 1.588 4.648s2.386 1.698 3.981 1.698c1.627 0 2.965-.572 4.018-1.715s1.575-2.764 1.575-4.865c0-1.328-.224-2.488-.674-3.479s-1.107-1.759-1.972-2.305-1.835-.818-2.913-.818c-1.529 0-2.846.525-3.948 1.575s-1.656 2.804-1.656 5.26zm1.948 10.341h1.614v27.93h-1.614v-27.93z"/><path d="M204.345 22.062h1.614v27.93h-1.614v-27.93zm-41.156 91.817V97.551h2.223l8.554 12.814V97.551h2.079v16.329h-2.223l-8.554-12.815v12.815h-2.079zm16.57 0V97.551h2.167v6.71h8.446v-6.71h2.167v16.329h-2.167v-7.689h-8.446v7.689h-2.167zm22.072 2.835v1.44h-8.104a2.66 2.66 0 0 1 .177-1.045c.208-.551.54-1.093.997-1.626s1.111-1.15 1.966-1.851c1.325-1.094 2.225-1.96 2.698-2.596s.709-1.239.709-1.808a2 2 0 0 0-.641-1.505c-.428-.409-.984-.613-1.673-.613-.728 0-1.308.218-1.744.654s-.656 1.039-.662 1.81l-1.544-.163c.105-1.154.504-2.035 1.197-2.64s1.622-.907 2.787-.907c1.177 0 2.11.326 2.795.978s1.029 1.458 1.029 2.422c0 .491-.1.972-.3 1.445s-.535.971-1 1.495-1.24 1.243-2.319 2.156l-1.74 1.54a5.07 5.07 0 0 0-.64.814h6.014v.001zm-31.354-21.36h-1.615V67.662l.808-.475.808.475v27.692zM136.99 47.427v1.852l-32.632 18.857v-1.9l32.632-18.81zm-71.921 4.64l2.034-.179c.097.818.321 1.489.674 2.013s.901.948 1.643 1.272 1.578.485 2.506.485c.825 0 1.552-.123 2.183-.369s1.101-.581 1.409-1.01.462-.894.462-1.4a2.11 2.11 0 0 0-.451-1.344c-.301-.383-.793-.704-1.476-.965-.438-.171-1.408-.437-2.909-.797s-2.552-.701-3.152-1.02c-.779-.409-1.359-.916-1.741-1.522s-.573-1.284-.573-2.034a4.15 4.15 0 0 1 .702-2.313c.467-.717 1.151-1.262 2.05-1.633s1.898-.558 2.997-.558c1.21 0 2.278.195 3.203.585s1.637.965 2.134 1.722.766 1.616.803 2.575l-2.079.163c-.111-1.037-.489-1.822-1.13-2.352s-1.592-.795-2.847-.795c-1.307 0-2.261.24-2.859.72s-.897 1.057-.897 1.734c0 .588.212 1.072.636 1.45.416.379 1.502.769 3.259 1.167s2.963.745 3.618 1.042c.952.439 1.655.995 2.109 1.666s.681 1.446.681 2.323c0 .869-.249 1.688-.746 2.457s-1.211 1.366-2.142 1.795-1.98.64-3.145.64c-1.477 0-2.714-.216-3.712-.646s-1.781-1.078-2.348-1.943-.865-1.838-.895-2.93z"/><path d="M104.357 66.237v1.9L80.275 54.219l.807-1.377 23.275 13.395zM6.626 76.164V59.837h2.167v6.71h8.446v-6.71h2.167v16.329h-2.167v-7.689H8.793v7.689H6.626v-.001zm13.738 1.04l1.499-.208c.174.851.467 1.466.882 1.841s.923.564 1.527.564c.715 0 1.317-.245 1.804-.734s.731-1.095.731-1.818c0-.691-.226-1.259-.68-1.707s-1.029-.672-1.728-.672c-.286 0-.641.056-1.066.167l.168-1.321.243.017a3.11 3.11 0 0 0 1.73-.5c.513-.333.77-.847.77-1.542 0-.55-.187-1.006-.561-1.366s-.857-.541-1.449-.541c-.586 0-1.075.184-1.466.553s-.642.922-.753 1.659l-1.499-.267c.183-1.009.602-1.791 1.254-2.346s1.463-.831 2.433-.831c.669 0 1.285.142 1.848.429s.993.676 1.292 1.17a3.01 3.01 0 0 1 .447 1.575c0 .528-.142 1.009-.426 1.442s-.704.777-1.261 1.034c.724.167 1.286.513 1.69 1.04s.605 1.184.605 1.974c0 1.069-.39 1.975-1.171 2.718s-1.768 1.115-2.961 1.115c-1.076 0-1.97-.319-2.681-.96s-1.119-1.47-1.22-2.486zm21.449-6.765l2.167.545c-.452 1.776-1.266 3.131-2.441 4.063s-2.613 1.399-4.31 1.399c-1.758 0-3.186-.358-4.287-1.075s-1.939-1.755-2.514-3.114-.862-2.819-.862-4.379c0-1.701.324-3.185.973-4.452s1.571-2.229 2.769-2.886 2.514-.986 3.952-.986c1.631 0 3.002.416 4.114 1.248s1.887 2.004 2.324 3.512l-2.122.501c-.378-1.187-.926-2.052-1.644-2.593s-1.624-.812-2.712-.812c-1.252 0-2.299.3-3.141.902s-1.432 1.408-1.773 2.422a9.76 9.76 0 0 0-.511 3.134c0 1.388.201 2.599.605 3.635s1.031 1.809 1.883 2.321 1.774.769 2.766.769c1.207 0 2.229-.349 3.066-1.047s1.402-1.733 1.699-3.106zm20.459-17.55l.807 1.377-15.057 8.693-.855-1.378 15.105-8.692z"/></svg>