<svg xmlns="http://www.w3.org/2000/svg" width="155.559" height="120.484" overflow="visible" xmlns:v="https://vecta.io/nano"><path d="M63.739 67.644l-.808-.475-.095-.855 32.728-18.905v1.852L63.739 67.644zm56.673.556c0-2.709.728-4.831 2.183-6.364s3.335-2.299 5.636-2.299c1.508 0 2.867.36 4.076 1.08s2.133 1.724 2.768 3.012.952 2.749.952 4.381c0 1.655-.334 3.137-1.002 4.443s-1.616 2.296-2.84 2.968a8.12 8.12 0 0 1-3.965 1.008c-1.537 0-2.911-.371-4.121-1.113a7.17 7.17 0 0 1-2.751-3.04 9.21 9.21 0 0 1-.936-4.076zm2.227.028c0 1.967.529 3.516 1.587 4.648s2.386 1.698 3.982 1.698c1.626 0 2.965-.572 4.017-1.715s1.576-2.764 1.576-4.865c0-1.328-.224-2.488-.674-3.479s-1.108-1.759-1.972-2.305-1.836-.818-2.913-.818c-1.53 0-2.846.525-3.949 1.575s-1.655 2.804-1.655 5.26zm16.25 7.919V59.819h2.167v6.71h8.446v-6.71h2.167v16.329h-2.167v-7.689h-8.446v7.689h-2.167v-.001z"/><path d="M95.564 49.262V47.41l24.462 14.108-.807 1.425-23.655-13.68zm-7.832-37.587c0-2.709.728-4.831 2.184-6.364s3.334-2.299 5.634-2.299c1.509 0 2.867.36 4.076 1.08s2.134 1.724 2.768 3.012.952 2.749.952 4.381c0 1.655-.334 3.137-1.002 4.443s-1.615 2.296-2.841 2.968-2.547 1.008-3.965 1.008c-1.536 0-2.911-.371-4.121-1.113a7.17 7.17 0 0 1-2.751-3.04 9.22 9.22 0 0 1-.935-4.076zm2.227.028c0 1.967.529 3.516 1.588 4.648s2.386 1.698 3.981 1.698c1.627 0 2.965-.572 4.018-1.715s1.575-2.765 1.575-4.865c0-1.328-.224-2.488-.674-3.479s-1.107-1.759-1.972-2.305-1.835-.818-2.913-.818c-1.529 0-2.846.525-3.948 1.575s-1.656 2.804-1.656 5.26zm1.947 10.341h1.614v27.929h-1.614V22.044z"/><path d="M97.606 22.044h1.614v27.929h-1.614V22.044zm-41.155 91.818V97.533h2.223l8.554 12.814V97.533h2.079v16.329h-2.223l-8.554-12.815v12.815h-2.079zm16.569 0V97.533h2.167v6.71h8.446v-6.71H85.8v16.329h-2.167v-7.689h-8.446v7.689H73.02zm-9.281-18.525h-1.615V67.739l.807-.57.808.475v27.692z"/><path d="M27.354 56.482l-.617-1.9 36.1 11.733.095.855-.807.57-34.77-11.257z"/><path d="M5.884 86.027H3.889l22.848-31.445.617 1.9-21.47 29.545z"/><path d="M27.354 115.572l-.617 1.9L3.889 86.027h1.995l21.47 29.545z"/><path d="M53.336 107.164l.475 1.52-27.075 8.788.617-1.9 25.982-8.407z"/></svg>