<svg xmlns="http://www.w3.org/2000/svg" width="277.008" height="124.685" overflow="visible" xmlns:v="https://vecta.io/nano"><path d="M148.665 49.368v-1.853l32.68 18.81v.95l-.855.428-31.825-18.334z"/><path d="M182.2 67.702l-.855-.428v-.95l32.632-18.81v1.853L182.2 67.702zm56.626.603c0-2.71.728-4.831 2.183-6.363s3.334-2.3 5.636-2.3c1.508 0 2.866.36 4.076 1.08s2.133 1.724 2.767 3.012.953 2.749.953 4.381c0 1.656-.334 3.137-1.003 4.443s-1.614 2.296-2.84 2.968a8.12 8.12 0 0 1-3.965 1.008c-1.537 0-2.911-.371-4.121-1.113a7.17 7.17 0 0 1-2.751-3.04c-.624-1.284-.936-2.643-.936-4.076zm2.227.028c0 1.967.529 3.516 1.587 4.648s2.386 1.698 3.982 1.698c1.626 0 2.965-.572 4.017-1.715s1.576-2.764 1.576-4.865c0-1.328-.224-2.488-.674-3.479s-1.106-1.759-1.971-2.305-1.836-.818-2.913-.818c-1.529 0-2.846.525-3.949 1.575s-1.655 2.804-1.655 5.26zm16.249 7.919V59.924h2.167v6.71h8.446v-6.71h2.167v16.329h-2.167v-7.689h-8.446v7.689h-2.167v-.001z"/><path d="M213.978 49.368v-1.853l24.463 14.107-.808 1.425-23.655-13.679zm-7.831-37.588c0-2.71.728-4.831 2.182-6.363s3.334-2.3 5.636-2.3c1.507 0 2.866.36 4.076 1.08s2.132 1.724 2.767 3.012.953 2.749.953 4.381c0 1.656-.334 3.137-1.003 4.443s-1.615 2.296-2.84 2.968-2.548 1.008-3.965 1.008c-1.538 0-2.911-.371-4.121-1.113a7.16 7.16 0 0 1-2.751-3.04c-.623-1.283-.935-2.643-.935-4.076zm2.226.028c0 1.967.529 3.516 1.587 4.648s2.386 1.698 3.983 1.698c1.625 0 2.965-.572 4.016-1.715s1.577-2.764 1.577-4.865c0-1.328-.224-2.488-.675-3.479s-1.107-1.759-1.971-2.305-1.837-.818-2.913-.818a5.53 5.53 0 0 0-3.95 1.575c-1.103 1.051-1.654 2.804-1.654 5.26zm1.947 10.341h1.614v27.93h-1.614v-27.93z"/><path d="M216.02 22.149h1.614v27.93h-1.614v-27.93zm-41.156 91.819V97.639h2.223l8.554 12.815V97.639h2.079v16.329h-2.223l-8.554-12.815v12.815h-2.079zm16.569 0V97.639h2.167v6.71h8.446v-6.71h2.167v16.329h-2.167v-7.689H193.6v7.689h-2.167zm23.024 2.835v1.44h-8.104a2.62 2.62 0 0 1 .177-1.044c.207-.551.538-1.093.996-1.627s1.112-1.15 1.966-1.85c1.326-1.095 2.226-1.961 2.698-2.597s.711-1.24.711-1.808a2 2 0 0 0-.642-1.505c-.428-.409-.985-.613-1.672-.613-.728 0-1.308.218-1.744.654s-.656 1.039-.662 1.81l-1.544-.163c.105-1.155.504-2.035 1.197-2.639s1.62-.908 2.787-.908c1.176 0 2.108.326 2.794.978s1.03 1.459 1.03 2.422c0 .49-.101.972-.302 1.445s-.535.972-1 1.495-1.239 1.242-2.317 2.155l-1.742 1.542c-.257.269-.471.541-.638.813h6.014v.001zm-29.502-21.36h-7.267l2.802-27.741.855-.428.855.428 2.755 27.741zm-68.162-27.645l-.76-.523-.047-.902 32.68-18.858v1.853l-31.873 18.43zm-64.423 53.77v-16.329h2.167v6.71h8.446v-6.71h2.167v16.329h-2.167v-7.689h-8.446v7.689H52.37zm16.362 0v-16.329h2.223l8.554 12.815v-12.815h2.079v16.329h-2.223l-8.554-12.815v12.815h-2.079z"/><path d="M81.785 52.93l-.19-.997.665-.571 33.725 15.011.047.902-.855.523L81.785 52.93z"/><path d="M57.37 80.052l-.997-.094-.285-.903 24.605-27.312.903.19.19.997L57.37 80.052zm-2.422-5.747l-1.187-1.093 20.853-23.179 1.188 1.092-20.853 23.181z"/><path d="M70.005 101.998l-1.377.808L55.85 80.67l.523-.713.997.094 12.635 21.946zm41.325 2.089l1.52 1.377-28.405 6.033-.332-1.614 27.218-5.796z"/><path d="M115.178 67.798l.855-.523.76.523-3.942 37.667-1.52-1.377 3.847-36.289zm-5.985 2.897l1.567.142-3.087 29.356-1.568-.191 3.088-29.307zm-39.9-53.912l1.282-1.378L82.26 51.362l-.665.571-.903-.19-11.4-34.96z"/><path d="M33.335 9.135l-.57-1.758 37.81 8.028-1.282 1.378-35.957-7.648zM65.73 20.161l-.333 1.567-30.492-6.471.333-1.567 30.492 6.471z"/><path d="M8.73 36.448l-1.805-.38 25.84-28.691.57 1.758L8.73 36.448z"/><path d="M20.13 71.455l-1.282 1.377L6.925 36.068l1.805.38 11.4 35.008zm4.513-4.418l-1.568.475-9.642-29.639L15 37.397l9.643 29.64z"/><path d="M56.088 79.055l.285.903-.523.713-37.002-7.838 1.282-1.377 35.957 7.6z"/></svg>