<svg xmlns="http://www.w3.org/2000/svg" width="289.921" height="136.831" overflow="visible" xmlns:v="https://vecta.io/nano"><path d="M161.254 49.672v-1.853l32.681 18.81v.95l-.856.427-31.825-18.334z"/><path d="M194.789 68.006l-.854-.427v-.95l32.632-18.81v1.853l-31.778 18.334zm56.627.603c0-2.71.728-4.831 2.183-6.363s3.334-2.3 5.636-2.3c1.508 0 2.866.36 4.076 1.08s2.133 1.724 2.767 3.012.953 2.749.953 4.381c0 1.656-.334 3.137-1.003 4.443s-1.614 2.296-2.84 2.968a8.12 8.12 0 0 1-3.965 1.008c-1.537 0-2.911-.371-4.121-1.113a7.17 7.17 0 0 1-2.751-3.04c-.624-1.284-.936-2.643-.936-4.076zm2.226.028c0 1.967.529 3.516 1.587 4.648s2.386 1.698 3.982 1.698c1.626 0 2.965-.572 4.017-1.715s1.576-2.764 1.576-4.865c0-1.328-.224-2.488-.675-3.479s-1.106-1.759-1.971-2.305-1.836-.818-2.913-.818c-1.529 0-2.846.525-3.949 1.575s-1.655 2.804-1.655 5.26zm16.251 7.919V60.228h2.167v6.71h8.446v-6.71h2.167v16.329h-2.167v-7.689h-8.446v7.689h-2.167v-.001z"/><path d="M226.567 49.672v-1.853l24.462 14.108-.807 1.425-23.656-13.679zm-7.831-37.588c0-2.71.728-4.831 2.182-6.363s3.334-2.3 5.637-2.3c1.507 0 2.866.36 4.076 1.08s2.132 1.724 2.767 3.012.953 2.749.953 4.381c0 1.656-.334 3.137-1.003 4.443s-1.615 2.296-2.84 2.968-2.548 1.008-3.965 1.008c-1.538 0-2.911-.371-4.121-1.113a7.16 7.16 0 0 1-2.751-3.04 9.22 9.22 0 0 1-.936-4.076zm2.227.028c0 1.967.529 3.516 1.587 4.648s2.386 1.698 3.983 1.698c1.625 0 2.965-.572 4.016-1.715s1.577-2.764 1.577-4.865c0-1.328-.224-2.488-.674-3.479s-1.107-1.759-1.971-2.305-1.837-.818-2.913-.818a5.53 5.53 0 0 0-3.95 1.575c-1.103 1.051-1.654 2.804-1.654 5.26zm1.947 10.341h1.615v27.93h-1.615v-27.93z"/><path d="M228.61 22.453h1.615v27.93h-1.615v-27.93zm-41.156 91.819V97.943h2.223l8.554 12.815V97.943h2.079v16.329h-2.223l-8.554-12.815v12.815h-2.079zm16.569 0V97.943h2.167v6.71h8.446v-6.71h2.167v16.329h-2.167v-7.689h-8.446v7.689h-2.167zm23.024 2.834v1.44h-8.104a2.62 2.62 0 0 1 .177-1.044c.207-.551.538-1.093.996-1.627s1.112-1.15 1.966-1.85c1.326-1.095 2.226-1.961 2.698-2.597s.711-1.24.711-1.808a2 2 0 0 0-.642-1.505c-.428-.409-.985-.613-1.672-.613-.728 0-1.308.218-1.744.654s-.656 1.039-.662 1.81l-1.544-.163c.105-1.155.504-2.035 1.197-2.639s1.62-.908 2.787-.908c1.176 0 2.108.326 2.794.978s1.03 1.459 1.03 2.422c0 .49-.101.972-.302 1.445s-.535.972-1 1.495-1.239 1.242-2.317 2.155l-1.742 1.542c-.257.269-.471.541-.638.813h6.014v.001zm-29.502-21.359h-7.268l2.802-27.741.856-.427.854.427 2.756 27.741zm-68.116-27.694l-.807-.475v-.95l32.632-18.81v1.853l-31.825 18.382z"/><path d="M95.989 49.672v-1.853l32.633 18.81v.95l-.808.475-31.825-18.382zm-.426 6.269l.807-1.377 26.98 15.579-.808 1.425-26.979-15.627z"/><path d="M64.117 68.053l-1.615-.95 33.488-19.285v1.853L64.117 68.053z"/><path d="M64.117 104.818l-.807.475-.808-.475V67.103l1.615.95v36.765zm4.037-33.962h1.615v31.16h-1.615v-31.16z"/><path d="M95.989 123.201v1.853L63.31 106.197v-.903l.807-.475 31.873 18.382z"/><path d="M127.814 104.818l1.615.95-33.44 19.285V123.2l31.825-18.382zm-5.272-3.515l.808 1.425-26.98 15.581-.807-1.425 26.979-15.581z"/><path d="M127.814 68.053l.808-.475.807.475v37.715l-1.615-.95V68.053zM7.248 133.128V116.8h2.167v6.71h8.446v-6.71h2.167v16.329h-2.167v-7.689H9.415v7.689H7.248zm15.723-7.947c0-2.71.728-4.831 2.183-6.363s3.334-2.3 5.636-2.3c1.508 0 2.866.36 4.076 1.08s2.133 1.724 2.768 3.012.952 2.749.952 4.381c0 1.656-.334 3.137-1.002 4.443s-1.615 2.296-2.84 2.968a8.12 8.12 0 0 1-3.965 1.008c-1.537 0-2.911-.371-4.121-1.113a7.17 7.17 0 0 1-2.751-3.04c-.624-1.283-.936-2.643-.936-4.076zm2.227.028c0 1.966.529 3.516 1.587 4.648s2.386 1.698 3.982 1.698c1.626 0 2.965-.572 4.017-1.715s1.576-2.764 1.576-4.865c0-1.328-.224-2.488-.674-3.479s-1.107-1.759-1.972-2.305-1.836-.818-2.913-.818c-1.529 0-2.846.525-3.949 1.575s-1.655 2.803-1.655 5.26zm14.551-5.381l-.808-1.378 23.56-13.632.808.475v.903l-23.561 13.632z"/></svg>